<?xml version="1.0" encoding="utf-8"?>
<!-- Generator: Adobe Illustrator 15.0.0, SVG Export Plug-In . SVG Version: 6.00 Build 0)  -->
<!DOCTYPE svg PUBLIC "-//W3C//DTD SVG 1.1//EN" "http://www.w3.org/Graphics/SVG/1.1/DTD/svg11.dtd">
<svg version="1.1" id="Capa_1" xmlns="http://www.w3.org/2000/svg" xmlns:xlink="http://www.w3.org/1999/xlink" x="0px" y="0px"
	 width="700px" height="700px" viewBox="0 0 700 700" enable-background="new 0 0 700 700" xml:space="preserve">
<g>
	<g>
		<polygon fill="#986338" points="291.682,436.21 350.024,403.271 408.399,436.148 395.101,370.479 444.42,325.123 377.85,317.475 
			349.954,256.559 322.109,317.504 255.55,325.214 304.91,370.521 		"/>
		<polygon fill="#986338" points="478.818,409.591 517.521,387.729 556.246,409.549 547.425,365.984 580.141,335.899 
			535.986,330.824 517.472,290.408 499.007,330.846 454.853,335.95 487.59,366.016 		"/>
		<polygon fill="#986338" points="143.825,409.591 182.528,387.729 221.252,409.549 212.431,365.984 245.147,335.899 
			200.994,330.824 182.478,290.408 164.013,330.846 119.859,335.95 152.607,366.016 		"/>
		<path fill="#986338" d="M700,299.192v-122.21H0v122.211c28.058,0,50.808,22.74,50.808,50.808c0,28.069-22.75,50.808-50.808,50.808
			v122.209h700V400.809c-28.059,0-50.809-22.751-50.809-50.809C649.191,321.94,671.941,299.192,700,299.192z M606.689,464.926
			H93.311V235.073H606.69L606.689,464.926L606.689,464.926z"/>
	</g>
</g>
</svg>
