<?xml version="1.0" encoding="utf-8"?>
<!-- Generator: Adobe Illustrator 15.0.0, SVG Export Plug-In . SVG Version: 6.00 Build 0)  -->
<!DOCTYPE svg PUBLIC "-//W3C//DTD SVG 1.1//EN" "http://www.w3.org/Graphics/SVG/1.1/DTD/svg11.dtd">
<svg version="1.1" id="Capa_1" xmlns="http://www.w3.org/2000/svg" xmlns:xlink="http://www.w3.org/1999/xlink" x="0px" y="0px"
	  viewBox="0 0 1920 1080" enable-background="new 0 0 1920 1080" xml:space="preserve">
<path class="relleno" fill="#009ECE" d="M1216.378,179.034c-5.516,0-11.041,0.167-16.562,0.5C1154.525,72.533,1045.855,0,926.011,0
	c-163.37,0-296.281,130.28-296.281,290.414c0,0.564,0,1.124,0.005,1.688c-109.581,8.239-196.188,98.368-196.188,207.973
	c0,115.009,95.359,208.578,212.568,208.578h570.258c148.918,0,270.076-118.795,270.076-264.809
	C1486.453,297.825,1365.295,179.034,1216.378,179.034z M1216.378,639.301H646.12c-78.969,0-143.217-62.459-143.217-139.227
	c0-76.772,64.248-139.236,143.217-139.236c4.873,0,10.292,0.37,17.046,1.156c10.704,1.267,21.379-2.543,28.893-10.273
	c7.514-7.726,10.999-18.508,9.445-29.174c-1.604-10.999-2.418-21.813-2.418-32.138C699.082,168.521,800.881,69.352,926.011,69.352
	c99.589,0,188.998,64.895,217.428,157.808c5.095,16.64,21.73,26.945,38.893,24.051c11.188-1.877,22.641-2.825,34.042-2.825
	c110.677,0,200.724,87.684,200.724,195.457C1417.102,551.621,1327.055,639.301,1216.378,639.301z"/>
<path class="relleno" fill="#009ECE" d="M603.094,909.672l99.34-99.34c13.542-13.542,13.542-35.499,0-49.037c-13.542-13.542-35.499-13.542-49.036,0
	l-99.34,99.34c-13.542,13.543-13.542,35.499,0,49.041c6.769,6.77,15.646,10.158,24.519,10.158
	C587.448,919.824,596.32,916.44,603.094,909.672z"/>
<path class="relleno" fill="#009ECE" d="M815.024,909.672l99.33-99.34c13.542-13.542,13.538-35.499-0.004-49.041
	c-13.547-13.543-35.499-13.538-49.042,0.004l-99.33,99.34c-13.542,13.543-13.537,35.499,0,49.041
	c6.773,6.77,15.646,10.153,24.519,10.153C799.379,919.824,808.256,916.44,815.024,909.672z"/>
<path class="relleno" fill="#009ECE" d="M1026.945,909.672l99.33-99.34c13.543-13.542,13.538-35.499,0-49.041
	c-13.546-13.543-35.498-13.538-49.041,0.004l-99.33,99.34c-13.542,13.543-13.537,35.499,0,49.041
	c6.773,6.77,15.646,10.153,24.519,10.153C1011.3,919.824,1020.177,916.44,1026.945,909.672z"/>
<path class="relleno" fill="#009ECE" d="M1289.165,761.291l-99.34,99.34c-13.542,13.542-13.542,35.498,0,49.041
	c6.769,6.769,15.646,10.157,24.519,10.157s17.75-3.384,24.519-10.157l99.339-99.34c13.543-13.542,13.543-35.499,0-49.037
	C1324.664,747.748,1302.707,747.748,1289.165,761.291z"/>
<path class="relleno" fill="#009ECE" d="M667.947,921.461l-99.33,99.34c-13.543,13.542-13.538,35.499,0,49.041
	c6.772,6.77,15.646,10.153,24.518,10.153c8.877,0,17.75-3.384,24.523-10.157l99.33-99.34c13.542-13.543,13.537-35.499-0.005-49.041
	C703.446,907.919,681.489,907.919,667.947,921.461z"/>
<path class="relleno" fill="#009ECE" d="M880.492,921.461l-99.33,99.34c-13.542,13.542-13.537,35.499,0.005,49.041
	c6.772,6.77,15.646,10.153,24.518,10.153c8.873,0,17.75-3.384,24.523-10.157l99.33-99.34c13.542-13.543,13.538-35.499,0-49.041
	C915.987,907.919,894.035,907.919,880.492,921.461z"/>
<path class="relleno" fill="#009ECE" d="M1093.038,921.461l-99.331,99.34c-13.542,13.542-13.537,35.499,0,49.041
	c6.773,6.77,15.646,10.153,24.519,10.153s17.749-3.384,24.522-10.157l99.331-99.34c13.542-13.543,13.537-35.499-0.005-49.041
	C1128.532,907.919,1106.58,907.919,1093.038,921.461z"/>
</svg>
