<?xml version="1.0" encoding="utf-8"?>
<!-- Generator: Adobe Illustrator 15.0.0, SVG Export Plug-In . SVG Version: 6.00 Build 0)  -->
<!DOCTYPE svg PUBLIC "-//W3C//DTD SVG 1.1//EN" "http://www.w3.org/Graphics/SVG/1.1/DTD/svg11.dtd">
<svg version="1.1" id="Capa_1" xmlns="http://www.w3.org/2000/svg" xmlns:xlink="http://www.w3.org/1999/xlink" x="0px" y="0px"
	 width="120px" height="120px" viewBox="0 0 120 120" enable-background="new 0 0 120 120" xml:space="preserve">
<g>
	<path fill="#FFFFFF" d="M65.541,53.662v-0.125c-0.025,0.043-0.062,0.084-0.084,0.125H65.541z"/>
	<path fill="#FFFFFF" d="M60,5.167C29.717,5.167,5.167,29.717,5.167,60S29.717,114.833,60,114.833S114.833,90.283,114.833,60
		S90.283,5.167,60,5.167z M45.891,86.2H33.241V48.145h12.649V86.2z M39.565,42.951h-0.082c-4.244,0-6.994-2.923-6.994-6.577
		c0-3.733,2.831-6.574,7.16-6.574s6.989,2.841,7.073,6.574C46.723,40.028,43.979,42.951,39.565,42.951z M91.511,86.2H78.858V65.84
		c0-5.113-1.827-8.604-6.408-8.604c-3.496,0-5.573,2.351-6.49,4.627c-0.333,0.813-0.419,1.942-0.419,3.084V86.2H52.887
		c0,0,0.17-34.485,0-38.056h12.654v5.393c1.682-2.588,4.681-6.286,11.403-6.286c8.325,0,14.566,5.438,14.566,17.125V86.2z"/>
</g>
</svg>
