<?xml version="1.0" encoding="utf-8"?>
<!-- Generator: Adobe Illustrator 15.0.0, SVG Export Plug-In . SVG Version: 6.00 Build 0)  -->
<!DOCTYPE svg PUBLIC "-//W3C//DTD SVG 1.1//EN" "http://www.w3.org/Graphics/SVG/1.1/DTD/svg11.dtd">
<svg version="1.1" id="Capa_1" xmlns="http://www.w3.org/2000/svg" xmlns:xlink="http://www.w3.org/1999/xlink" x="0px" y="0px"
	 width="120px" height="120px" viewBox="0 0 120 120" enable-background="new 0 0 120 120" xml:space="preserve">
<g>
	<polygon fill="#FFFFFF" points="53.445,71.088 72.166,58.744 53.445,46.404 	"/>
	<path fill="#FFFFFF" d="M60,5.168C29.717,5.168,5.168,29.717,5.168,60S29.717,114.832,60,114.832S114.832,90.283,114.832,60
		S90.283,5.168,60,5.168z M92.775,73.141c0,5.412-4.385,9.801-9.798,9.801H37.022c-5.413,0-9.798-4.389-9.798-9.801V46.859
		c0-5.414,4.385-9.801,9.798-9.801h45.955c5.413,0,9.798,4.387,9.798,9.801V73.141z"/>
</g>
</svg>
