<?xml version="1.0" encoding="utf-8"?>
<!-- Generator: Adobe Illustrator 15.0.0, SVG Export Plug-In . SVG Version: 6.00 Build 0)  -->
<!DOCTYPE svg PUBLIC "-//W3C//DTD SVG 1.1//EN" "http://www.w3.org/Graphics/SVG/1.1/DTD/svg11.dtd">
<svg version="1.1" id="Capa_2" xmlns="http://www.w3.org/2000/svg" xmlns:xlink="http://www.w3.org/1999/xlink" x="0px" y="0px"
	 width="1364px" height="414px" viewBox="0 0 1364 414" enable-background="new 0 0 1364 414" xml:space="preserve">
<rect x="346.043" y="161.915" fill="#FFFFFF" width="45" height="97.833"/>
<path fill="#FFFFFF" d="M409.709,161.915l-13.5,13.25v69.25l18.25,15.333h92.75v18.417l-5.25,6.75l-102.75,0.25l-3,11.25l5,9.5
	h139.25l15-14.75v-129.25H409.709z M506.209,236.165h-59v-52h59V236.165z"/>
<path fill="#FFFFFF" d="M702.209,221.415l16.25-14.5v-32.75l-14.25-12.25h-128.25l-15.25,12.25v72.75l15.5,14h137.25V237.54H613.334
	l-3.625-3.625v-12.5H702.209z M607.709,197.165l5.25-13h53l3,3.75v6.25l-3,3H607.709z"/>
<path fill="#FFFFFF" d="M1130.209,221.415l16.25-14.5v-32.75l-14.25-12.25h-128.25l-15.25,12.25v72.75l15.5,14h137.25V237.54
	h-100.125l-3.625-3.625v-12.5H1130.209z M1035.709,197.165l5.25-13h53l3,3.75v6.25l-3,3H1035.709z"/>
<polygon fill="#FFFFFF" points="723.959,260.915 723.959,161.915 864.209,161.915 877.709,174.915 877.709,260.915 830.209,260.915 
	830.209,188.915 824.459,184.165 771.459,184.165 771.459,260.915 "/>
<polygon fill="#FFFFFF" points="883.209,117.249 883.209,243.249 896.209,260.915 981.209,260.915 981.209,237.582 932.209,237.582 
	932.209,184.165 981.209,184.165 981.209,159.248 930.209,159.248 930.209,117.249 "/>
<polygon fill="#FFFFFF" points="1200.043,260.915 1152.211,260.915 1152.211,173.915 1164.877,161.248 1269.543,161.248 
	1269.543,184.165 1205.211,184.165 1200.084,188.904 "/>
<g>
	<path fill="#FFFFFF" d="M1311.096,172.211c0,6.624-5.33,11.881-12.098,11.881c-6.77,0-12.17-5.257-12.17-11.881
		c0-6.625,5.4-11.81,12.242-11.81C1305.766,160.401,1311.096,165.586,1311.096,172.211z M1289.854,172.211
		c0,5.256,3.959,9.432,9.217,9.432c5.111,0.072,9-4.176,9-9.36c0-5.257-3.889-9.505-9.145-9.505
		C1293.812,162.777,1289.854,167.025,1289.854,172.211z M1297.125,178.331h-2.736v-11.81c1.08-0.144,2.594-0.359,4.537-0.359
		c2.232,0,3.24,0.359,4.033,0.936c0.719,0.504,1.223,1.368,1.223,2.521c0,1.44-1.08,2.376-2.447,2.808v0.145
		c1.152,0.359,1.729,1.296,2.088,2.881c0.359,1.8,0.648,2.447,0.863,2.88h-2.879c-0.361-0.433-0.576-1.44-0.938-2.88
		c-0.215-1.225-0.936-1.801-2.447-1.801h-1.297V178.331z M1297.197,171.706h1.297c1.512,0,2.736-0.504,2.736-1.728
		c0-1.08-0.793-1.801-2.521-1.801c-0.719,0-1.223,0.072-1.512,0.145V171.706z"/>
</g>
<g>
	<path fill="#E7500D" d="M604.138,291.813c0-3.072-0.097-5.664-0.192-7.872h6.337l0.336,3.264h0.096
		c1.729-2.448,4.417-3.792,7.825-3.792c5.136,0,9.744,4.464,9.744,11.953c0,8.545-5.424,12.577-10.656,12.577
		c-2.833,0-5.041-1.152-6.097-2.688h-0.096v11.665h-7.297V291.813z M611.435,297.334c0,0.576,0.048,1.057,0.144,1.536
		c0.48,1.969,2.16,3.456,4.272,3.456c3.168,0,5.04-2.64,5.04-6.624c0-3.744-1.68-6.577-4.944-6.577
		c-2.064,0-3.888,1.536-4.368,3.696c-0.096,0.385-0.144,0.864-0.144,1.297V297.334z"/>
	<path fill="#E7500D" d="M653.963,299.878c0,3.072,0.097,5.569,0.192,7.537h-6.337l-0.336-3.312h-0.144
		c-0.912,1.44-3.12,3.841-7.345,3.841c-4.801,0-8.257-2.977-8.257-10.226v-13.776h7.297v12.625c0,3.408,1.104,5.472,3.696,5.472
		c2.016,0,3.216-1.392,3.648-2.544c0.191-0.432,0.288-0.96,0.288-1.584v-13.969h7.296V299.878z"/>
	<path fill="#E7500D" d="M658.809,291.43c0-2.929-0.096-5.377-0.191-7.488h6.336l0.336,3.264h0.145
		c0.959-1.536,3.312-3.792,7.248-3.792c4.801,0,8.402,3.216,8.402,10.129v13.873h-7.298v-13.009c0-3.024-1.056-5.089-3.696-5.089
		c-2.017,0-3.217,1.393-3.744,2.736c-0.192,0.48-0.24,1.152-0.24,1.824v13.537h-7.297V291.43z"/>
	<path fill="#E7500D" d="M693.801,277.604v6.337h5.232v5.376h-5.232v8.497c0,2.832,0.721,4.128,2.881,4.128
		c1.008,0,1.488-0.048,2.16-0.191l0.049,5.521c-0.912,0.336-2.689,0.624-4.705,0.624c-2.352,0-4.32-0.816-5.521-2.017
		c-1.344-1.393-2.016-3.648-2.016-6.961v-9.601h-3.119v-5.376h3.119v-4.369L693.801,277.604z"/>
	<path fill="#E7500D" d="M725.195,295.414c0,8.593-6.098,12.529-12.385,12.529c-6.865,0-12.146-4.513-12.146-12.098
		c0-7.632,4.992-12.48,12.578-12.48C720.395,283.365,725.195,288.31,725.195,295.414z M708.201,295.654
		c0,4.032,1.68,7.057,4.801,7.057c2.881,0,4.656-2.833,4.656-7.104c0-3.457-1.344-7.009-4.656-7.009
		C709.545,288.598,708.201,292.197,708.201,295.654z"/>
	<path fill="#E7500D" d="M768.826,273.332v27.074c0,2.641,0.096,5.425,0.191,7.009h-6.48l-0.287-3.408h-0.145
		c-1.439,2.592-4.32,3.937-7.344,3.937c-5.568,0-10.033-4.753-10.033-12.05c-0.049-7.92,4.896-12.528,10.512-12.528
		c2.93,0,5.137,1.056,6.193,2.64h0.096v-12.673H768.826z M761.529,293.878c0-0.384,0-0.912-0.096-1.344
		c-0.432-1.921-2.016-3.553-4.271-3.553c-3.361,0-5.041,2.977-5.041,6.673c0,3.984,1.969,6.48,4.992,6.48
		c2.111,0,3.84-1.44,4.271-3.505c0.098-0.527,0.145-1.104,0.145-1.68V293.878z"/>
	<path fill="#E7500D" d="M779.289,298.006c0.191,3.024,3.215,4.465,6.623,4.465c2.496,0,4.514-0.336,6.48-1.008l0.961,4.944
		c-2.4,1.008-5.328,1.488-8.496,1.488c-7.969,0-12.529-4.608-12.529-11.953c0-5.953,3.695-12.529,11.857-12.529
		c7.584,0,10.465,5.904,10.465,11.713c0,1.248-0.145,2.353-0.24,2.88H779.289z M787.881,293.014c0-1.776-0.768-4.752-4.129-4.752
		c-3.072,0-4.32,2.832-4.512,4.752H787.881z"/>
	<path fill="#E7500D" d="M829.688,298.006c0.191,3.024,3.217,4.465,6.625,4.465c2.496,0,4.512-0.336,6.48-1.008l0.961,4.944
		c-2.4,1.008-5.33,1.488-8.498,1.488c-7.969,0-12.529-4.608-12.529-11.953c0-5.953,3.697-12.529,11.857-12.529
		c7.584,0,10.465,5.904,10.465,11.713c0,1.248-0.145,2.353-0.24,2.88H829.688z M838.281,293.014c0-1.776-0.77-4.752-4.129-4.752
		c-3.072,0-4.32,2.832-4.512,4.752H838.281z"/>
	<path fill="#E7500D" d="M848.408,291.43c0-2.929-0.098-5.377-0.193-7.488h6.338l0.336,3.264h0.143
		c0.961-1.536,3.312-3.792,7.25-3.792c4.799,0,8.4,3.216,8.4,10.129v13.873h-7.297v-13.009c0-3.024-1.057-5.089-3.697-5.089
		c-2.016,0-3.215,1.393-3.744,2.736c-0.191,0.48-0.24,1.152-0.24,1.824v13.537h-7.295V291.43z"/>
	<path fill="#E7500D" d="M875.527,273.332h7.297v34.083h-7.297V273.332z"/>
	<path fill="#E7500D" d="M907.256,301.751c0,2.208,0.096,4.368,0.385,5.664h-6.576l-0.432-2.353h-0.145
		c-1.537,1.872-3.938,2.881-6.721,2.881c-4.752,0-7.584-3.457-7.584-7.201c0-6.097,5.471-8.977,13.775-8.977v-0.288
		c0-1.296-0.672-3.072-4.271-3.072c-2.4,0-4.945,0.816-6.48,1.776l-1.344-4.704c1.631-0.912,4.848-2.112,9.121-2.112
		c7.824,0,10.271,4.608,10.271,10.177V301.751z M900.199,296.326c-3.84,0-6.816,0.912-6.816,3.696c0,1.872,1.248,2.784,2.881,2.784
		c1.775,0,3.312-1.2,3.793-2.688c0.096-0.384,0.143-0.815,0.143-1.248V296.326z"/>
	<path fill="#E7500D" d="M929.672,306.791c-1.295,0.624-3.744,1.104-6.527,1.104c-7.586,0-12.434-4.657-12.434-12.002
		c0-6.864,4.703-12.48,13.441-12.48c1.92,0,4.031,0.336,5.568,0.912l-1.152,5.424c-0.865-0.384-2.16-0.72-4.08-0.72
		c-3.842,0-6.338,2.736-6.289,6.577c0,4.271,2.881,6.576,6.432,6.576c1.729,0,3.072-0.288,4.178-0.769L929.672,306.791z"/>
	<path fill="#E7500D" d="M937.783,298.006c0.191,3.024,3.217,4.465,6.625,4.465c2.496,0,4.512-0.336,6.48-1.008l0.961,4.944
		c-2.4,1.008-5.33,1.488-8.498,1.488c-7.969,0-12.529-4.608-12.529-11.953c0-5.953,3.697-12.529,11.857-12.529
		c7.584,0,10.465,5.904,10.465,11.713c0,1.248-0.145,2.353-0.24,2.88H937.783z M946.377,293.014c0-1.776-0.77-4.752-4.129-4.752
		c-3.072,0-4.32,2.832-4.512,4.752H946.377z"/>
	<path fill="#E7500D" d="M982.566,273.332h7.297v34.083h-7.297V273.332z"/>
	<path fill="#E7500D" d="M1014.297,301.751c0,2.208,0.096,4.368,0.383,5.664h-6.576l-0.432-2.353h-0.145
		c-1.535,1.872-3.936,2.881-6.721,2.881c-4.752,0-7.584-3.457-7.584-7.201c0-6.097,5.473-8.977,13.777-8.977v-0.288
		c0-1.296-0.672-3.072-4.273-3.072c-2.398,0-4.943,0.816-6.48,1.776l-1.344-4.704c1.633-0.912,4.85-2.112,9.121-2.112
		c7.824,0,10.273,4.608,10.273,10.177V301.751z M1007.24,296.326c-3.84,0-6.816,0.912-6.816,3.696c0,1.872,1.248,2.784,2.879,2.784
		c1.777,0,3.312-1.2,3.793-2.688c0.096-0.384,0.145-0.815,0.145-1.248V296.326z"/>
	<path fill="#E7500D" d="M1019.096,273.332h7.295v13.394h0.098c1.391-2.017,3.84-3.312,7.104-3.312
		c5.617,0,9.697,4.656,9.648,11.856c0,8.449-5.328,12.674-10.705,12.674c-2.736,0-5.424-1.009-7.057-3.793h-0.096l-0.287,3.265
		h-6.193c0.096-1.536,0.193-4.368,0.193-7.009V273.332z M1026.391,297.431c0,0.479,0.049,0.911,0.145,1.296
		c0.48,1.92,2.16,3.456,4.273,3.456c3.119,0,5.039-2.4,5.039-6.625c0-3.647-1.631-6.528-5.039-6.528
		c-1.969,0-3.793,1.488-4.273,3.601c-0.096,0.432-0.145,0.864-0.145,1.344V297.431z"/>
	<path fill="#E7500D" d="M1070.119,295.414c0,8.593-6.096,12.529-12.385,12.529c-6.865,0-12.145-4.513-12.145-12.098
		c0-7.632,4.992-12.48,12.576-12.48C1065.318,283.365,1070.119,288.31,1070.119,295.414z M1053.127,295.654
		c0,4.032,1.68,7.057,4.799,7.057c2.881,0,4.656-2.833,4.656-7.104c0-3.457-1.344-7.009-4.656-7.009
		C1054.471,288.598,1053.127,292.197,1053.127,295.654z"/>
	<path fill="#E7500D" d="M1073.621,291.67c0-3.456-0.049-5.713-0.191-7.729h6.24l0.287,4.32h0.193
		c1.199-3.457,4.031-4.896,6.336-4.896c0.672,0,1.008,0.048,1.535,0.144v6.865c-0.574-0.097-1.15-0.192-1.967-0.192
		c-2.689,0-4.514,1.44-4.992,3.696c-0.098,0.48-0.145,1.056-0.145,1.632v11.905h-7.297V291.67z"/>
	<path fill="#E7500D" d="M1109.863,301.751c0,2.208,0.096,4.368,0.383,5.664h-6.576l-0.432-2.353h-0.145
		c-1.535,1.872-3.936,2.881-6.721,2.881c-4.752,0-7.584-3.457-7.584-7.201c0-6.097,5.473-8.977,13.777-8.977v-0.288
		c0-1.296-0.672-3.072-4.273-3.072c-2.398,0-4.943,0.816-6.48,1.776l-1.344-4.704c1.633-0.912,4.85-2.112,9.121-2.112
		c7.824,0,10.273,4.608,10.273,10.177V301.751z M1102.807,296.326c-3.84,0-6.816,0.912-6.816,3.696c0,1.872,1.248,2.784,2.879,2.784
		c1.777,0,3.312-1.2,3.793-2.688c0.096-0.384,0.145-0.815,0.145-1.248V296.326z"/>
	<path fill="#E7500D" d="M1114.662,273.332h7.295v34.083h-7.295V273.332z"/>
</g>
<path fill="none" stroke="#E7500D" stroke-width="3.5" stroke-miterlimit="10" d="M192.05,207l100.685-97.9
	c-25.393-25.915-60.779-42.002-99.928-42.002c-77.266,0-139.902,62.637-139.902,139.902s62.637,139.902,139.902,139.902
	c39.148,0,74.534-16.086,99.927-42.001L192.05,207z"/>
<path fill="none" stroke="#E7500D" stroke-width="3.5" stroke-miterlimit="10" d="M192.807,206.621l90.808,89.413
	c22.834-22.947,36.095-54.104,36.095-89.034c0-70.086-56.815-126.902-126.902-126.902c-70.086,0-126.902,56.816-126.902,126.902
	c0,34.93,14.115,66.561,36.949,89.508L192.807,206.621z"/>
<path fill="none" stroke="#E7500D" stroke-width="3.5" stroke-miterlimit="10" d="M192.807,207h108.902
	c0-60.145-48.757-108.902-108.902-108.902c-60.145,0-108.902,48.758-108.902,108.902c0,60.146,48.758,108.902,108.902,108.902V207z"
	/>
<path fill="none" stroke="#E7500D" stroke-width="3.5" stroke-miterlimit="10" d="M192.807,119.598V207h-87.402
	c0,48.271,39.132,87.402,87.402,87.402c48.271,0,87.402-39.132,87.402-87.402C280.209,158.729,241.078,119.598,192.807,119.598z"/>
<path fill="none" stroke="#E7500D" stroke-width="3.5" stroke-miterlimit="10" d="M237.022,163.271l-45.371,43.643l-42.655-43.645
	c-11.179,11.199-18.092,26.657-18.092,43.73c0,34.188,27.715,61.902,61.902,61.902s61.902-27.715,61.902-61.902
	C254.709,189.332,248.894,174.549,237.022,163.271z"/>
<path fill="#E7500D" d="M192.807,170.916c-10.097,0-19.217,4.162-25.755,10.857L192.807,207l-25.726,25.088
	c6.535,6.678,15.645,10.827,25.726,10.827c19.882,0,36-16.117,36-36C228.807,187.033,212.688,170.916,192.807,170.916z"/>
<line stroke="#E7500D" stroke-width="3.5" stroke-miterlimit="10" x1="105.543" y1="206.915" x2="301.543" y2="206.915"/>
<line stroke="#E7500D" stroke-width="3.5" stroke-miterlimit="10" x1="193.209" y1="118.249" x2="193.209" y2="314.249"/>
</svg>
