<?xml version="1.0" encoding="utf-8"?>
<!-- Generator: Adobe Illustrator 15.0.0, SVG Export Plug-In . SVG Version: 6.00 Build 0)  -->
<!DOCTYPE svg PUBLIC "-//W3C//DTD SVG 1.1//EN" "http://www.w3.org/Graphics/SVG/1.1/DTD/svg11.dtd">
<svg version="1.1" id="Capa_1" xmlns="http://www.w3.org/2000/svg" xmlns:xlink="http://www.w3.org/1999/xlink" x="0px" y="0px"
	 width="630.622px" height="198.019px" viewBox="0 0 630.622 198.019" enable-background="new 0 0 630.622 198.019"
	 xml:space="preserve">
<polygon fill="#FFFFFF" points="52.009,64.583 83.887,101.198 88.01,101.198 88.01,44.337 78.806,44.337 78.806,81.442 
	46.572,44.337 42.52,44.337 42.52,101.198 52.009,101.198 "/>
<path fill="#FFFFFF" d="M103.905,98.719c2.847,1.716,6.409,2.586,10.585,2.586c4.155,0,7.695-0.871,10.521-2.59
	c2.851-1.735,5.023-4.172,6.458-7.243c1.41-3.016,2.095-7.275,2.095-13.019V57.241h-9.133v20.25c0,6.093-0.421,8.209-0.681,8.956
	c-0.603,1.806-1.673,3.225-3.271,4.337c-1.621,1.126-3.58,1.674-5.988,1.674c-2.436,0-4.443-0.567-6.138-1.732
	c-1.647-1.134-2.732-2.641-3.311-4.588c-0.29-1.014-0.636-3.338-0.636-8.646v-20.25h-9.062v20.82c0,5.906,0.677,10.263,2.068,13.321
	C98.836,94.512,101.021,96.98,103.905,98.719z"/>
<path fill="#FFFFFF" d="M169.558,99.874c2.505-0.952,4.793-2.361,6.802-4.187c2.008-1.827,3.765-4.245,5.222-7.186l0.861-1.738
	l-7.592-4.054l-0.98,1.628c-1.429,2.374-2.737,4.083-3.89,5.079c-1.134,0.98-2.542,1.788-4.187,2.402
	c-1.642,0.614-3.361,0.925-5.109,0.925c-3.578,0-6.5-1.228-8.932-3.754c-2.04-2.116-3.24-4.689-3.643-7.823h34.971l-0.009-2.009
	c-0.025-5.757-1.61-10.658-4.707-14.561c-4.372-5.543-10.261-8.354-17.502-8.354c-7.105,0-12.854,2.754-17.079,8.179
	c-3.311,4.216-4.99,9.093-4.99,14.495c0,5.72,1.974,10.914,5.866,15.437c3.967,4.613,9.502,6.952,16.451,6.952
	C164.22,101.305,167.062,100.824,169.558,99.874z M152.361,68.251c2.398-2.151,5.191-3.196,8.538-3.196
	c2.021,0,3.98,0.435,5.82,1.292c1.825,0.852,3.298,1.969,4.38,3.323c0.685,0.855,1.276,1.921,1.768,3.184h-23.563
	C150.122,70.892,151.146,69.349,152.361,68.251z"/>
<path fill="#FFFFFF" d="M199.002,64.948c1.994,0,4.178,1.13,6.488,3.36l1.444,1.394l5.979-6.242l-1.439-1.384
	c-4.028-3.871-8.152-5.833-12.257-5.833c-3.588,0-6.628,1.178-9.035,3.501c-2.428,2.343-3.658,5.316-3.658,8.835
	c0,2.705,0.776,5.14,2.283,7.204c1.468,2.104,4.065,4.075,7.927,6.017c3.962,2.039,5.263,3.197,5.684,3.704
	c0.626,0.756,0.931,1.598,0.931,2.574c0,1.174-0.468,2.149-1.473,3.07c-1.04,0.954-2.271,1.417-3.764,1.417
	c-2.296,0-4.477-1.202-6.664-3.674l-1.501-1.695l-5.759,6.532l1.001,1.306c1.521,1.983,3.478,3.544,5.819,4.641
	c2.312,1.083,4.774,1.632,7.316,1.632c3.906,0,7.216-1.316,9.836-3.911c2.63-2.6,3.963-5.807,3.963-9.531
	c0-2.694-0.785-5.16-2.351-7.353c-1.53-2.078-4.253-4.102-8.326-6.191c-3.478-1.778-4.834-2.952-5.415-3.69
	c-0.661-0.772-0.982-1.512-0.982-2.264c0-0.908,0.35-1.652,1.103-2.342C196.938,65.3,197.871,64.948,199.002,64.948z"/>
<path fill="#FFFFFF" d="M261.451,58.719c-1.869-1.076-3.691-1.621-5.418-1.621c-2.285,0-4.938,1.045-8.107,3.196
	c-3.113,2.109-5.605,5.416-7.408,9.826c-0.781,1.635-1.383,3.731-1.785,6.232l-0.025,24.845h9.133V85.974
	c0-5.879,0.287-9.883,0.824-11.807c0.727-2.178,2.074-4.235,4.006-6.114c1.18-1.147,2.309-1.729,3.354-1.729
	c0.375,0,0.75,0.07,1.143,0.213l1.529,0.559l4.545-7.347L261.451,58.719z"/>
<path fill="#FFFFFF" d="M230.391,92.781c-0.568-0.075-1.139-0.235-1.717-0.502c-0.855-0.481-2.344-2.134-3.037-7.78V70.081h9.268
	v-8.313h-9.303V42.876h-9.062v42.54c-0.176,3.08,0.576,6.078,2.239,8.918c2.583,4.371,6.194,6.715,10.778,6.97
	c0.158,0.005,0.318,0.009,0.48,0.009c0.115,0,0.238-0.018,0.354-0.021V92.781z"/>
<path fill="#FFFFFF" d="M298.324,63.417c-4.346-4.761-9.879-7.174-16.447-7.174c-6.572,0-12.107,2.427-16.457,7.221
	c-3.912,4.351-5.896,9.55-5.896,15.453c0,5.939,2.094,11.201,6.221,15.637c4.164,4.48,9.594,6.751,16.133,6.751
	c6.514,0,11.934-2.271,16.111-6.749c4.141-4.438,6.24-9.7,6.24-15.64C304.229,72.993,302.246,67.782,298.324,63.417z
	 M288.568,90.848c-2.002,1.139-4.252,1.716-6.691,1.716c-2.428,0-4.602-0.562-6.643-1.718c-2.021-1.144-3.584-2.747-4.781-4.899
	c-1.209-2.175-1.797-4.451-1.797-6.959c0-3.869,1.285-7.074,3.928-9.8c2.625-2.709,5.666-4.026,9.293-4.026s6.668,1.317,9.293,4.026
	c2.643,2.726,3.926,5.932,3.926,9.8c0,2.476-0.6,4.819-1.783,6.966C292.131,88.104,290.578,89.704,288.568,90.848z"/>
<polygon fill="#FFFFFF" points="323.896,100.663 357.98,100.663 357.98,91.424 333.172,91.424 333.172,74.678 348.428,74.678 
	348.428,65.545 333.172,65.545 333.172,53.006 358.195,53.006 358.195,43.803 323.896,43.803 "/>
<path fill="#FFFFFF" d="M419.171,58.994c-2.387-1.564-5.165-2.357-8.317-2.357c-0.002,0-0.004,0-0.006,0
	c-4.227,0.129-7.791,1.053-10.596,2.746c-1.674,1.011-3.07,2.311-4.177,3.887c-0.447-0.752-0.925-1.406-1.438-1.971
	c-1.237-1.359-2.754-2.482-4.503-3.336c-1.766-0.864-3.742-1.311-5.875-1.327c-3.977-0.452-7.465,0.208-10.244,1.886
	c-2.699,1.484-4.915,3.513-6.533,5.956c-2.047,2.803-3.266,6.96-3.729,12.711l-0.006,23.547h8.99l-0.002-18.646
	c-0.18-5.016,0.156-8.621,0.998-10.715c0.78-1.942,2.007-3.358,3.748-4.326c1.854-1.03,3.729-1.53,5.73-1.53
	c1.256,0,2.409,0.378,3.526,1.156c1.217,0.848,2.288,2.016,3.183,3.47c0.475,0.772,1.271,2.911,1.271,8.558v22.033h9.025v-21.71
	c0.663-6.061,1.564-8.076,2.09-8.805c1.945-2.927,4.443-4.466,7.635-4.702c1.625,0.01,2.957,0.373,4.065,1.109
	c1.103,0.732,1.854,1.661,2.301,2.839c0.349,0.92,0.763,3.039,0.763,7.917v23.352h9.133V77.383c0-5.182-0.545-9.026-1.665-11.756
	C423.379,62.798,421.572,60.566,419.171,58.994z"/>
<path fill="#FFFFFF" d="M454.573,55.85c-3.444,0-6.729,0.674-9.768,2.004c-3.044,1.335-5.873,3.453-8.407,6.294l-0.223,0.302
	c-2.272,3.788-3.658,7.589-4.119,11.297l-0.016,39.281h8.99V96.074c1.333,1.1,2.742,2.013,4.219,2.731
	c2.875,1.398,6.06,2.107,9.466,2.107c6.047,0,11.289-2.229,15.581-6.626c4.281-4.384,6.452-9.771,6.452-16.013
	c0-6.148-2.186-11.478-6.495-15.842C465.938,58.065,460.661,55.85,454.573,55.85z M465.819,85.408
	c-1.248,2.234-2.871,3.912-4.962,5.129c-2.099,1.221-4.271,1.813-6.64,1.813c-2.43,0-4.675-0.598-6.862-1.827
	c-2.164-1.217-3.778-2.819-4.937-4.898c-1.173-2.104-1.743-4.402-1.743-7.028c0-4.029,1.281-7.29,3.916-9.968
	c2.627-2.669,5.752-3.966,9.554-3.966c2.487,0,4.704,0.592,6.775,1.811c2.045,1.201,3.701,2.901,4.923,5.053
	c1.24,2.188,1.843,4.453,1.843,6.928C467.687,80.852,467.059,83.192,465.819,85.408z"/>
<rect x="482.052" y="42.52" fill="#FFFFFF" width="9.061" height="58.215"/>
<path fill="#FFFFFF" d="M539.911,78.622c-0.027-5.757-1.612-10.657-4.707-14.561c-4.373-5.543-10.262-8.354-17.504-8.354
	c-7.104,0-12.853,2.754-17.079,8.18c-3.311,4.218-4.989,9.095-4.989,14.494c0,5.719,1.974,10.913,5.866,15.437
	c3.968,4.613,9.503,6.952,16.452,6.952c3.105,0,5.946-0.481,8.445-1.432c2.504-0.952,4.792-2.36,6.8-4.186
	c2.007-1.822,3.765-4.24,5.225-7.186l0.861-1.739l-7.594-4.055l-0.98,1.628c-1.429,2.373-2.737,4.082-3.89,5.079
	c-1.132,0.979-2.541,1.788-4.187,2.402c-1.642,0.614-3.36,0.925-5.108,0.925c-3.579,0-6.501-1.228-8.933-3.753
	c-2.038-2.116-3.239-4.689-3.642-7.823h34.973L539.911,78.622z M506.141,72.319c0.818-1.961,1.843-3.504,3.057-4.603
	c2.399-2.15,5.191-3.196,8.538-3.196c2.021,0,3.98,0.435,5.821,1.291c1.824,0.851,3.298,1.969,4.381,3.324
	c0.684,0.854,1.274,1.92,1.767,3.184H506.141z"/>
<path fill="#FFFFFF" d="M582.197,62.883c-4.345-4.762-9.878-7.176-16.448-7.176s-12.105,2.427-16.458,7.222
	c-3.912,4.353-5.896,9.552-5.896,15.452c0,5.939,2.093,11.201,6.221,15.638c4.167,4.479,9.595,6.751,16.133,6.751
	c6.514,0,11.935-2.271,16.113-6.749c4.141-4.438,6.24-9.701,6.24-15.64C588.103,72.458,586.119,67.247,582.197,62.883z
	 M572.441,90.313c-2.002,1.14-4.253,1.717-6.692,1.717c-2.426,0-4.6-0.562-6.644-1.719c-2.021-1.145-3.584-2.747-4.778-4.899
	c-1.21-2.177-1.799-4.453-1.799-6.958c0-3.867,1.285-7.073,3.928-9.801c2.627-2.709,5.666-4.025,9.293-4.025
	s6.666,1.316,9.292,4.024c2.644,2.729,3.929,5.935,3.929,9.802c0,2.508-0.584,4.785-1.785,6.966
	C576.002,87.569,574.45,89.169,572.441,90.313z"/>
<g>
	<path fill="#FFFFFF" d="M186.505,128.501h8.099c4.104,0,7.487,3.384,7.487,7.56c0,3.06-1.872,5.831-5.147,7.091l6.155,12.347
		h-2.916l-5.939-11.914h-5.039v11.914h-2.7V128.501z M194.604,140.92c2.736,0,4.896-2.16,4.896-4.859
		c0-2.664-2.16-4.932-4.896-4.932h-5.399v9.791H194.604z"/>
	<path fill="#FFFFFF" d="M205.621,147.04c0-4.859,3.959-8.818,8.819-8.818s8.819,3.959,8.819,8.818h-15.118
		c0,3.456,2.844,6.299,6.299,6.299c2.484,0,4.788-1.476,5.759-3.779l2.304,1.044c-1.332,3.168-4.643,5.256-8.063,5.256
		C209.581,155.859,205.621,151.899,205.621,147.04z M220.343,144.879c-1.008-2.52-3.348-4.139-5.903-4.139s-4.896,1.619-5.903,4.139
		H220.343z"/>
	<path fill="#FFFFFF" d="M228.661,128.501h2.52v26.997h-2.52V128.501z"/>
	<path fill="#FFFFFF" d="M236.581,147.04c0-4.859,3.959-8.818,8.819-8.818s8.819,3.959,8.819,8.818s-3.959,8.819-8.819,8.819
		S236.581,151.899,236.581,147.04z M251.699,147.04c0-3.455-2.844-6.299-6.299-6.299s-6.299,2.844-6.299,6.299
		c0,3.456,2.844,6.299,6.299,6.299S251.699,150.496,251.699,147.04z"/>
	<path fill="#FFFFFF" d="M259.44,133.721c0-1.044,0.828-1.872,1.872-1.872c1.044,0,1.872,0.828,1.872,1.872
		s-0.828,1.872-1.872,1.872C260.268,135.593,259.44,134.765,259.44,133.721z M260.052,138.581h2.52v25.737h-2.52V138.581z"/>
	<path fill="#FFFFFF" d="M279.563,142c0-7.631,6.228-13.858,13.858-13.858c3.456,0,6.911,1.26,9.935,4.176l-1.907,1.764
		c-2.88-2.556-5.436-3.312-8.027-3.312c-6.191,0-11.23,5.039-11.23,11.23s5.039,11.23,11.23,11.23c2.592,0,5.039-0.756,8.027-3.312
		l1.943,1.728c-3.023,2.916-6.407,4.212-9.971,4.212C285.791,155.859,279.563,149.631,279.563,142z"/>
	<path fill="#FFFFFF" d="M307.678,128.501h2.52v11.843c0.864-1.151,2.448-2.123,4.5-2.123c3.6,0,6.12,2.951,6.12,6.551v10.727h-2.52
		v-10.727c0-2.304-1.549-4.031-3.852-4.031c-2.16,0-4.248,1.728-4.248,3.923v10.835h-2.52V128.501z"/>
	<path fill="#FFFFFF" d="M325.858,147.04c0-4.859,3.959-8.818,8.818-8.818s8.82,3.959,8.82,8.818h-15.119
		c0,3.456,2.844,6.299,6.299,6.299c2.484,0,4.787-1.476,5.76-3.779l2.305,1.044c-1.332,3.168-4.645,5.256-8.064,5.256
		C329.817,155.859,325.858,151.899,325.858,147.04z M340.581,144.879c-1.008-2.52-3.348-4.139-5.904-4.139
		c-2.555,0-4.895,1.619-5.902,4.139H340.581z"/>
	<path fill="#FFFFFF" d="M347.817,147.04c0-4.859,3.959-8.818,8.818-8.818c3.527,0,6.66,2.123,8.1,5.327l-2.305,0.972
		c-1.008-2.304-3.311-3.779-5.795-3.779c-3.455,0-6.299,2.844-6.299,6.299c0,3.456,2.844,6.299,6.299,6.299
		c2.484,0,4.787-1.476,5.76-3.779l2.305,1.044c-1.332,3.168-4.645,5.256-8.064,5.256
		C351.776,155.859,347.817,151.899,347.817,147.04z"/>
	<path fill="#FFFFFF" d="M368.698,147.04c0-4.859,3.959-8.818,8.818-8.818c2.34,0,4.68,0.936,6.299,2.663v-2.304h2.52v16.918h-2.52
		v-2.304c-1.619,1.728-3.959,2.664-6.299,2.664C372.657,155.859,368.698,151.899,368.698,147.04z M383.815,147.04
		c0-3.455-2.844-6.299-6.299-6.299s-6.299,2.844-6.299,6.299c0,3.456,2.844,6.299,6.299,6.299S383.815,150.496,383.815,147.04z"/>
	<path fill="#FFFFFF" d="M391.737,147.04c0-4.859,3.959-8.818,8.818-8.818c2.34,0,4.68,0.936,6.301,2.663v-12.383h2.52v26.997h-2.52
		v-2.304c-1.621,1.728-3.961,2.664-6.301,2.664C395.696,155.859,391.737,151.899,391.737,147.04z M406.856,147.04
		c0-3.455-2.844-6.299-6.301-6.299c-3.455,0-6.299,2.844-6.299,6.299c0,3.456,2.844,6.299,6.299,6.299
		C404.013,153.338,406.856,150.496,406.856,147.04z"/>
	<path fill="#FFFFFF" d="M414.417,147.04c0-4.859,3.959-8.818,8.818-8.818s8.82,3.959,8.82,8.818s-3.961,8.819-8.82,8.819
		S414.417,151.899,414.417,147.04z M429.536,147.04c0-3.455-2.844-6.299-6.301-6.299c-3.455,0-6.299,2.844-6.299,6.299
		c0,3.456,2.844,6.299,6.299,6.299C426.692,153.338,429.536,150.496,429.536,147.04z"/>
	<path fill="#FFFFFF" d="M437.456,138.581h2.521v2.231c0.898-1.619,2.41-2.591,4.283-2.591c0.646,0,1.332,0.107,2.016,0.359v2.52
		c-0.721-0.252-1.404-0.359-2.016-0.359c-2.629,0-4.283,2.052-4.283,5.435v9.323h-2.521V138.581z"/>
</g>
</svg>
