<?xml version="1.0" encoding="utf-8"?>
<!-- Generator: Adobe Illustrator 17.0.0, SVG Export Plug-In . SVG Version: 6.00 Build 0)  -->
<!DOCTYPE svg PUBLIC "-//W3C//DTD SVG 1.1//EN" "http://www.w3.org/Graphics/SVG/1.1/DTD/svg11.dtd">
<svg version="1.1" xmlns="http://www.w3.org/2000/svg" xmlns:xlink="http://www.w3.org/1999/xlink" x="0px" y="0px" width="1000px"
	 height="500px" viewBox="0 0 1000 500" enable-background="new 0 0 1000 500" xml:space="preserve">
    
    
        <style>
	 
	     #fecha{
    opacity:0;
         }
    #fecha:hover{
    opacity:1;
}
	 
	     #plataforma{
    opacity:0;
         }
    #plataforma:hover{
    opacity:1;
}
	 
	     #ventas{
    opacity:0;
         }
    #ventas:hover{
    opacity:1;
}
	 </style>
    
<g id="fondo">
	
		<image overflow="visible" width="1024" height="768" xlink:href="images/mariokart64/2483713-scene_1024x768.jpg"  transform="matrix(1 0 0 1 -16.4976 -225.0181)">
	</image>
</g>
<g id="menu">
	<g>
		<path fill="#FFFF00" stroke="#000000" stroke-width="3" stroke-miterlimit="10" d="M686.082,477.04v-9h-4.5v-9h-4.5v-9h-4.5v-22.5
			h4.5v-4.5h13.5v9h4.5v9h4.5v-9h4.5v-9h13.5v4.5h4.5v22.5h-4.5v9h-4.5v9h-4.5v9H686.082z M704.082,468.04v-9h4.5v-9h4.5v-9h4.5v-9
			h-4.5v-4.5h-4.5v9h-4.5v9h-4.5v9h-4.5v-9h-4.5v-9h-4.5v-9h-4.5v4.5h-4.5v9h4.5v9h4.5v9h4.5v9H704.082z"/>
		<path fill="#FFFF00" stroke="#000000" stroke-width="3" stroke-miterlimit="10" d="M727.918,477.04v-54h40.5v18h-4.5v13.5h4.5
			v22.5H727.918z M763.918,468.04v-9h-22.5v-9h18v-4.5h-18v-9h22.5v-9h-31.5v40.5H763.918z"/>
		<path fill="#FFFF00" stroke="#000000" stroke-width="3" stroke-miterlimit="10" d="M774.254,477.04v-49.5h4.5v-4.5h13.5v4.5h4.5
			v4.5h4.5v-9h18v49.5h-18v-4.5h-4.5v-4.5h-4.5v13.5H774.254z M787.754,468.04v-22.5h4.5v4.5h4.5v4.5h4.5v4.5h4.5v4.5h9v-36h-9v18
			h-4.5v-4.5h-4.5v-4.5h-4.5v-4.5h-4.5v-4.5h-4.5v4.5h-4.5v36H787.754z"/>
		<path fill="#FFFF00" stroke="#000000" stroke-width="3" stroke-miterlimit="10" d="M834.09,477.04v-27h4.5v-4.5h-13.5v-22.5h45
			v22.5h-13.5v31.5H834.09z M852.09,468.04v-31.5h13.5v-9h-36v9h13.5v18h-4.5v13.5H852.09z"/>
		<path fill="#FFFF00" stroke="#000000" stroke-width="3" stroke-miterlimit="10" d="M875.926,477.04v-27h4.5v-9h4.5v-9h4.5v-9h22.5
			v4.5h4.5v4.5h4.5v45H875.926z M916.426,468.04v-31.5h-4.5v-4.5h-4.5v-4.5h-13.5v9h-4.5v9h-4.5v9h-4.5v13.5h13.5v-9h9v9H916.426z
			 M893.926,454.54v-13.5h13.5v13.5H893.926z"/>
		<path fill="#FFFF00" stroke="#000000" stroke-width="3" stroke-miterlimit="10" d="M935.762,477.04v-4.5h-4.5v-4.5h-4.5v-36h4.5
			v-4.5h4.5v-4.5h31.5v4.5h4.5v45h-4.5v4.5H935.762z M962.762,468.04v-4.5h4.5v-13.5h-4.5v-4.5h-13.5v-4.5h-4.5v-4.5h13.5v4.5h4.5
			v-4.5h4.5v-4.5h-4.5v-4.5h-22.5v4.5h-4.5v4.5h-4.5v4.5h4.5v4.5h9v4.5h9v4.5h4.5v4.5h-13.5v-4.5h-4.5v-4.5h-4.5v4.5h-4.5v4.5h4.5
			v4.5h4.5v4.5H962.762z"/>
	</g>
	<g>
		<path fill="#FFFF00" stroke="#000000" stroke-width="3" stroke-miterlimit="10" d="M19.979,78.059v-54h31.5v4.5h4.5v4.5h4.5v27
			h-4.5v4.5h-18v13.5H19.979z M33.479,69.059v-13.5h18v-4.5h4.5v-13.5h-4.5v-4.5h-4.5v-4.5h-22.5v40.5H33.479z M33.479,51.059v-13.5
			h13.5v13.5H33.479z"/>
		<path fill="#FFFF00" stroke="#000000" stroke-width="3" stroke-miterlimit="10" d="M66.314,78.059v-27h4.5v-13.5h4.5v-13.5h18
			v31.5h18v22.5H66.314z M106.814,69.059v-9h-22.5v-13.5h4.5v-18h-9v13.5h-4.5v13.5h-4.5v13.5H106.814z"/>
		<path fill="#FFFF00" stroke="#000000" stroke-width="3" stroke-miterlimit="10" d="M117.15,78.059v-27h4.5v-9h4.5v-9h4.5v-9h22.5
			v4.5h4.5v4.5h4.5v45H117.15z M157.65,69.059v-31.5h-4.5v-4.5h-4.5v-4.5h-13.5v9h-4.5v9h-4.5v9h-4.5v13.5h13.5v-9h9v9H157.65z
			 M135.15,55.559v-13.5h13.5v13.5H135.15z"/>
		<path fill="#FFFF00" stroke="#000000" stroke-width="3" stroke-miterlimit="10" d="M176.986,78.059v-27h4.5v-4.5h-13.5v-22.5h45
			v22.5h-13.5v31.5H176.986z M194.986,69.059v-31.5h13.5v-9h-36v9h13.5v18h-4.5v13.5H194.986z"/>
		<path fill="#FFFF00" stroke="#000000" stroke-width="3" stroke-miterlimit="10" d="M218.822,78.059v-27h4.5v-9h4.5v-9h4.5v-9h22.5
			v4.5h4.5v4.5h4.5v45H218.822z M259.322,69.059v-31.5h-4.5v-4.5h-4.5v-4.5h-13.5v9h-4.5v9h-4.5v9h-4.5v13.5h13.5v-9h9v9H259.322z
			 M236.822,55.559v-13.5h13.5v13.5H236.822z"/>
		<path fill="#FFFF00" stroke="#000000" stroke-width="3" stroke-miterlimit="10" d="M269.658,78.059v-54h40.5v18h-4.5v18h-18v18
			H269.658z M283.158,69.059v-18h18v-4.5h-18v-9h22.5v-9h-31.5v40.5H283.158z"/>
		<path fill="#FFFF00" stroke="#000000" stroke-width="3" stroke-miterlimit="10" d="M324.994,78.059v-4.5h-4.5v-4.5h-4.5v-31.5h4.5
			v-4.5h4.5v-4.5h4.5v-4.5h22.5v4.5h4.5v4.5h4.5v36h-4.5v4.5h-4.5v4.5H324.994z M347.494,69.059v-4.5h4.5v-4.5h4.5v-22.5h-4.5v-4.5
			h-4.5v-4.5h-13.5v4.5h-4.5v4.5h-4.5v4.5h-4.5v18h4.5v4.5h4.5v4.5H347.494z M333.994,60.059v-4.5h-4.5v-13.5h4.5v-4.5h9v4.5h4.5
			v13.5h-4.5v4.5H333.994z"/>
		<path fill="#FFFF00" stroke="#000000" stroke-width="3" stroke-miterlimit="10" d="M366.83,78.059v-54h36v4.5h4.5v4.5h4.5v40.5
			h-4.5v4.5h-13.5v-4.5h-4.5v-4.5h-4.5v9H366.83z M402.83,69.059v-4.5h4.5v-4.5h-4.5v-4.5h-4.5v-4.5h4.5v-4.5h4.5v-9h-4.5v-4.5h-4.5
			v-4.5h-27v40.5h9v-13.5h9v4.5h4.5v4.5h4.5v4.5H402.83z M380.33,51.059v-13.5h18v9h-4.5v4.5H380.33z"/>
		<path fill="#FFFF00" stroke="#000000" stroke-width="3" stroke-miterlimit="10" d="M417.666,78.059v-27h4.5v-27h18v13.5h4.5v-13.5
			h18v27h4.5v27h-18v-4.5h-13.5v4.5H417.666z M462.666,69.059v-13.5h-4.5v-27h-9v13.5h-4.5v4.5h-4.5v-4.5h-4.5v-13.5h-9v27h-4.5
			v13.5h9v-13.5h4.5v4.5h4.5v4.5h4.5v-4.5h4.5v-4.5h4.5v13.5H462.666z"/>
		<path fill="#FFFF00" stroke="#000000" stroke-width="3" stroke-miterlimit="10" d="M473.002,78.059v-27h4.5v-9h4.5v-9h4.5v-9
			h22.501v4.5h4.5v4.5h4.5v45H473.002z M513.503,69.059v-31.5h-4.5v-4.5h-4.5v-4.5h-13.5v9h-4.5v9h-4.5v9h-4.5v13.5h13.5v-9h9v9
			H513.503z M491.002,55.559v-13.5h13.5v13.5H491.002z"/>
	</g>
	<g>
		<path fill="#FFFF00" stroke="#000000" stroke-width="3" stroke-miterlimit="10" d="M19.979,467.278v-45h33.75v15h-3.75v15h-15v15
			H19.979z M31.229,459.778v-15h15v-3.75h-15v-7.5h18.75v-7.5h-26.25v33.75H31.229z"/>
		<path fill="#FFFF00" stroke="#000000" stroke-width="3" stroke-miterlimit="10" d="M58.592,467.278v-45h33.75v15h-3.75v11.25h3.75
			v18.75H58.592z M88.592,459.778v-7.5h-18.75v-7.5h15v-3.75h-15v-7.5h18.75v-7.5h-26.25v33.75H88.592z"/>
		<path fill="#FFFF00" stroke="#000000" stroke-width="3" stroke-miterlimit="10" d="M104.705,467.278v-3.75h-3.75v-3.75h-3.75
			v-26.25h3.75v-3.75h3.75v-3.75h3.75v-3.75h18.75v3.75h3.75v3.75h3.75v30h-3.75v3.75h-3.75v3.75H104.705z M123.455,459.778v-3.75
			h3.75v-3.75h3.75v-3.75h-3.75v-3.75h-3.75v3.75h-3.75v3.75h-7.5v-3.75h-3.75v-11.25h3.75v-3.75h7.5v3.75h3.75v3.75h3.75v-3.75
			h3.75v-3.75h-3.75v-3.75h-3.75v-3.75h-11.25v3.75h-3.75v3.75h-3.75v3.75h-3.75v15h3.75v3.75h3.75v3.75H123.455z"/>
		<path fill="#FFFF00" stroke="#000000" stroke-width="3" stroke-miterlimit="10" d="M139.568,467.278v-48.75h18.75v15h3.75v-15h15
			v48.75h-15v-11.25h-7.5v11.25H139.568z M173.318,459.778v-37.5h-7.5v15h-11.25v-15h-11.25v37.5h7.5v-11.25h15v11.25H173.318z"/>
		<path fill="#FFFF00" stroke="#000000" stroke-width="3" stroke-miterlimit="10" d="M181.932,467.278v-22.5h3.75v-7.5h3.75v-7.5
			h3.75v-7.5h18.75v3.75h3.75v3.75h3.75v37.5H181.932z M215.682,459.778v-26.25h-3.75v-3.75h-3.75v-3.75h-11.25v7.5h-3.75v7.5h-3.75
			v7.5h-3.75v11.25h11.25v-7.5h7.5v7.5H215.682z M196.932,448.528v-11.25h11.25v11.25H196.932z"/>
	</g>
</g>
<g id="fecha">
	<linearGradient id="SVGID_1_" gradientUnits="userSpaceOnUse" x1="225.9575" y1="280.2823" x2="782.4296" y2="280.2823">
		<stop  offset="0" style="stop-color:#FFF6AD"/>
		<stop  offset="0.5" style="stop-color:#FFED00"/>
		<stop  offset="1" style="stop-color:#FFD800"/>
	</linearGradient>
	<path opacity="0.8" fill="url(#SVGID_1_)" stroke="#000000" stroke-width="3" stroke-miterlimit="10" d="M588.939,155.982
		c-106.862,0-193.49,43.65-193.49,97.495c0,17.304,8.958,33.551,24.647,47.638L225.957,404.583l243.937-74.245
		c32.829,12.928,74.15,20.635,119.045,20.635c106.862,0,193.49-43.65,193.49-97.495C782.43,199.632,695.801,155.982,588.939,155.982
		z"/>
	<rect x="8" y="415" opacity="0.1" fill="#FFFFFF" width="222" height="63.466"/>
	<rect x="411.759" y="231.216" fill="none" width="365.982" height="97.495"/>
	<text transform="matrix(1 0 0 1 434.3196 253.7551)"><tspan x="0" y="0" font-family="'Mario-Kart-DS'" font-size="40">14 de diciembre de </tspan><tspan x="116.445" y="48" font-family="'Mario-Kart-DS'" font-size="40">1996</tspan></text>
</g>
<g id="plataforma">
	<linearGradient id="SVGID_2_" gradientUnits="userSpaceOnUse" x1="327.5991" y1="227.785" x2="782.4296" y2="227.785">
		<stop  offset="0" style="stop-color:#DAE5A7"/>
		<stop  offset="0.5" style="stop-color:#B8D26E"/>
		<stop  offset="1" style="stop-color:#7FB525"/>
	</linearGradient>
	<path opacity="0.8" fill="url(#SVGID_2_)" stroke="#000000" stroke-width="3" stroke-miterlimit="10" d="M588.45,158.982
		c-39.351,0-75.956,5.895-106.535,16.015l-154.316-73.399l93.52,105.544c-16.929,14.473-26.649,31.332-26.649,49.335
		c0,53.845,86.848,97.495,193.98,97.495s193.98-43.65,193.98-97.495C782.43,202.632,695.582,158.982,588.45,158.982z"/>
	<rect x="19.978" y="17" opacity="0.1" fill="#FFFFFF" width="512.974" height="72"/>
	
		<image overflow="visible" width="801" height="550" xlink:href="images/mariokart64/Nintendo_64.png"  transform="matrix(0.266 0 0 0.266 782.4296 176.8587)">
	</image>
	
		<image overflow="visible" width="795" height="552" xlink:href="images/mariokart64/Mk64cover.png"  transform="matrix(0.379 0 0 0.379 39.8232 133.5563)">
	</image>
	<rect x="472.502" y="238.168" fill="none" width="248.988" height="139.493"/>
	<text transform="matrix(1 0 0 1 491.5275 260.7075)"><tspan x="0" y="0" font-family="'Mario-Kart-DS'" font-size="40">NINTENDO </tspan><tspan x="79.727" y="48" font-family="'Mario-Kart-DS'" font-size="40">64</tspan></text>
</g>
<g id="ventas">
	<linearGradient id="SVGID_3_" gradientUnits="userSpaceOnUse" x1="394.4703" y1="277.2825" x2="795.5757" y2="277.2825">
		<stop  offset="0" style="stop-color:#FFEBA9"/>
		<stop  offset="0.5" style="stop-color:#FECC00"/>
		<stop  offset="1" style="stop-color:#F8AE00"/>
	</linearGradient>
	<path opacity="0.8" fill="url(#SVGID_3_)" stroke="#000000" stroke-width="3" stroke-miterlimit="10" d="M795.576,395.583
		l-38.702-90.707c16.258-14.261,25.556-30.784,25.556-48.399c0-53.845-86.848-97.495-193.98-97.495s-193.98,43.65-193.98,97.495
		c0,53.845,86.848,97.495,193.98,97.495c42.332,0,81.489-6.82,113.38-18.386L795.576,395.583z"/>
	<rect x="461.956" y="190.979" fill="none" width="260.987" height="128.607"/>
	<text transform="matrix(1 0 0 1 555.1129 211.2654)"><tspan x="0" y="0" font-family="'Mario-Kart-DS'" font-size="36">9.87</tspan><tspan x="-52.295" y="43.2" font-family="'Mario-Kart-DS'" font-size="36">milllones</tspan></text>
	<rect x="672.582" y="415" opacity="0.1" fill="#FFFFFF" width="313.348" height="72"/>
</g>
</svg>
