<?xml version="1.0" encoding="utf-8"?>
<!-- Generator: Adobe Illustrator 15.0.0, SVG Export Plug-In . SVG Version: 6.00 Build 0)  -->
<!DOCTYPE svg PUBLIC "-//W3C//DTD SVG 1.1//EN" "http://www.w3.org/Graphics/SVG/1.1/DTD/svg11.dtd">
<svg version="1.1" xmlns="http://www.w3.org/2000/svg" xmlns:xlink="http://www.w3.org/1999/xlink" x="0px" y="0px"
	 width="78.177px" height="85px" viewBox="9.658 5.746 78.177 85" enable-background="new 9.658 5.746 78.177 85"
	 xml:space="preserve">
<g id="Capa_1" display="none">
	<g display="inline">
		<path d="M79.873-0.5H17.619c-3.238,0-5.873,2.635-5.873,5.873v85.747c0,3.238,2.635,5.873,5.873,5.873h62.254
			c3.238,0,5.873-2.635,5.873-5.873V5.373C85.746,2.133,83.111-0.5,79.873-0.5z M48.746,2.876c0.486,0,0.881,0.395,0.881,0.881
			c0,0.486-0.395,0.88-0.881,0.88c-0.486,0-0.881-0.395-0.881-0.881C47.865,3.271,48.26,2.876,48.746,2.876z M48.746,93.76
			c-0.973,0-1.762-0.787-1.762-1.762c0-0.973,0.789-1.762,1.762-1.762c0.973,0,1.762,0.789,1.762,1.762
			C50.508,92.973,49.719,93.76,48.746,93.76z M81.048,88.328H16.444V8.162h64.604V88.328z"/>
	</g>
	<g display="inline">
	</g>
	<g display="inline">
	</g>
	<g display="inline">
	</g>
	<g display="inline">
	</g>
	<g display="inline">
	</g>
	<g display="inline">
	</g>
	<g display="inline">
	</g>
	<g display="inline">
	</g>
	<g display="inline">
	</g>
	<g display="inline">
	</g>
	<g display="inline">
	</g>
	<g display="inline">
	</g>
	<g display="inline">
	</g>
	<g display="inline">
	</g>
	<g display="inline">
	</g>
	<g display="inline">
	</g>
	<g display="inline">
	</g>
	<g display="inline">
	</g>
	<g display="inline">
	</g>
	<g display="inline">
	</g>
	<g display="inline">
	</g>
	<g display="inline">
	</g>
	<g display="inline">
	</g>
	<g display="inline">
	</g>
	<g display="inline">
	</g>
	<g display="inline">
	</g>
	<g display="inline">
	</g>
	<g display="inline">
	</g>
	<g display="inline">
	</g>
	<g display="inline">
	</g>
</g>
<g id="agregar">
	<g>
		<polygon fill="#3E87BA" points="67.209,47.366 49.625,47.366 49.625,29.783 47.866,29.783 47.866,47.366 30.283,47.366 
			30.283,49.125 47.866,49.125 47.866,66.709 49.625,66.709 49.625,49.125 67.209,49.125 		"/>
		<g>
			<path fill="#3E87BA" d="M74.287,8.246H23.204c-2.657,0-4.819,2.161-4.819,4.818v70.361c0,2.658,2.162,4.82,4.819,4.82h51.083
				c2.658,0,4.82-2.162,4.82-4.82V13.064C79.107,10.407,76.945,8.246,74.287,8.246z M48.746,11.017c0.398,0,0.723,0.324,0.723,0.723
				c0,0.399-0.324,0.723-0.723,0.723c-0.399,0-0.723-0.324-0.723-0.724C48.023,11.34,48.347,11.017,48.746,11.017z M48.746,85.594
				c-0.799,0-1.446-0.646-1.446-1.445s0.647-1.447,1.446-1.447c0.798,0,1.445,0.648,1.445,1.447S49.544,85.594,48.746,85.594z
				 M75.252,81.137H22.239V15.354h53.013V81.137z"/>
		</g>
	</g>
</g>
<g id="desconectado" display="none">
	<g display="inline">
	</g>
	<g display="inline">
	</g>
	<g display="inline">
	</g>
	<g display="inline">
	</g>
	<g display="inline">
	</g>
	<g display="inline">
	</g>
	<g display="inline">
	</g>
	<g display="inline">
	</g>
	<g display="inline">
	</g>
	<g display="inline">
	</g>
	<g display="inline">
	</g>
	<g display="inline">
	</g>
	<g display="inline">
	</g>
	<g display="inline">
	</g>
	<g display="inline">
	</g>
	<g display="inline">
		<g>
			<path fill="#A31031" d="M61.805,35.188c-3.484-3.484-8.123-5.42-13.059-5.42s-9.574,1.936-13.059,5.42
				c-7.206,7.206-7.206,18.911,0,26.117c3.484,3.484,8.123,5.419,13.059,5.419s9.574-1.935,13.059-5.419
				C69.011,54.099,69.011,42.394,61.805,35.188z M60.547,60.047c-3.144,3.145-7.35,4.887-11.801,4.887
				c-4.452,0-8.656-1.742-11.801-4.887c-3.144-3.144-4.886-7.349-4.886-11.8s1.742-8.657,4.886-11.801
				c3.145-3.144,7.354-4.886,11.801-4.886c4.446,0,8.657,1.742,11.801,4.886s4.886,7.354,4.886,11.801S63.69,56.903,60.547,60.047z
				 M54.357,43.942l-4.497,4.497l4.497,4.497c0.34,0.34,0.34,0.918,0,1.258c-0.192,0.192-0.385,0.242-0.627,0.242
				s-0.435-0.1-0.627-0.242l-4.501-4.495l-4.5,4.495c-0.193,0.192-0.386,0.242-0.627,0.242c-0.241,0-0.435-0.1-0.627-0.242
				c-0.34-0.34-0.34-0.918,0-1.258l4.497-4.497l-4.497-4.497c-0.34-0.34-0.34-0.917,0-1.258c0.341-0.341,0.918-0.341,1.259,0
				l4.496,4.496l4.496-4.496c0.341-0.341,0.919-0.341,1.259,0C54.697,43.025,54.697,43.553,54.357,43.942z"/>
		</g>
		<g>
			<path fill="#A31031" d="M74.288,8.246H23.204c-2.657,0-4.819,2.162-4.819,4.819v70.362c0,2.657,2.162,4.819,4.819,4.819h51.084
				c2.657,0,4.819-2.162,4.819-4.819V13.065C79.107,10.407,76.945,8.246,74.288,8.246z M48.746,11.017
				c0.398,0,0.723,0.324,0.723,0.723s-0.324,0.722-0.723,0.722c-0.399,0-0.723-0.324-0.723-0.723
				C48.023,11.34,48.347,11.017,48.746,11.017z M48.746,85.594c-0.798,0-1.446-0.646-1.446-1.446c0-0.798,0.647-1.445,1.446-1.445
				c0.798,0,1.445,0.647,1.445,1.445C50.191,84.947,49.544,85.594,48.746,85.594z M75.252,81.137H22.24V15.354h53.012V81.137z"/>
		</g>
		<g>
		</g>
	</g>
</g>
<g id="todook" display="none">
	<g display="inline">
		<path fill="#7E9F58" d="M48.746,29.783c-10.18,0-18.463,8.282-18.463,18.463c0,10.181,8.283,18.463,18.463,18.463
			c10.181,0,18.463-8.282,18.463-18.463C67.209,38.065,58.927,29.783,48.746,29.783z M48.746,65.289
			c-9.396,0-17.043-7.646-17.043-17.043s7.646-17.043,17.043-17.043s17.043,7.646,17.043,17.043S58.143,65.289,48.746,65.289z"/>
		<path fill="#7E9F58" d="M57.446,40.673L46.533,52.951l-6.575-5.26c-0.306-0.245-0.753-0.195-0.998,0.111
			c-0.245,0.307-0.195,0.753,0.111,0.999l7.102,5.681c0.13,0.104,0.288,0.155,0.443,0.155c0.196,0,0.392-0.081,0.531-0.238
			l11.362-12.782c0.261-0.292,0.234-0.742-0.06-1.002C58.155,40.353,57.707,40.379,57.446,40.673z"/>
	</g>
	<g display="inline">
		<path fill="#7E9F58" d="M74.288,8.246H23.204c-2.657,0-4.819,2.162-4.819,4.819v70.362c0,2.657,2.162,4.819,4.819,4.819h51.084
			c2.657,0,4.819-2.162,4.819-4.819V13.065C79.107,10.407,76.945,8.246,74.288,8.246z M48.746,11.017
			c0.398,0,0.723,0.324,0.723,0.723s-0.324,0.722-0.723,0.722c-0.399,0-0.723-0.324-0.723-0.723
			C48.023,11.34,48.347,11.017,48.746,11.017z M48.746,85.594c-0.798,0-1.446-0.646-1.446-1.446c0-0.798,0.647-1.445,1.446-1.445
			c0.798,0,1.445,0.647,1.445,1.445C50.191,84.947,49.544,85.594,48.746,85.594z M75.252,81.137H22.24V15.354h53.012V81.137z"/>
	</g>
	<g display="inline">
	</g>
</g>
</svg>
