<?xml version="1.0" encoding="utf-8"?>
<!-- Generator: Adobe Illustrator 15.0.0, SVG Export Plug-In . SVG Version: 6.00 Build 0)  -->
<!DOCTYPE svg PUBLIC "-//W3C//DTD SVG 1.1//EN" "http://www.w3.org/Graphics/SVG/1.1/DTD/svg11.dtd">
<svg version="1.1" id="Capa_1" xmlns="http://www.w3.org/2000/svg" xmlns:xlink="http://www.w3.org/1999/xlink" x="0px" y="0px"
	 width="1369px" height="222px" viewBox="0 0 1369 222" enable-background="new 0 0 1369 222" xml:space="preserve">
<g>
	<g>
		<path fill-rule="evenodd" clip-rule="evenodd" d="M541.375,25.763c0,0.91,0,1.818,0,2.727c0,0.682,0,1.363,0,2.045
			c0,0.91,0,1.818,0,2.727c0,0.682,0,1.363,0,2.045c0,0.909,0,1.818,0,2.727c0,0.682,0,1.363,0,2.045c0,0.909,0,1.817,0,2.727
			c0,0.682,0,1.363,0,2.045c0,0.908,0,1.817,0,2.727c0,0.682,0,1.363,0,2.045c0,0.908,0,1.816,0,2.727c0,0.682,0,1.363,0,2.045
			c0,0.908,0,1.816,0,2.727c0,0.682,0,1.363,0,2.044c0,0.909,0,1.817,0,2.727c0,0.454,0,0.909,0,1.363c0,0.094,0.06,0.622,0,0.682
			c-0.061,0.06-0.588,0-0.682,0c-0.682,0-1.363,0-2.045,0s-1.363,0-2.045,0c-0.909,0-1.817,0-2.727,0c-0.682,0-1.363,0-2.045,0
			c-0.909,0-1.817,0-2.726,0c-0.682,0-1.363,0-2.045,0c-0.909,0-1.818,0-2.727,0c-0.682,0-1.363,0-2.045,0c-0.909,0-1.817,0-2.726,0
			c-0.682,0-1.363,0-2.045,0c-0.909,0-1.818,0-2.727,0c-0.682,0-1.363,0-2.045,0c-0.909,0-1.817,0-2.727,0c-0.682,0-1.363,0-2.045,0
			c-0.909,0-1.817,0-2.726,0c-0.455,0-0.909,0-1.363,0c-0.094,0-0.622,0.06-0.682,0s0-0.588,0-0.682c0-0.682,0-1.363,0-2.045
			s0-1.363,0-2.045c0-0.909,0-1.817,0-2.726c0-0.682,0-1.363,0-2.045c0-0.91,0-1.818,0-2.727c0-0.682,0-1.363,0-2.045
			s0-1.363,0-2.045s0-1.363,0-2.045c0-0.909,0-1.818,0-2.727c0-0.682,0-1.363,0-2.045s0-1.363,0-2.045s0-1.363,0-2.045
			c0-0.908,0-1.817,0-2.727c0-0.682,0-1.363,0-2.045s0-1.363,0-2.045c0-0.453,0-0.908,0-1.363c0-0.908,0-1.816,0-2.727
			c0.227,0,0.454,0,0.682,0c0.909,0,1.817,0,2.727,0c0.682,0,1.363,0,2.044,0c0.909,0,1.818,0,2.727,0c0.682,0,1.363,0,2.045,0
			c3.181,0,6.362,0,9.542,0s6.362,0,9.542,0c1.591,0,3.181,0,4.771,0C538.648,25.763,540.012,25.763,541.375,25.763z
			 M522.971,31.216c-0.454,0-0.909,0-1.363,0c-0.682,0-1.363,0-2.044,0c-0.455,0-0.909,0-1.363,0c-0.682,0-1.363,0-2.045,0
			c-1.136,0-2.272,0-3.408,0c-0.454,0-0.909,0-1.363,0c-0.909,0-1.817,0-2.727,0c0,0.682,0,1.363,0,2.045c0,0.909,0,1.818,0,2.727
			c0,0.455,0,0.909,0,1.363c0,0.682,0,1.363,0,2.045c0,0.908,0,1.818,0,2.727c0,0.454,0,0.908,0,1.363c0,0.682,0,1.363,0,2.045
			c0,0.908,0,1.817,0,2.727c0,0.454,0,0.908,0,1.363c0,0.682,0,1.363,0,2.045c0,0.453,0,0.908,0,1.363c0,0.908,0,1.816,0,2.727
			c0,0.227,0,0.453,0,0.682c0,0.227,0,0.453,0,0.682c0,0.227,0,0.453,0,0.682c0,0.093-0.06,0.621,0,0.682
			c0.061,0.06,0.588,0,0.682,0c0.909,0,1.818,0,2.727,0c0.454,0,0.909,0,1.363,0c0.682,0,1.363,0,2.045,0c0.454,0,0.909,0,1.363,0
			c0.682,0,1.363,0,2.045,0c0.454,0,0.909,0,1.363,0c0.682,0,1.363,0,2.045,0c0.455,0,0.909,0,1.363,0c0.682,0,1.363,0,2.045,0
			c0.454,0,0.909,0,1.363,0c0.682,0,1.363,0,2.045,0c0.454,0,0.909,0,1.363,0c0.682,0,1.363,0,2.045,0c0.455,0,0.909,0,1.363,0
			c0.682,0,1.363,0,2.045,0c0-0.455,0-0.91,0-1.363c0-0.682,0-1.363,0-2.045c0-0.455,0-0.91,0-1.363c0-0.682,0-1.363,0-2.045
			c0-2.272,0-4.545,0-6.816c0-2.272,0-4.545,0-6.816c0-1.136,0-2.271,0-3.408c0-0.454,0-0.908,0-1.363c0-0.682,0-1.363,0-2.045
			C531.605,31.216,527.288,31.216,522.971,31.216z"/>
		<path fill-rule="evenodd" clip-rule="evenodd" d="M584.998,31.216c0,0.909,0,1.818,0,2.727c0,0.682,0,1.363,0,2.045
			c0,0.102-0.062,0.612,0,0.682c0.052,0.058,0.595,0,0.681,0c0.682,0,1.364,0,2.045,0c0.908,0,1.818,0,2.726,0
			c0.909,0,1.818,0,2.726,0c0.909,0,1.818,0,2.727,0c0,0.682,0,1.363,0,2.045c0,0.909,0,1.817,0,2.727c0,0.096,0.062,0.617,0,0.682
			c-0.057,0.059-0.591,0-0.682,0c-0.227,0-0.454,0-0.682,0c-0.908,0-1.817,0-2.726,0c-0.682,0-1.363,0-2.045,0s-1.363,0-2.044,0
			c-0.682,0-1.363,0-2.045,0c-0.681,0-1.363,0-2.044,0c-0.909,0-1.818,0-2.727,0c-0.111,0-0.601-0.065-0.682,0
			c-0.129,0.104-0.566-0.116-0.682,0c-0.083,0.083,0.031,0.561,0,0.682c-0.048,0.193,0,0.48,0,0.682c0,0.224,0.019,0.459,0,0.682
			c-0.019,0.223,0,0.457,0,0.682c0,0.227,0,0.454,0,0.682c0,0.227,0,0.454,0,0.682c0,0.227,0,0.454,0,0.682
			c0,0.094-0.06,0.621,0,0.682s0.588,0,0.682,0c0.227,0,0.455,0,0.682,0c0.909,0,1.818,0,2.727,0c0.682,0,1.363,0,2.044,0
			c0.682,0,1.364,0,2.045,0c0.681,0,1.363,0,2.044,0s1.363,0,2.045,0s1.363,0,2.044,0c0.455,0,0.909,0,1.363,0
			c0.091,0,0.625-0.059,0.682,0c0.062,0.063,0,0.585,0,0.682c0,0.227,0,0.454,0,0.682c0,0.908,0,1.817,0,2.727
			c0,0.227,0,0.453,0,0.682c0,0.09,0.059,0.625,0,0.682c-0.063,0.061-0.585,0-0.682,0c-0.682,0-1.363,0-2.045,0
			c-0.454,0-0.908,0-1.363,0c-0.227,0-0.455,0-0.682,0s-0.455,0-0.682,0c0,1.816,0,3.635,0,5.453c-1.818,0-3.635,0-5.453,0
			c0-0.91,0-1.818,0-2.727c0-0.682,0-1.363,0-2.045c0-0.091,0.058-0.627,0-0.682c-0.064-0.062-0.584,0-0.682,0
			c-0.227,0-0.455,0-0.682,0c-0.909,0-1.818,0-2.727,0c-0.113,0-0.596-0.066-0.682,0c-0.131,0.102-0.566-0.116-0.682,0
			c-0.064,0.064,0.005,0.582,0,0.682c-0.012,0.227,0.013,0.455,0,0.682c-0.013,0.225,0,0.455,0,0.682s0.007,0.454,0,0.682
			c-0.007,0.227,0,0.454,0,0.682c0,0.682,0,1.363,0,2.045c-1.818,0-3.635,0-5.453,0c0,1.816,0,3.635,0,5.452
			c-1.817,0-3.635,0-5.453,0c0-0.909,0-1.817,0-2.727c0-0.682,0-1.363,0-2.045c0-0.093,0.06-0.621,0-0.681
			c-0.06-0.061-0.588,0-0.682,0c-0.682,0-1.363,0-2.044,0c-0.909,0-1.818,0-2.727,0c0-0.91,0-1.818,0-2.727c0-0.682,0-1.363,0-2.045
			c0-0.1-0.062-0.615,0-0.682c0.054-0.059,0.592,0,0.682,0c0.681,0,1.363,0,2.045,0c0.909,0,1.817,0,2.726,0
			c0.909,0,1.817,0,2.727,0c0.454,0,0.909,0,1.363,0c0.106,0,0.606,0.063,0.681,0c0.126-0.107,0.566,0.115,0.682,0
			c0.083-0.084-0.03-0.561,0-0.682c0.049-0.194,0-0.482,0-0.682c0-0.225-0.016-0.458,0-0.682c0.016-0.225,0-0.457,0-0.682
			c0-0.228,0-0.455,0-0.682c0-0.228,0-0.455,0-0.682s-0.004-0.455,0-0.682c0.005-0.228,0-0.455,0-0.682c0-0.682,0-1.363,0-2.045
			s0-1.363,0-2.045c0-0.11,0.065-0.602,0-0.682c-0.104-0.129,0.117-0.565,0-0.682c-0.064-0.064-0.582,0.006-0.682,0
			c-0.227-0.012-0.455,0.013-0.681,0c-0.226-0.013-0.456,0-0.682,0c-0.227,0-0.455,0.008-0.682,0s-0.455,0-0.682,0
			c-0.682,0-1.363,0-2.045,0c0-0.908,0-1.818,0-2.727s0-1.817,0-2.727c0-0.908,0-1.817,0-2.727c0-0.682,0-1.363,0-2.045
			c0-0.094,0.06-0.621,0-0.682s-0.588,0-0.682,0c-0.682,0-1.363,0-2.044,0c-0.909,0-1.818,0-2.727,0c-0.909,0-1.818,0-2.727,0
			c-0.909,0-1.817,0-2.727,0c0-0.908,0-1.816,0-2.727c0-0.227,0-0.453,0-0.682c0-0.227,0-0.453,0-0.682c0-0.227,0-0.453,0-0.682
			c0-0.096-0.061-0.617,0-0.682c0.057-0.059,0.591,0,0.682,0c0.682,0,1.363,0,2.045,0c0.909,0,1.817,0,2.727,0
			c0.909,0,1.817,0,2.727,0c0.909,0,1.817,0,2.726,0c0.909,0,1.817,0,2.727,0c0.909,0,1.817,0,2.726,0c0.909,0,1.818,0,2.727,0
			c0.682,0,1.363,0,2.045,0c0.09,0,0.625-0.059,0.681,0c0.062,0.064,0,0.586,0,0.682c0,0.229,0,0.455,0,0.682
			c0,0.455,0,0.91,0,1.363c0,0.91,0,1.818,0,2.727C581.363,31.216,583.18,31.216,584.998,31.216z"/>
		<path fill-rule="evenodd" clip-rule="evenodd" d="M584.998,31.216c0-0.908,0-1.816,0-2.727c0-0.682,0-1.363,0-2.045
			c0-0.096-0.062-0.617,0-0.682c0.057-0.059,0.591,0,0.681,0c0.227,0,0.455,0,0.682,0c1.136,0,2.271,0,3.408,0
			c0.094,0,0.622-0.06,0.682,0c0.06,0.061,0,0.589,0,0.682c0,0.682,0,1.363,0,2.045c0,0.229,0,0.455,0,0.682
			c0,0.229,0,0.455,0,0.682c0,0.229,0,0.455,0,0.682c0,0.091,0.059,0.625,0,0.682c-0.064,0.062-0.585,0-0.682,0
			c-0.909,0-1.818,0-2.726,0C586.361,31.216,585.679,31.216,584.998,31.216z"/>
		<path fill-rule="evenodd" clip-rule="evenodd" d="M617.715,42.123c0,0.227,0,0.454,0,0.682c0,0.908,0,1.817,0,2.727
			c0,0.454,0,0.908,0,1.363c0,0.09-0.059,0.625,0,0.682c0.064,0.062,0.585,0,0.682,0c0.228,0,0.455,0,0.682,0
			c0.908,0,1.818,0,2.727,0c0.113,0,0.597,0.065,0.682,0c0.131-0.102,0.565,0.115,0.682,0c0.064-0.064-0.006-0.582,0-0.682
			c0.012-0.227-0.013-0.455,0-0.682c0.013-0.226,0-0.456,0-0.682c0-0.227-0.007-0.455,0-0.682s0-0.455,0-0.682
			c0-0.682,0-1.363,0-2.045c0.908,0,1.817,0,2.727,0c0.908,0,1.817,0,2.727,0c0.908,0,1.817,0,2.727,0c0.682,0,1.363,0,2.045,0
			c0.09,0,0.625-0.059,0.681,0c0.062,0.064,0,0.585,0,0.682c0,0.454,0,0.908,0,1.363c0,0.682,0,1.363,0,2.045
			c0,0.227,0,0.454,0,0.682c0,0.09,0.059,0.625,0,0.682c-0.063,0.061-0.584,0-0.681,0c-0.682,0-1.363,0-2.045,0
			c-0.909,0-1.818,0-2.727,0c0,3.635,0,7.27,0,10.906c0,3.635,0,7.27,0,10.904c-0.682,0-1.363,0-2.045,0c-0.909,0-1.818,0-2.727,0
			c-0.097,0-0.618,0.062-0.682,0c-0.06-0.056,0-0.59,0-0.682c0-0.227,0-0.453,0-0.681c0-0.909,0-1.817,0-2.727
			c0-0.682,0-1.363,0-2.045s0-1.363,0-2.045s0-1.363,0-2.045c0-0.681,0-1.362,0-2.044c0-0.91,0-1.818,0-2.727
			c0-0.113,0.065-0.598,0-0.682c-0.102-0.131,0.115-0.566,0-0.682c-0.064-0.064-0.582,0.005-0.682,0
			c-0.227-0.013-0.455,0.012-0.682,0c-0.225-0.014-0.456,0-0.682,0c-0.227,0-0.455,0.007-0.682,0c-0.227-0.008-0.455,0-0.682,0
			s-0.454,0-0.682,0c-0.227,0-0.454,0-0.682,0c-0.1,0-0.613-0.062-0.682,0c-0.058,0.053,0,0.594,0,0.682c0,0.682,0,1.363,0,2.045
			c0,0.908,0,1.816,0,2.727c0,0.908,0,1.816,0,2.726c0,0.682,0,1.363,0,2.045c0,0.094,0.061,0.622,0,0.682
			c-0.06,0.06-0.588,0-0.682,0c-0.682,0-1.363,0-2.045,0s-1.363,0-2.044,0c-0.097,0-0.618,0.062-0.682,0
			c-0.06-0.057,0-0.591,0-0.682c0-0.682,0-1.363,0-2.045c0-0.909,0-1.817,0-2.726c0-0.91,0-1.818,0-2.727c0-0.455,0-0.91,0-1.363
			c0-0.109,0.064-0.603,0-0.682c-0.105-0.129,0.115-0.566,0-0.682c-0.084-0.084-0.561,0.029-0.682,0c-0.194-0.049-0.481,0-0.683,0
			c-0.224,0-0.458,0.018-0.682,0c-0.223-0.02-0.457,0-0.681,0c-0.228,0-0.455,0-0.682,0c-0.228,0-0.455,0-0.682,0
			c-0.228,0-0.455,0-0.682,0c-0.095,0-0.622-0.061-0.682,0c-0.061,0.06,0,0.588,0,0.682c0,0.227,0,0.453,0,0.682
			c0,0.227,0,0.453,0,0.682c0,0.682,0,1.363,0,2.045s0,1.363,0,2.044c0,0.682,0,1.363,0,2.045s0,1.363,0,2.045s0,1.363,0,2.045
			s0,1.363,0,2.044c0,0.455,0,0.91,0,1.363c0,0.094-0.061,0.622,0,0.682c0.06,0.061,0.587,0,0.682,0c0.682,0,1.363,0,2.045,0
			c0.908,0,1.817,0,2.727,0c0.908,0,1.817,0,2.726,0c0.682,0,1.363,0,2.045,0c0.094,0,0.622-0.06,0.682,0
			c0.061,0.061,0,0.589,0,0.682c0,0.682,0,1.363,0,2.045c0,0.91,0,1.818,0,2.727c0,0.91,0,1.818,0,2.727c0,0.909,0,1.818,0,2.727
			c-1.817,0-3.635,0-5.452,0c0,3.636,0,7.271,0,10.906c1.817,0,3.635,0,5.452,0c0,0.908,0,1.817,0,2.727c0,0.908,0,1.816,0,2.727
			c0,0.908,0,1.816,0,2.727c0,0.453,0,0.908,0,1.363c0,0.108-0.064,0.602,0,0.682c0.105,0.128-0.115,0.564,0,0.682
			c0.064,0.064,0.582-0.006,0.682,0c0.227,0.012,0.456-0.014,0.682,0c0.226,0.012,0.456,0,0.682,0c0.227,0,0.455-0.008,0.682,0
			c0.227,0.007,0.455,0,0.682,0c0.682,0,1.363,0,2.045,0c0,1.816,0,3.635,0,5.452c-1.817,0-3.635,0-5.453,0c0,0.909,0,1.817,0,2.727
			s0,1.817,0,2.727s0,1.817,0,2.726c0,0.682,0,1.363,0,2.045c0,0.094-0.06,0.621,0,0.682c0.061,0.061,0.588,0,0.682,0
			c0.682,0,1.363,0,2.045,0c0.909,0,1.818,0,2.727,0s1.817,0,2.727,0c0.908,0,1.817,0,2.727,0c0-0.682,0-1.363,0-2.045
			s0-1.362,0-2.044c0-0.683,0-1.363,0-2.045s0-1.363,0-2.045s0-1.363,0-2.045s0-1.363,0-2.045c0-0.909,0-1.817,0-2.727
			c0-0.11,0.064-0.601,0-0.681c-0.104-0.13,0.115-0.566,0-0.682c-0.064-0.065-0.582,0.005-0.682,0c-0.227-0.013-0.455,0.012-0.682,0
			c-0.226-0.014-0.456,0-0.682,0c-0.227,0-0.455,0.007-0.682,0c-0.227-0.008-0.455,0-0.682,0c-0.682,0-1.363,0-2.045,0
			c0-5.453,0-10.906,0-16.359c1.817,0,3.635,0,5.453,0c0,3.635,0,7.271,0,10.906c1.817,0,3.635,0,5.452,0c0,1.816,0,3.635,0,5.453
			c1.818,0,3.636,0,5.453,0c0,1.816,0,3.635,0,5.452c-0.908,0-1.817,0-2.727,0c-0.681,0-1.363,0-2.045,0
			c-0.096,0-0.617-0.062-0.682,0c-0.059,0.057,0,0.591,0,0.682c0,0.682,0,1.363,0,2.045c0,0.909,0,1.817,0,2.727s0,1.817,0,2.726
			c0,0.682,0,1.363,0,2.045c0,0.094-0.06,0.621,0,0.682c0.061,0.061,0.588,0,0.682,0c0.682,0,1.364,0,2.045,0
			c0.909,0,1.818,0,2.727,0c0.909,0,1.818,0,2.727,0c0.455,0,0.909,0,1.363,0c0.115,0,0.596,0.066,0.682,0
			c0.132-0.1,0.565,0.117,0.682,0c0.083-0.082-0.03-0.561,0-0.682c0.049-0.193,0-0.48,0-0.682c0-0.225-0.016-0.457,0-0.682
			c0.017-0.223,0-0.455,0-0.682s0-0.453,0-0.681s0-0.454,0-0.682c0-0.114,0.065-0.597,0-0.683c-0.101-0.131,0.116-0.564,0-0.681
			c-0.064-0.064-0.582,0.005-0.682,0c-0.226-0.013-0.455,0.013-0.682,0c-0.225-0.013-0.456,0-0.682,0s-0.455,0.007-0.682,0
			s-0.455,0-0.682,0c-0.682,0-1.363,0-2.045,0c0-1.817,0-3.636,0-5.453c0.909,0,1.818,0,2.727,0c0.682,0,1.363,0,2.045,0
			c0.097,0,0.618,0.062,0.682,0c0.06-0.057,0-0.591,0-0.682c0-0.454,0-0.909,0-1.363c0-0.682,0-1.363,0-2.045
			c0-0.681,0-1.362,0-2.044s0-1.363,0-2.045s0-1.363,0-2.045s0-1.363,0-2.045s0-1.363,0-2.045s0-1.363,0-2.045
			c1.818,0,3.635,0,5.453,0c0,3.635,0,7.27,0,10.906c1.817,0,3.635,0,5.453,0c0,2.726,0,5.452,0,8.179s0,5.452,0,8.179
			c-1.818,0-3.636,0-5.453,0c0,0.91,0,1.818,0,2.727c0,0.91,0,1.818,0,2.727c0,0.91,0,1.818,0,2.727c0,0.455,0,0.91,0,1.363
			c0,0.227,0,0.455,0,0.682c0,0.094-0.06,0.621,0,0.682s0.588,0,0.682,0c0.682,0,1.363,0,2.045,0c0.908,0,1.817,0,2.727,0
			c0.908,0,1.817,0,2.727,0c0.682,0,1.363,0,2.045,0c0.093,0,0.621,0.061,0.681,0s0-0.588,0-0.682c0-0.227,0-0.455,0-0.682
			c0-0.908,0-1.816,0-2.727c0-0.682,0-1.363,0-2.045s0-1.363,0-2.045s0-1.363,0-2.045s0-1.363,0-2.045s0-1.363,0-2.044
			c0-0.682,0-1.364,0-2.045c0-1.363,0-2.727,0-4.09s0-2.727,0-4.09s0-2.726,0-4.089c0-0.682,0-1.363,0-2.045c0-0.455,0-0.91,0-1.363
			c0-0.091-0.059-0.625,0-0.682c0.064-0.062,0.586,0,0.682,0c0.228,0,0.455,0,0.682,0c0.228,0,0.455,0,0.682,0
			c0.909,0,1.818,0,2.727,0c0.091,0,0.625-0.06,0.682,0c0.062,0.063,0,0.584,0,0.682c0,0.682,0,1.363,0,2.045
			c0,0.453,0,0.908,0,1.363c0,0.227,0,0.453,0,0.682c0,0.227,0,0.453,0,0.682c1.817,0,3.636,0,5.453,0c0,1.816,0,3.635,0,5.452
			c-1.817,0-3.636,0-5.453,0c0,5.453,0,10.905,0,16.358c1.817,0,3.636,0,5.453,0c0,1.818,0,3.637,0,5.453c-1.817,0-3.636,0-5.453,0
			c0,1.818,0,3.635,0,5.453c-0.682,0-1.363,0-2.045,0s-1.363,0-2.045,0s-1.363,0-2.044,0c-0.682,0-1.363,0-2.045,0s-1.363,0-2.045,0
			s-1.363,0-2.045,0c-0.909,0-1.818,0-2.727,0c-0.113,0-0.598-0.066-0.682,0c-0.131,0.102-0.565-0.115-0.682,0
			c-0.083,0.084,0.03,0.561,0,0.682c-0.049,0.193,0,0.48,0,0.682c0,0.225,0.016,0.457,0,0.682s0,0.457,0,0.682
			c0,0.227,0,0.455,0,0.682s0,0.455,0,0.682c0,0.125-0.067,0.58,0,0.682c0.091,0.137-0.114,0.568,0,0.682
			c0.064,0.064,0.582-0.006,0.682,0c0.227,0.012,0.455-0.014,0.682,0c0.225,0.012,0.456,0,0.682,0s0.455-0.008,0.682,0
			c0.226,0.006,0.455,0,0.682,0s0.454,0,0.682,0c0.227,0,0.454,0,0.682,0c0.052,0,0.672-0.027,0.682,0c0.059,0.172,0,0.498,0,0.682
			c0,0.682,0,1.363,0,2.045s0,1.363,0,2.045c0,0.104,0.063,0.607,0,0.682c-0.049,0.055-0.598,0-0.682,0c-0.682,0-1.363,0-2.045,0
			s-1.363,0-2.045,0c-0.094,0-0.622-0.061-0.682,0c-0.06,0.059,0,0.588,0,0.682c0,0.682,0,1.363,0,2.045c0,0.453,0,0.908,0,1.363
			c0,0.227,0,0.453,0,0.682c0,0.094-0.06,0.621,0,0.682c0.06,0.059,0.588,0,0.682,0c0.227,0,0.454,0,0.682,0
			c0.908,0,1.817,0,2.727,0c0.682,0,1.363,0,2.045,0s1.363,0,2.045,0s1.363,0,2.045,0c0.681,0,1.362,0,2.044,0s1.363,0,2.045,0
			c0.455,0,0.909,0,1.363,0c0.095,0,0.622-0.061,0.682,0c0.061,0.059,0,0.586,0,0.682c0,0.682,0,1.363,0,2.045
			c0,0.908,0,1.816,0,2.725c0,0.91,0,1.818,0,2.727c0,0.91,0,1.818,0,2.727c-0.908,0-1.817,0-2.727,0c-0.682,0-1.363,0-2.045,0
			c-0.094,0-0.622-0.059-0.682,0c-0.06,0.061,0,0.588,0,0.682c0,0.682,0,1.363,0,2.045s0,1.363,0,2.045c0,0.094-0.06,0.621,0,0.682
			s0.588,0,0.682,0c0.682,0,1.363,0,2.045,0c0.909,0,1.818,0,2.727,0c0.909,0,1.817,0,2.727,0s1.818,0,2.727,0
			c0,1.818,0,3.635,0,5.453c-0.682,0-1.363,0-2.045,0c-0.909,0-1.817,0-2.727,0c-0.908,0-1.817,0-2.727,0c-0.682,0-1.363,0-2.045,0
			c-0.109,0-0.601-0.064-0.682,0c-0.137,0.111-0.545-0.111-0.682,0c-0.054,0.045,0,0.602,0,0.682c0,0.221,0.026,0.463,0,0.682
			c-0.025,0.219,0,0.461,0,0.682c0,0.227,0,0.455,0,0.682s0.009,0.455,0,0.682c-0.008,0.227,0,0.455,0,0.681
			c0,0.682,0,1.363,0,2.045c0,0.227,0,0.455,0,0.682s0.003,0.455,0,0.682c-0.002,0.227,0,0.455,0,0.682c0,0.455,0,0.908,0,1.363
			c0,0.682,0,1.363,0,2.045c0,0.908,0,1.818,0,2.727c0,0.227,0,0.455,0,0.682c0,0.113-0.065,0.598,0,0.682
			c0.103,0.131-0.115,0.564,0,0.682c0.083,0.082,0.562-0.031,0.682,0c0.194,0.049,0.481,0,0.682,0c0.226,0,0.458-0.016,0.682,0
			c0.225,0.016,0.457,0,0.682,0c0.228,0,0.455,0,0.682,0c0.228,0,0.455,0,0.682,0c0.127,0,0.58,0.066,0.682,0
			c0.137-0.092,0.568,0.113,0.682,0c0.084-0.084-0.03-0.561,0-0.682c0.049-0.193,0-0.482,0-0.682c0-0.225-0.019-0.459,0-0.682
			s0-0.459,0-0.682c0-0.227,0-0.455,0-0.682s0-0.455,0-0.682s0-0.455,0-0.682c0-0.084-0.056-0.633,0-0.682
			c0.073-0.064,0.577,0,0.682,0c0.909,0,1.817,0,2.727,0c0.228,0,0.454,0,0.682,0c0.227,0,0.455,0,0.682,0
			c0.183,0,0.51-0.059,0.682,0c0.026,0.01,0,0.629,0,0.682c0,0.682,0,1.363,0,2.045s0,1.363,0,2.045c0,0.09-0.059,0.625,0,0.682
			c0.064,0.061,0.584,0,0.682,0c0.455,0,0.908,0,1.363,0c0.682,0,1.363,0,2.045,0c0.112,0,0.598,0.064,0.682,0
			c0.13-0.104,0.565,0.115,0.682,0c0.083-0.084-0.031-0.561,0-0.682c0.049-0.193,0-0.482,0-0.682c0-0.225-0.02-0.459,0-0.682
			c0.019-0.223,0-0.459,0-0.682c0-0.227,0-0.455,0-0.682s0-0.455,0-0.682s0-0.455,0-0.682c0-0.053-0.027-0.672,0-0.682
			c0.172-0.059,0.499,0,0.681,0c0.228,0,0.455,0,0.682,0c1.137,0,2.272,0,3.409,0c0.096,0,0.617-0.062,0.682,0
			c0.059,0.057,0,0.59,0,0.682c0,0.682,0,1.363,0,2.045c0,0.908,0,1.816,0,2.727c0,0.908,0,1.818,0,2.727c0,0.682,0,1.363,0,2.045
			c0,0.094,0.06,0.621,0,0.682c-0.061,0.059-0.588,0-0.682,0c-0.455,0-0.909,0-1.363,0c-0.909,0-1.818,0-2.728,0
			c-0.908,0-1.817,0-2.726,0c-0.909,0-1.818,0-2.727,0s-1.818,0-2.727,0c-0.909,0-1.817,0-2.727,0c-0.908,0-1.817,0-2.727,0
			c-0.908,0-1.817,0-2.727,0c-0.227,0-0.454,0-0.682,0c0,1.816,0,3.635,0,5.451c-1.817,0-3.635,0-5.452,0c0-0.908,0-1.816,0-2.727
			c0-0.68,0-1.361,0-2.043c0-0.094,0.06-0.623,0-0.682c-0.061-0.061-0.588,0-0.682,0c-0.682,0-1.363,0-2.045,0
			c-0.909,0-1.818,0-2.727,0c0-1.818,0-3.635,0-5.453c0.908,0,1.817,0,2.727,0c0.454,0,0.908,0,1.363,0c0.227,0,0.454,0,0.682,0
			c0.097,0,0.617,0.061,0.682,0c0.059-0.057,0-0.592,0-0.682c0-0.682,0-1.363,0-2.045s0-1.363,0-2.045c0-0.1,0.062-0.615,0-0.682
			c-0.055-0.059-0.593,0-0.682,0c-0.682,0-1.363,0-2.045,0c-0.909,0-1.818,0-2.727,0s-1.818,0-2.727,0c-0.455,0-0.908,0-1.363,0
			c-0.227,0-0.456-0.012-0.682,0c-0.228,0.01-0.454-0.01-0.682,0c0,1.818,0,3.635,0,5.453c-0.908,0-1.817,0-2.727,0
			c-0.454,0-0.908,0-1.363,0c-0.227,0-0.454,0-0.682,0c-0.094,0-0.621-0.061-0.682,0c-0.06,0.059,0,0.588,0,0.682
			c0,0.682,0,1.363,0,2.045s0,1.363,0,2.045c0,0.094-0.06,0.621,0,0.682c0.061,0.059,0.588,0,0.682,0c0.682,0,1.363,0,2.045,0
			c0.909,0,1.818,0,2.727,0c0.909,0,1.818,0,2.727,0s1.818,0,2.727,0c0,0.908,0,1.816,0,2.725c0,0.455,0,0.91,0,1.363
			c0,0.131-0.067,0.578,0,0.682c0.089,0.139-0.113,0.57,0,0.682c0.064,0.066,0.582-0.004,0.682,0c0.227,0.014,0.455-0.012,0.682,0
			c0.225,0.014,0.456,0,0.682,0s0.455-0.006,0.682,0c0.226,0.008,0.455,0,0.682,0c0.682,0,1.363,0,2.045,0c0,0.91,0,1.818,0,2.729
			c0,0.682,0,1.361,0,2.043c0,0.098,0.062,0.619,0,0.682c-0.057,0.061-0.591,0-0.682,0c-0.682,0-1.363,0-2.045,0
			c-0.909,0-1.818,0-2.727,0s-1.818,0-2.727,0s-1.817,0-2.727,0c0-0.908,0-1.816,0-2.725c0-0.682,0-1.363,0-2.045
			c0-0.092,0.059-0.627,0-0.684c-0.064-0.061-0.584,0-0.682,0c-0.454,0-0.908,0-1.363,0c-0.682,0-1.363,0-2.045,0
			c-0.112,0-0.598-0.064-0.682,0c-0.13,0.104-0.565-0.115-0.682,0c-0.083,0.084,0.031,0.561,0,0.684c-0.048,0.193,0,0.48,0,0.682
			c0,0.223,0.019,0.457,0,0.682c-0.019,0.223,0,0.457,0,0.682c0,0.227,0,0.453,0,0.682c0,0.227,0,0.453,0,0.68
			c0,0.229,0,0.455,0,0.682c0,0.053,0.027,0.674,0,0.682c-0.171,0.059-0.499,0-0.682,0c-0.682,0-1.363,0-2.045,0
			c-0.681,0-1.363,0-2.045,0c-0.096,0-0.617,0.062-0.682,0c-0.059-0.055,0-0.59,0-0.682c0-0.908,0-1.816,0-2.725
			c0-0.682,0-1.363,0-2.047c0-0.682,0-1.363,0-2.045s0-1.361,0-2.043s0-1.363,0-2.045c0-0.908,0-1.818,0-2.727
			c0-0.227,0-0.455,0-0.682c0-0.113,0.066-0.598,0-0.682c-0.102-0.131,0.116-0.566,0-0.682c-0.083-0.084-0.56,0.029-0.681,0
			c-0.194-0.049-0.481,0-0.682,0c-0.226,0-0.458,0.016-0.682,0c-0.225-0.016-0.457,0-0.682,0c-0.228,0-0.455,0-0.682,0
			c-0.228,0-0.455,0-0.682,0c-0.127,0-0.581-0.068-0.682,0c-0.137,0.09-0.568-0.113-0.682,0c-0.083,0.082,0.03,0.561,0,0.682
			c-0.049,0.193,0,0.48,0,0.682c0,0.223,0.019,0.459,0,0.682s0,0.457,0,0.682c0,0.227,0,0.455,0,0.682s0,0.455,0,0.682
			s0,0.455,0,0.682c0,0.053,0.026,0.672,0,0.682c-0.172,0.059-0.499,0-0.682,0c-0.682,0-1.363,0-2.045,0s-1.363,0-2.045,0
			c-0.097,0-0.618,0.061-0.682,0c-0.06-0.057,0-0.592,0-0.682c0-0.682,0-1.363,0-2.045c0-0.908,0-1.818,0-2.727
			c0-0.91,0-1.818,0-2.727s0-1.818,0-2.727c1.817,0,3.635,0,5.453,0c0-1.818,0-3.635,0-5.453c1.817,0,3.635,0,5.452,0
			c0-0.682,0-1.363,0-2.044c0-0.455,0-0.908,0-1.363c0-0.682,0-1.363,0-2.045c0-0.455,0-0.908,0-1.363c0-0.682,0-1.363,0-2.045
			c0-0.455,0-0.908,0-1.363c0-0.682,0-1.363,0-2.045c0-0.453,0-0.908,0-1.363c0-0.682,0-1.363,0-2.045c0-0.453,0-0.908,0-1.363
			c0-0.682,0-1.363,0-2.045c0-0.453,0-0.908,0-1.363c0-0.682,0-1.363,0-2.043c0-0.91,0-1.818,0-2.727c0-0.229,0-0.455,0-0.682
			c0-0.111,0.065-0.602,0-0.682c-0.104-0.131,0.116-0.566,0-0.682c-0.064-0.066-0.581,0.004-0.681,0
			c-0.227-0.014-0.456,0.012-0.682,0c-0.226-0.014-0.456,0-0.682,0c-0.227,0-0.456,0.006-0.682,0c-0.227-0.008-0.456,0-0.682,0
			c-0.682,0-1.363,0-2.045,0c0-1.818,0-3.637,0-5.453c1.817,0,3.635,0,5.452,0c0-0.908,0-1.818,0-2.727c0-0.682,0-1.363,0-2.045
			c0-0.094-0.06-0.623,0-0.682c0.061-0.061,0.588,0,0.682,0c0.682,0,1.364,0,2.045,0c0.682,0,1.363,0,2.045,0
			c0.094,0,0.622-0.061,0.682,0c0.061,0.059,0,0.588,0,0.682c0,0.682,0,1.363,0,2.045c0,0.908,0,1.818,0,2.727s0,1.816,0,2.727
			c0,0.453,0,0.908,0,1.363c0,0.107-0.064,0.602,0,0.682c0.105,0.127-0.115,0.564,0,0.682c0.084,0.082,0.561-0.031,0.682,0
			c0.194,0.049,0.481,0,0.682,0c0.224,0,0.459-0.02,0.682,0c0.224,0.018,0.458,0,0.682,0c0.228,0,0.455,0,0.682,0
			c0.228,0,0.455,0,0.682,0c0.228,0,0.455,0,0.682,0c0.094,0,0.622,0.059,0.682,0c0.06-0.061,0-0.588,0-0.682
			c0-0.229,0-0.455,0-0.682c0-0.91,0-1.818,0-2.727c0-0.682,0-1.363,0-2.045s0-1.363,0-2.045s0-1.363,0-2.045s0-1.363,0-2.045
			s0-1.363,0-2.045c0-0.455,0-0.91,0-1.363c0-0.094,0.06-0.621,0-0.682s-0.588,0-0.682,0c-0.682,0-1.363,0-2.045,0
			c-0.908,0-1.817,0-2.727,0c-0.908,0-1.817,0-2.727,0c-0.908,0-1.817,0-2.727,0c-0.908,0-1.817,0-2.726,0c-0.909,0-1.818,0-2.727,0
			c-0.909,0-1.818,0-2.727,0c-0.909,0-1.818,0-2.727,0c0-0.908,0-1.818,0-2.727c0-0.682,0-1.363,0-2.045c0-0.094,0.06-0.621,0-0.682
			s-0.588,0-0.682,0c-0.682,0-1.363,0-2.045,0s-1.363,0-2.045,0c-0.094,0-0.621-0.061-0.682,0c-0.06,0.061,0,0.588,0,0.682
			c0,0.682,0,1.363,0,2.045c0,0.908,0,1.818,0,2.727s0,1.818,0,2.727c0,0.682,0,1.363,0,2.045c0,0.094,0.061,0.621,0,0.682
			c-0.06,0.059-0.588,0-0.682,0c-0.227,0-0.454,0-0.682,0c-0.908,0-1.817,0-2.727,0c-0.227,0-0.454,0-0.681,0
			c-0.105,0-0.608,0.064-0.682,0c-0.057-0.049,0-0.598,0-0.682c0-0.682,0-1.363,0-2.045s0-1.363,0-2.045c0-0.094,0.06-0.621,0-0.682
			c-0.061-0.061-0.588,0-0.682,0c-0.683,0-1.364,0-2.045,0c-0.682,0-1.363,0-2.045,0c-0.095,0-0.622-0.061-0.682,0
			c-0.061,0.061,0,0.588,0,0.682c0,0.682,0,1.363,0,2.045c0,0.908,0,1.818,0,2.727s0,1.818,0,2.727s0,1.818,0,2.727
			c-1.818,0-3.635,0-5.453,0c0,1.816,0,3.635,0,5.453c-3.635,0-7.271,0-10.906,0c0,1.816,0,3.635,0,5.451c-1.818,0-3.635,0-5.453,0
			c0,1.818,0,3.637,0,5.453c-1.818,0-3.635,0-5.453,0c0-0.908,0-1.816,0-2.727c0-0.453,0-0.908,0-1.363c0-0.227,0-0.453,0-0.682
			c0-0.09,0.059-0.625,0-0.682c-0.064-0.061-0.584,0-0.681,0c-0.228,0-0.455,0-0.682,0c-0.909,0-1.817,0-2.726,0
			c-0.114,0-0.597-0.064-0.682,0c-0.131,0.104-0.565-0.115-0.682,0c-0.064,0.064,0.005,0.582,0,0.682
			c-0.012,0.227,0.013,0.457,0,0.682c-0.012,0.227,0,0.457,0,0.682c0,0.227,0.008,0.455,0,0.682c-0.007,0.227,0,0.455,0,0.682
			c0,0.682,0,1.363,0,2.045c-1.817,0-3.635,0-5.453,0c0-0.908,0-1.816,0-2.727c0-0.682,0-1.363,0-2.045c0-0.094,0.06-0.621,0-0.682
			c-0.06-0.059-0.588,0-0.682,0c-0.682,0-1.363,0-2.044,0c-0.909,0-1.818,0-2.727,0c0-0.908,0-1.816,0-2.725
			c0-0.682,0-1.363,0-2.045c0-0.098-0.062-0.619,0-0.682c0.057-0.061,0.591,0,0.682,0c0.454,0,0.909,0,1.363,0
			c0.909,0,1.818,0,2.727,0c1.817,0,3.635,0,5.453,0c0.909,0,1.818,0,2.727,0c0.909,0,1.818,0,2.727,0c0.908,0,1.817,0,2.726,0
			c0.682,0,1.363,0,2.045,0c0.11,0,0.6,0.064,0.682,0c0.129-0.104,0.566,0.115,0.682,0c0.083-0.084-0.031-0.561,0-0.682
			c0.048-0.193,0-0.482,0-0.682c0-0.225-0.019-0.459,0-0.682c0.019-0.223,0-0.459,0-0.682c0-0.91,0-1.818,0-2.727
			c0.908,0,1.818,0,2.727,0c0.681,0,1.363,0,2.044,0c0.097,0,0.618,0.061,0.682,0c0.059-0.057,0-0.592,0-0.682
			c0-0.682,0-1.363,0-2.045c0-0.455,0-0.908,0-1.363c0-0.129,0.068-0.578,0-0.682c-0.089-0.137,0.113-0.568,0-0.682
			c-0.083-0.084-0.561,0.029-0.682,0c-0.193-0.049-0.481,0-0.682,0c-0.225,0-0.458,0.016-0.682,0s-0.457,0-0.681,0
			c-0.228,0-0.455,0-0.682,0c-0.227,0-0.455,0-0.682,0c-0.113,0-0.598-0.066-0.682,0c-0.13,0.102-0.565-0.117-0.681,0
			c-0.064,0.064,0.005,0.582,0,0.682c-0.012,0.227,0.013,0.455,0,0.682c-0.013,0.225,0,0.455,0,0.682s0.007,0.455,0,0.682
			s0,0.455,0,0.682c0,0.682,0,1.363,0,2.045c-0.909,0-1.818,0-2.727,0c-0.682,0-1.363,0-2.045,0c-0.097,0-0.618,0.061-0.682,0
			c-0.059-0.057,0-0.592,0-0.682c0-0.227,0-0.455,0-0.682c0-0.455,0-0.908,0-1.363c0-0.908,0-1.818,0-2.727s0-1.818,0-2.727
			s0-1.818,0-2.727c1.818,0,3.635,0,5.453,0c0-1.818,0-3.635,0-5.453c0.908,0,1.818,0,2.727,0c0.681,0,1.363,0,2.044,0
			c0.099,0,0.615,0.062,0.682,0c0.058-0.053,0-0.594,0-0.682c0-0.682,0-1.363,0-2.045c0-0.453,0-0.908,0-1.363
			c0-0.129,0.068-0.576,0-0.682c-0.089-0.137,0.113-0.568,0-0.682c-0.083-0.082-0.561,0.031-0.682,0c-0.193-0.047-0.481,0-0.682,0
			c-0.225,0-0.458,0.016-0.682,0s-0.457,0-0.681,0c-0.228,0-0.455,0-0.682,0c-0.227,0-0.455,0-0.682,0c-0.115,0-0.595-0.066-0.682,0
			c-0.131,0.102-0.565-0.115-0.681,0c-0.064,0.064,0.005,0.582,0,0.682c-0.012,0.227,0.013,0.455,0,0.682s0,0.457,0,0.682
			c0,0.227,0.007,0.455,0,0.682s0,0.455,0,0.682c0,0.682,0,1.363,0,2.045c-3.635,0-7.271,0-10.906,0c0,0.91,0,1.818,0,2.727
			c0,0.682,0,1.363,0,2.045c0,0.096,0.062,0.617,0,0.682c-0.056,0.059-0.591,0-0.682,0c-0.681,0-1.363,0-2.044,0s-1.363,0-2.045,0
			c-0.096,0-0.618,0.061-0.682,0c-0.059-0.057,0-0.592,0-0.682c0-0.682,0-1.363,0-2.045c0-0.908,0-1.816,0-2.727
			c0-0.908,0-1.816,0-2.727c0-0.908,0-1.816,0-2.727c0.909,0,1.817,0,2.727,0c0.682,0,1.363,0,2.044,0c0.099,0,0.615,0.062,0.682,0
			c0.058-0.053,0-0.592,0-0.682c0-0.682,0-1.363,0-2.045s0-1.363,0-2.045c0-0.09,0.059-0.625,0-0.682c-0.064-0.061-0.584,0-0.682,0
			c-0.227,0-0.454,0-0.681,0c-0.909,0-1.817,0-2.727,0c-0.115,0-0.595-0.066-0.682,0c-0.132,0.102-0.566-0.115-0.682,0
			c-0.064,0.064,0.005,0.582,0,0.682c-0.012,0.227,0.013,0.455,0,0.682s0,0.457,0,0.682c0,0.227,0.007,0.455,0,0.682
			s0,0.455,0,0.682c0,0.682,0,1.363,0,2.045c-3.635,0-7.271,0-10.906,0c0-0.908,0-1.816,0-2.727c0-0.682,0-1.363,0-2.045
			c0-0.096,0.062-0.617,0-0.682c-0.057-0.059-0.591,0-0.682,0c-0.682,0-1.363,0-2.045,0c-0.909,0-1.817,0-2.727,0
			c-0.909,0-1.817,0-2.726,0c-0.909,0-1.818,0-2.727,0c0-1.816,0-3.635,0-5.452c-1.817,0-3.635,0-5.453,0c0-0.909,0-1.817,0-2.727
			c0-0.682,0-1.363,0-2.045c0-0.097,0.061-0.618,0-0.682c-0.057-0.06-0.591,0-0.682,0c-0.682,0-1.363,0-2.045,0
			c-0.909,0-1.817,0-2.727,0s-1.817,0-2.727,0c-0.682,0-1.363,0-2.044,0c-0.094,0-0.622-0.06-0.682,0c-0.06,0.06,0,0.588,0,0.682
			c0,0.228,0,0.454,0,0.682c0,0.909,0,1.817,0,2.727c0,0.682,0,1.363,0,2.044c0,0.683,0,1.364,0,2.045c0,0.682,0,1.363,0,2.045
			s0,1.363,0,2.045s0,1.363,0,2.045c0,0.455,0,0.91,0,1.363c0,0.094,0.061,0.621,0,0.682c-0.06,0.061-0.588,0-0.681,0
			c-0.682,0-1.363,0-2.045,0c-0.909,0-1.818,0-2.727,0s-1.817,0-2.727,0c-0.909,0-1.817,0-2.726,0c0-0.682,0-1.363,0-2.045
			c0-0.908,0-1.816,0-2.727c0-0.908,0-1.816,0-2.727c0-0.908,0-1.816,0-2.727c0-0.908,0-1.816,0-2.726s0-1.817,0-2.727
			s0-1.817,0-2.727c0-0.682,0-1.363,0-2.045c0-0.11,0.065-0.601,0-0.681c-0.104-0.13,0.116-0.566,0-0.682
			c-0.083-0.084-0.561,0.029-0.682,0c-0.194-0.049-0.481,0-0.682,0c-0.224,0-0.459,0.018-0.682,0c-0.223-0.02-0.458,0-0.682,0
			c-0.228,0-0.455,0-0.682,0c-0.228,0-0.455,0-0.682,0c-0.228,0-0.454,0-0.682,0c-0.094,0-0.622-0.061-0.682,0
			c-0.06,0.06,0,0.588,0,0.682c0,0.453,0,0.908,0,1.362c0,0.682,0,1.363,0,2.045s0,1.363,0,2.045s0,1.363,0,2.045s0,1.363,0,2.045
			s0,1.362,0,2.045c0,0.909,0,1.817,0,2.726c0,0.229,0,0.455,0,0.682c0,0.092,0.059,0.625,0,0.682c-0.064,0.062-0.585,0-0.682,0
			c-0.682,0-1.363,0-2.045,0c-0.227,0-0.454,0-0.682,0c-0.227,0-0.454,0-0.682,0c-0.227,0-0.454,0-0.682,0
			c-0.09,0-0.625,0.059-0.682,0c-0.061-0.062,0-0.584,0-0.682c0-0.682,0-1.363,0-2.045c0-0.908,0-1.816,0-2.726
			c-1.817,0-3.635,0-5.453,0c0-3.636,0-7.271,0-10.905c0.909,0,1.817,0,2.727,0c0.682,0,1.363,0,2.044,0
			c0.097,0,0.618,0.061,0.682,0c0.059-0.057,0-0.592,0-0.682c0-0.91,0-1.818,0-2.727c0-0.229,0-0.455,0-0.682
			c0-0.132,0.068-0.575,0-0.682c-0.087-0.138,0.113-0.57,0-0.682c-0.083-0.084-0.56,0.029-0.682,0c-0.193-0.049-0.481,0-0.681,0
			c-0.224,0-0.459,0.018-0.682,0c-0.223-0.02-0.458,0-0.682,0c-0.909,0-1.818,0-2.727,0c0-0.682,0-1.363,0-2.045s0-1.363,0-2.045
			s0-1.363,0-2.045s0-1.363,0-2.045s0-1.363,0-2.045s0-1.363,0-2.045c0-0.908,0-1.817,0-2.727c0-0.227,0-0.454,0-0.682
			c0-0.094-0.06-0.621,0-0.682s0.588,0,0.682,0c0.682,0,1.363,0,2.045,0s1.363,0,2.044,0c0.099,0,0.616-0.062,0.682,0
			c0.059,0.055,0,0.593,0,0.682c0,0.455,0,0.909,0,1.363c0,0.909,0,1.818,0,2.727c0,0.909,0,1.817,0,2.727c0,0.682,0,1.363,0,2.045
			c0,0.105-0.064,0.606,0,0.682c0.113,0.133-0.11,0.547,0,0.682c0.044,0.054,0.601,0,0.682,0c0.221,0,0.463-0.026,0.682,0
			c0.219,0.025,0.461,0,0.682,0c0.228,0,0.455,0,0.682,0c0.227,0,0.456-0.008,0.682,0c0.227,0.008,0.455,0,0.682,0
			c0.682,0,1.363,0,2.045,0c0.228,0,0.454,0,0.682,0c0.227,0,0.455-0.002,0.682,0s0.455,0,0.682,0c0.454,0,0.909,0,1.363,0
			c0.682,0,1.363,0,2.044,0c0.682,0,1.363,0,2.045,0s1.363,0,2.045,0c0.094,0,0.622,0.061,0.682,0s0-0.588,0-0.682
			c0-0.682,0-1.363,0-2.045c0-0.909,0-1.818,0-2.727s0-1.817,0-2.727c0-0.682,0-1.363,0-2.045c0-0.094-0.06-0.621,0-0.682
			s0.588,0,0.682,0c0.454,0,0.909,0,1.363,0c0.682,0,1.363,0,2.045,0s1.363,0,2.045,0c0.681,0,1.363,0,2.044,0s1.363,0,2.045,0
			s1.363,0,2.045,0c1.363,0,2.727,0,4.09,0c0,0.909,0,1.818,0,2.727c0,0.682,0,1.363,0,2.045c0,0.097,0.061,0.617,0,0.682
			c-0.057,0.059-0.591,0-0.682,0c-0.682,0-1.363,0-2.045,0c-0.909,0-1.817,0-2.727,0s-1.817,0-2.727,0c-0.454,0-0.909,0-1.363,0
			c-0.109,0-0.602-0.064-0.681,0c-0.129,0.105-0.566-0.116-0.682,0c-0.083,0.083,0.031,0.561,0,0.682c-0.048,0.193,0,0.481,0,0.682
			c0,0.224,0.019,0.459,0,0.682c-0.019,0.223,0,0.458,0,0.682c0,0.227,0,0.454,0,0.682c0,0.227,0,0.454,0,0.682
			c0,0.227,0,0.454,0,0.682c0,0.094-0.06,0.621,0,0.682c0.061,0.061,0.588,0,0.682,0c0.681,0,1.363,0,2.044,0
			c0.909,0,1.817,0,2.727,0s1.817,0,2.727,0c0.682,0,1.363,0,2.045,0c0.093,0,0.621-0.061,0.682,0c0.06,0.061,0,0.588,0,0.682
			c0,0.227,0,0.454,0,0.682c0,0.908,0,1.817,0,2.727c0,0.227,0,0.453,0,0.682c0,0.104,0.063,0.607,0,0.682
			c-0.049,0.056-0.598,0-0.682,0c-0.682,0-1.363,0-2.045,0s-1.363,0-2.045,0c-0.097,0-0.618-0.062-0.682,0
			c-0.059,0.056,0,0.591,0,0.682c0,0.682,0,1.363,0,2.045s0,1.363,0,2.045c0,0.098-0.062,0.615,0,0.682c0.054,0.058,0.593,0,0.682,0
			c0.682,0,1.363,0,2.045,0c0.909,0,1.817,0,2.727,0c0.909,0,1.817,0,2.726,0c0.455,0,0.909,0,1.363,0c0.227,0,0.456,0.01,0.682,0
			c0.227-0.012,0.455,0.008,0.682,0c0-1.818,0-3.637,0-5.453c3.635,0,7.271,0,10.906,0c0,0.908,0,1.816,0,2.727
			c0,0.453,0,0.908,0,1.363c0,0.129-0.068,0.576,0,0.682c0.089,0.137-0.113,0.568,0,0.682c0.064,0.064,0.582-0.006,0.682,0
			c0.227,0.012,0.455-0.014,0.682,0c0.225,0.012,0.456,0,0.682,0c0.227,0,0.455-0.008,0.682,0c0.227,0.007,0.455,0,0.682,0
			c0.682,0,1.363,0,2.045,0c0,0.908,0,1.816,0,2.726c0,0.682,0,1.363,0,2.045c0,0.097,0.061,0.618,0,0.682
			c-0.057,0.06-0.591,0-0.682,0c-0.682,0-1.363,0-2.045,0c-0.909,0-1.817,0-2.727,0c-0.909,0-1.817,0-2.727,0
			c-0.454,0-0.909,0-1.363,0c-0.109,0-0.603-0.065-0.682,0c-0.128,0.104-0.565-0.116-0.682,0c-0.083,0.083,0.031,0.561,0,0.682
			c-0.048,0.194,0,0.481,0,0.682c0,0.224,0.019,0.458,0,0.682c-0.019,0.224,0,0.458,0,0.682c0,0.228,0,0.454,0,0.682
			s0,0.454,0,0.682s0,0.454,0,0.682c0,0.093-0.06,0.621,0,0.682c0.061,0.06,0.588,0,0.682,0c0.228,0,0.455,0,0.682,0
			c0.909,0,1.817,0,2.726,0c0.682,0,1.363,0,2.045,0s1.363,0,2.045,0s1.363,0,2.045,0s1.363,0,2.044,0c0.682,0,1.364,0,2.045,0
			c0.682,0,1.363,0,2.045,0c0-0.909,0-1.817,0-2.727s0-1.817,0-2.727s0-1.817,0-2.727c0-0.454,0-0.909,0-1.363
			c0-0.108,0.065-0.603,0-0.681c-0.105-0.129,0.116-0.566,0-0.682c-0.064-0.065-0.582,0.005-0.682,0
			c-0.227-0.013-0.455,0.012-0.682,0c-0.225-0.014-0.456,0-0.682,0c-0.227,0-0.455,0.007-0.681,0c-0.227-0.008-0.455,0-0.682,0
			c-0.682,0-1.363,0-2.044,0c0-1.818,0-3.637,0-5.453c1.817,0,3.635,0,5.453,0c0-1.818,0-3.636,0-5.453c1.817,0,3.635,0,5.453,0
			c0-0.909,0-1.818,0-2.727c0-0.682,0-1.363,0-2.045c0-0.097-0.061-0.617,0-0.682c0.057-0.059,0.591,0,0.682,0
			c0.682,0,1.363,0,2.045,0s1.363,0,2.045,0c0.093,0,0.621-0.061,0.681,0s0,0.588,0,0.682c0,0.682,0,1.363,0,2.045
			c0,0.908,0,1.817,0,2.727c1.818,0,3.635,0,5.453,0c0,1.817,0,3.635,0,5.453c1.818,0,3.635,0,5.453,0c0,3.635,0,7.27,0,10.905
			c-1.818,0-3.635,0-5.453,0c0-0.909,0-1.817,0-2.727c0-0.682,0-1.363,0-2.044c0-0.098,0.061-0.619,0-0.682
			c-0.057-0.06-0.591,0-0.682,0c-0.227,0-0.455,0-0.682,0c-0.455,0-0.909,0-1.363,0c-0.908,0-1.818,0-2.727,0s-1.818,0-2.727,0
			c-0.454,0-0.909,0-1.363,0c-0.228,0-0.455,0-0.682,0c-0.093,0-0.621-0.061-0.682,0c-0.06,0.06,0,0.588,0,0.682
			c0,0.681,0,1.362,0,2.044c0,0.909,0,1.817,0,2.727s0,1.817,0,2.727c0,0.454,0,0.909,0,1.363c0,0.114-0.066,0.595,0,0.682
			c0.102,0.132-0.115,0.565,0,0.682c0.083,0.083,0.561-0.03,0.682,0c0.194,0.048,0.481,0,0.682,0c0.225,0,0.457-0.017,0.681,0
			c0.225,0.016,0.457,0,0.682,0c0.228,0,0.455,0,0.682,0s0.455,0,0.682,0c0.114,0,0.596,0.065,0.682,0
			c0.131-0.102,0.565,0.116,0.681,0c0.064-0.064-0.005-0.583,0-0.682c0.012-0.228-0.013-0.456,0-0.682s0-0.456,0-0.682
			c0-0.227-0.007-0.455,0-0.682s0-0.455,0-0.682c0-0.682,0-1.363,0-2.045c1.818,0,3.635,0,5.453,0c0,0.909,0,1.817,0,2.727
			c0,0.682,0,1.363,0,2.045c0,0.09-0.059,0.626,0,0.682c0.064,0.062,0.584,0,0.681,0c0.227,0,0.455,0,0.682,0
			c0.908,0,1.817,0,2.726,0c0.113,0,0.597,0.065,0.682,0c0.131-0.103,0.566,0.116,0.682,0c0.065-0.064-0.005-0.583,0-0.682
			c0.012-0.228-0.013-0.456,0-0.682s0-0.456,0-0.682c0-0.227-0.007-0.455,0-0.682s0-0.455,0-0.682c0-0.682,0-1.363,0-2.045
			c1.818,0,3.635,0,5.453,0c0,0.909,0,1.817,0,2.727s0,1.817,0,2.727s0,1.817,0,2.726c0,0.455,0,0.91,0,1.363
			c0,0.111-0.065,0.602,0,0.682c0.104,0.129-0.115,0.566,0,0.682c0.064,0.064,0.582-0.004,0.682,0c0.224,0.012,0.459-0.025,0.682,0
			c0.219,0.027,0.462,0,0.682,0c0.228,0,0.455,0,0.682,0s0.455-0.008,0.682,0s0.455,0,0.682,0s0.455,0,0.682,0
			c0.682,0,1.363,0,2.045,0c0.227,0,0.455-0.002,0.682,0s0.454,0,0.682,0c0.227,0,0.454,0,0.682,0c0.908,0,1.817,0,2.727,0
			c0.682,0,1.363,0,2.045,0c0.454,0,0.908,0,1.362,0c0.113,0,0.598,0.066,0.683,0c0.13-0.102,0.565,0.117,0.682,0
			c0.083-0.082-0.031-0.561,0-0.682c0.048-0.193,0-0.48,0-0.682c0-0.225-0.017-0.457,0-0.682c0.016-0.223,0-0.455,0-0.682
			s0-0.453,0-0.681s0-0.454,0-0.682c0-0.126,0.067-0.581,0-0.683c-0.092-0.135,0.113-0.566,0-0.681
			c-0.065-0.064-0.582,0.005-0.682,0c-0.227-0.013-0.456,0.013-0.683,0c-0.225-0.013-0.455,0-0.682,0c-0.226,0-0.455,0.007-0.681,0
			c-0.227-0.007-0.456,0-0.682,0c-0.682,0-1.363,0-2.045,0c0-1.817,0-3.636,0-5.453c0.908,0,1.817,0,2.727,0
			c0.681,0,1.362,0,2.045,0c0.098,0,0.614,0.062,0.682,0c0.058-0.054,0-0.593,0-0.682c0-0.682,0-1.363,0-2.045
			c0-0.909,0-1.817,0-2.726c0-0.91,0-1.818,0-2.727c0-0.455,0-0.91,0-1.363c0-0.113,0.065-0.598,0-0.682
			c-0.103-0.132,0.115-0.566,0-0.682c-0.065-0.064-0.582,0.005-0.682,0c-0.227-0.012-0.456,0.012-0.683,0
			c-0.225-0.014-0.455,0-0.682,0c-0.226,0-0.455,0.007-0.681,0c-0.227-0.008-0.456,0-0.682,0c-0.228,0-0.455,0-0.682,0
			c-0.228,0-0.455,0-0.682,0c-0.101,0-0.614-0.062-0.682,0c-0.059,0.053,0,0.594,0,0.682c0,0.682,0,1.363,0,2.045
			c0,0.908,0,1.816,0,2.727c0,0.908,0,1.816,0,2.726s0,1.817,0,2.727c-3.635,0-7.271,0-10.906,0c0-0.909,0-1.817,0-2.727
			s0-1.817,0-2.726c0-0.91,0-1.818,0-2.727c0-0.455,0-0.91,0-1.363c0-0.11,0.065-0.602,0-0.682c-0.104-0.129,0.116-0.566,0-0.682
			c-0.064-0.064-0.582,0.005-0.682,0c-0.227-0.012-0.455,0.012-0.682,0c-0.225-0.014-0.456,0-0.682,0s-0.455,0.007-0.682,0
			c-0.226-0.008-0.455,0-0.681,0c-0.682,0-1.363,0-2.045,0c0-3.636,0-7.271,0-10.906c1.818,0,3.635,0,5.453,0
			c0,0.908,0,1.817,0,2.727c0,0.682,0,1.363,0,2.045c0,0.099-0.062,0.615,0,0.682c0.055,0.058,0.594,0,0.682,0
			c0.682,0,1.363,0,2.045,0c0.455,0,0.908,0,1.363,0c0.129,0,0.577,0.068,0.682,0c0.137-0.089,0.568,0.113,0.682,0
			c0.083-0.084-0.03-0.561,0-0.682c0.049-0.193,0-0.481,0-0.682c0-0.225-0.016-0.458,0-0.682c0.016-0.225,0-0.457,0-0.682
			c0-0.228,0-0.455,0-0.682c0-0.228,0-0.455,0-0.682c0-0.115,0.066-0.595,0-0.682c-0.101-0.132,0.116-0.566,0-0.682
			c-0.064-0.064-0.582,0.006-0.682,0c-0.227-0.012-0.455,0.013-0.682,0c-0.225-0.013-0.456,0-0.682,0c-0.227,0-0.455,0.008-0.682,0
			s-0.455,0-0.682,0c-0.682,0-1.363,0-2.045,0c0-0.908,0-1.817,0-2.727c0-0.682,0-1.363,0-2.045c0-0.096-0.061-0.617,0-0.682
			c0.057-0.059,0.591,0,0.682,0c0.682,0,1.363,0,2.045,0c0.908,0,1.818,0,2.727,0s1.818,0,2.727,0c0.454,0,0.908,0,1.363,0
			c0.115,0,0.594,0.066,0.682,0c0.132-0.1,0.565,0.115,0.682,0c0.083-0.083-0.031-0.561,0-0.682c0.048-0.193,0-0.48,0-0.682
			c0-0.225-0.017-0.457,0-0.682c0.016-0.224,0-0.457,0-0.682c0-0.227,0-0.454,0-0.682c0-0.227,0-0.454,0-0.682
			c0-0.125,0.067-0.58,0-0.682c-0.092-0.136,0.113-0.567,0-0.682c-0.064-0.064-0.582,0.006-0.682,0
			c-0.227-0.012-0.455,0.014-0.682,0c-0.225-0.012-0.456,0-0.682,0c-0.227,0-0.456,0.008-0.682,0c-0.227-0.007-0.455,0-0.682,0
			c-0.682,0-1.363,0-2.045,0c0-0.908,0-1.816,0-2.727c0-0.682,0-1.363,0-2.045c0-0.908,0-1.816,0-2.727c0-0.681,0-1.362,0-2.044
			c0-0.909,0-1.817,0-2.727c0-0.682,0-1.363,0-2.045c0-0.909,0-1.817,0-2.726c0-0.682,0-1.363,0-2.045c0-0.91,0-1.818,0-2.727
			c0-0.682,0-1.363,0-2.045c0-0.909,0-1.818,0-2.727c0-0.682,0-1.363,0-2.045c0-0.909,0-1.818,0-2.727c0-0.682,0-1.363,0-2.045
			s0-1.363,0-2.045c0-0.454,0-0.908,0-1.363c0-0.109,0.065-0.601,0-0.682c-0.104-0.129,0.116-0.565,0-0.682
			c-0.064-0.064-0.582,0.006-0.682,0c-0.227-0.012-0.455,0.013-0.682,0c-0.225-0.012-0.456,0-0.682,0c-0.227,0-0.455,0.008-0.682,0
			s-0.455,0-0.682,0c-0.682,0-1.363,0-2.045,0c0-1.817,0-3.635,0-5.453c1.818,0,3.635,0,5.453,0c0-0.908,0-1.816,0-2.727
			c0-0.682,0-1.363,0-2.045c0-0.096-0.062-0.617,0-0.682c0.057-0.059,0.591,0,0.682,0c0.682,0,1.363,0,2.045,0s1.363,0,2.045,0
			c0.097,0,0.617-0.061,0.682,0c0.059,0.057,0,0.592,0,0.682c0,0.455,0,0.91,0,1.363c0,0.682,0,1.363,0,2.045s0,1.363,0,2.045
			s0,1.363,0,2.045c0,1.363,0,2.727,0,4.09c0,0.682,0,1.363,0,2.045c0,0.227,0,0.454,0,0.682s0,0.455,0,0.682
			c0,0.094-0.061,0.621,0,0.682c0.06,0.061,0.587,0,0.682,0c0.454,0,0.908,0,1.363,0c0.682,0,1.362,0,2.044,0
			c0.683,0,1.364,0,2.046,0c0.908,0,1.817,0,2.726,0C616.352,42.123,617.033,42.123,617.715,42.123z M639.526,125.279
			c0,0.229,0,0.455,0,0.682c0,0.229,0,0.455,0,0.682c0,0.229,0,0.455,0,0.682c0,0.229,0,0.455,0,0.682s0,0.455,0,0.682
			c0,0.094-0.06,0.621,0,0.682s0.589,0,0.682,0c0.909,0,1.818,0,2.727,0c0.228,0,0.455,0,0.682,0c0.228,0,0.455,0,0.682,0
			c0.094,0,0.622,0.061,0.682,0s0-0.588,0-0.682c0-0.682,0-1.363,0-2.045s0-1.363,0-2.045c0-0.094,0.06-0.621,0-0.682
			s-0.588,0-0.682,0c-0.454,0-0.908,0-1.363,0c-0.908,0-1.817,0-2.727,0c-0.195,0-0.493-0.051-0.682,0
			c-0.051,0.014,0.036,0.623,0,0.682C639.459,124.708,639.526,125.144,639.526,125.279z M595.903,130.732c0,0.227,0,0.455,0,0.682
			s0,0.455,0,0.682s0,0.455,0,0.682s0,0.455,0,0.682s0,0.455,0,0.682c0,0.094-0.061,0.621,0,0.682c0.06,0.061,0.589,0,0.682,0
			c0.228,0,0.455,0,0.682,0c0.909,0,1.818,0,2.727,0c0.227,0,0.455,0,0.682,0c0.094,0,0.622,0.061,0.682,0s0-0.588,0-0.682
			c0-0.682,0-1.363,0-2.045s0-1.363,0-2.045c0-0.094,0.06-0.621,0-0.682s-0.588,0-0.682,0c-0.455,0-0.908,0-1.363,0
			c-0.908,0-1.817,0-2.727,0c-0.196,0-0.493-0.051-0.682,0c-0.051,0.014,0.036,0.623,0,0.682
			C595.836,130.162,595.903,130.597,595.903,130.732z M639.526,164.13c0,0.455,0,0.91,0,1.363c0,0.682,0,1.363,0,2.045
			c0,0.455,0,0.908,0,1.363c0,0.682,0,1.363,0,2.045c0,0.455,0,0.908,0,1.363c0,0.682,0,1.363,0,2.045c0,0.908,0,1.818,0,2.726
			c0,0.227,0,0.455,0,0.682c0,0.094-0.06,0.621,0,0.682c0.061,0.061,0.588,0,0.682,0c0.455,0,0.909,0,1.363,0
			c0.682,0,1.363,0,2.045,0s1.363,0,2.045,0s1.363,0,2.045,0s1.363,0,2.045,0s1.363,0,2.045,0s1.363,0,2.045,0s1.363,0,2.045,0
			c0-2.726,0-5.453,0-8.179s0-5.453,0-8.18c-0.455,0-0.909,0-1.363,0c-0.682,0-1.363,0-2.045,0c-1.363,0-2.727,0-4.09,0
			c-0.682,0-1.363,0-2.045,0s-1.363,0-2.045,0c-1.363,0-2.727,0-4.09,0c-0.227,0-0.454,0-0.682,0
			C639.526,162.767,639.526,163.449,639.526,164.13z"/>
		<path fill-rule="evenodd" clip-rule="evenodd" d="M623.168,31.216c-1.817,0-3.635,0-5.453,0c0-0.908,0-1.816,0-2.727
			c0-0.682,0-1.363,0-2.045c0-0.093-0.06-0.621,0-0.682c0.061-0.06,0.588,0,0.682,0c0.455,0,0.909,0,1.363,0
			c0.227,0,0.455,0,0.682,0c0.228,0,0.455,0,0.682,0c0.228,0,0.455,0,0.682,0c0.228,0,0.455,0,0.682,0c0.087,0,0.631-0.057,0.682,0
			c0.063,0.07,0,0.58,0,0.682c0,0.91,0,1.818,0,2.727C623.168,29.853,623.168,30.535,623.168,31.216z"/>
		<path fill-rule="evenodd" clip-rule="evenodd" d="M683.15,25.763c0,0.91,0,1.818,0,2.727c0,0.682,0,1.363,0,2.045
			c0,0.91,0,1.818,0,2.727c0,0.682,0,1.363,0,2.045c0,0.909,0,1.818,0,2.727c0,0.682,0,1.363,0,2.045c0,0.909,0,1.817,0,2.727
			c0,0.682,0,1.363,0,2.045c0,0.908,0,1.817,0,2.727c0,0.682,0,1.363,0,2.045c0,0.908,0,1.816,0,2.727c0,0.682,0,1.363,0,2.045
			c0,0.908,0,1.816,0,2.727c0,0.682,0,1.363,0,2.044c0,0.909,0,1.817,0,2.727c0,0.454,0,0.909,0,1.363c0,0.094,0.06,0.622,0,0.682
			c-0.061,0.06-0.588,0-0.682,0c-0.682,0-1.363,0-2.045,0c-0.683,0-1.364,0-2.046,0c-0.908,0-1.817,0-2.726,0
			c-0.682,0-1.363,0-2.045,0c-0.908,0-1.818,0-2.727,0c-0.682,0-1.363,0-2.045,0c-0.908,0-1.817,0-2.727,0c-0.682,0-1.363,0-2.045,0
			c-0.908,0-1.817,0-2.727,0c-0.681,0-1.362,0-2.044,0c-0.909,0-1.818,0-2.727,0c-0.682,0-1.363,0-2.045,0c-0.909,0-1.818,0-2.727,0
			c-0.682,0-1.363,0-2.045,0c-0.908,0-1.818,0-2.727,0c-0.455,0-0.908,0-1.363,0c-0.094,0-0.622,0.06-0.682,0s0-0.588,0-0.682
			c0-0.682,0-1.363,0-2.045s0-1.363,0-2.045c0-0.909,0-1.817,0-2.726c0-0.682,0-1.363,0-2.045c0-0.91,0-1.818,0-2.727
			c0-0.682,0-1.363,0-2.045s0-1.363,0-2.045s0-1.363,0-2.045c0-0.909,0-1.818,0-2.727c0-0.682,0-1.363,0-2.045s0-1.363,0-2.045
			s0-1.363,0-2.045c0-0.908,0-1.817,0-2.727c0-0.682,0-1.363,0-2.045s0-1.363,0-2.045s0-1.363,0-2.045s0-1.363,0-2.045
			c0.228,0,0.454,0,0.682,0c0.908,0,1.818,0,2.727,0c0.682,0,1.363,0,2.045,0c1.59,0,3.181,0,4.771,0c3.181,0,6.361,0,9.542,0
			C670.881,25.763,677.016,25.763,683.15,25.763z M664.746,31.216c-0.454,0-0.908,0-1.363,0c-0.682,0-1.363,0-2.045,0
			c-0.454,0-0.908,0-1.362,0c-0.682,0-1.363,0-2.045,0c-0.455,0-0.909,0-1.363,0c-0.682,0-1.363,0-2.045,0c-0.455,0-0.909,0-1.363,0
			c-0.909,0-1.818,0-2.727,0c0,0.682,0,1.363,0,2.045c0,0.909,0,1.818,0,2.727c0,0.455,0,0.909,0,1.363c0,0.682,0,1.363,0,2.045
			c0,0.908,0,1.818,0,2.727c0,0.454,0,0.908,0,1.363c0,0.682,0,1.363,0,2.045c0,0.908,0,1.817,0,2.727c0,0.454,0,0.908,0,1.363
			c0,0.682,0,1.363,0,2.045c0,0.453,0,0.908,0,1.363c0,0.908,0,1.816,0,2.727c0,0.227,0,0.453,0,0.682c0,0.227,0,0.453,0,0.682
			c0,0.227,0,0.453,0,0.682c0,0.093-0.06,0.621,0,0.682c0.06,0.06,0.588,0,0.682,0c0.908,0,1.817,0,2.727,0c0.454,0,0.908,0,1.363,0
			c0.682,0,1.363,0,2.045,0c0.454,0,0.908,0,1.363,0c0.682,0,1.363,0,2.045,0c0.454,0,0.908,0,1.362,0c0.682,0,1.363,0,2.045,0
			c0.455,0,0.909,0,1.363,0c0.682,0,1.363,0,2.045,0c0.455,0,0.909,0,1.363,0c0.682,0,1.363,0,2.045,0c0.455,0,0.908,0,1.363,0
			c1.137,0,2.271,0,3.408,0c0.682,0,1.363,0,2.045,0c0-0.455,0-0.91,0-1.363c0-0.682,0-1.363,0-2.045c0-0.455,0-0.91,0-1.363
			c0-0.682,0-1.363,0-2.045c0-0.455,0-0.909,0-1.363c0-0.682,0-1.363,0-2.045c0-1.137,0-2.272,0-3.408c0-0.455,0-0.909,0-1.363
			c0-0.682,0-1.363,0-2.045c0-0.454,0-0.909,0-1.363c0-0.682,0-1.363,0-2.045c0-1.136,0-2.271,0-3.408c0-0.454,0-0.908,0-1.363
			c0-0.682,0-1.363,0-2.045C673.381,31.216,669.063,31.216,664.746,31.216z"/>
		<path fill-rule="evenodd" clip-rule="evenodd" d="M557.733,31.216c0,0.909,0,1.818,0,2.727c0,0.682,0,1.363,0,2.045
			c0,0.097,0.062,0.618,0,0.682c-0.056,0.059-0.591,0-0.682,0c-0.682,0-1.363,0-2.045,0s-1.363,0-2.045,0
			c-0.093,0-0.621,0.061-0.682,0c-0.06-0.061,0-0.588,0-0.682c0-0.454,0-0.908,0-1.363c0-0.227,0-0.454,0-0.682
			c0-0.227,0-0.454,0-0.682c0-0.227,0-0.454,0-0.682c0-0.227,0-0.454,0-0.682c0-0.09-0.059-0.625,0-0.682
			c0.064-0.061,0.585,0,0.682,0c0.909,0,1.818,0,2.727,0C556.37,31.216,557.052,31.216,557.733,31.216z"/>
		<path fill-rule="evenodd" clip-rule="evenodd" d="M617.715,31.216c0,1.818,0,3.636,0,5.453c-0.908,0-1.817,0-2.727,0
			c-0.682,0-1.363,0-2.044,0c-0.095,0-0.622,0.061-0.682,0c-0.061-0.061,0-0.588,0-0.682c0-0.454,0-0.908,0-1.363
			c0-0.227,0-0.454,0-0.682c0-0.227,0-0.454,0-0.682c0-0.227,0-0.454,0-0.682c0-0.227,0-0.454,0-0.682c0-0.086-0.057-0.631,0-0.682
			c0.07-0.062,0.579,0,0.682,0c0.908,0,1.817,0,2.726,0C616.352,31.216,617.033,31.216,617.715,31.216z"/>
		<path fill-rule="evenodd" clip-rule="evenodd" d="M623.168,31.216c0.908,0,1.817,0,2.727,0c0.682,0,1.363,0,2.045,0
			c0.102,0,0.61-0.062,0.682,0c0.057,0.051,0,0.596,0,0.682c0,0.682,0,1.363,0,2.045s0,1.363,0,2.045c0,0.094,0.06,0.621,0,0.682
			c-0.061,0.061-0.588,0-0.682,0c-0.909,0-1.818,0-2.727,0c-0.682,0-1.363,0-2.045,0C623.168,34.852,623.168,33.035,623.168,31.216z
			"/>
		<path fill-rule="evenodd" clip-rule="evenodd" d="M634.073,31.898c0.036-0.059-0.05-0.668,0-0.682c0.189-0.051,0.486,0,0.682,0
			c0.909,0,1.818,0,2.727,0c0.455,0,0.909,0,1.363,0c0.094,0,0.622-0.061,0.682,0c0.061,0.061,0,0.588,0,0.682
			c0,1.137,0,2.272,0,3.408c0,0.228,0,0.455,0,0.682c0,0.094,0.061,0.621,0,0.682c-0.06,0.061-0.588,0-0.682,0
			c-0.227,0-0.454,0-0.682,0c-0.908,0-1.817,0-2.727,0c-0.227,0-0.454,0-0.682,0c-0.093,0-0.622,0.061-0.682,0s0-0.588,0-0.682
			c0-0.227,0-0.454,0-0.682c0-0.227,0-0.454,0-0.682c0-0.227,0-0.454,0-0.682c0-0.227,0-0.454,0-0.682c0-0.227,0-0.454,0-0.682
			C634.073,32.446,634.006,32.009,634.073,31.898z"/>
		<path fill-rule="evenodd" clip-rule="evenodd" d="M530.469,36.669c0,2.727,0,5.453,0,8.18s0,5.453,0,8.18
			c-0.681,0-1.363,0-2.044,0s-1.363,0-2.045,0s-1.363,0-2.045,0s-1.363,0-2.045,0s-1.363,0-2.045,0c-0.681,0-1.363,0-2.044,0
			s-1.363,0-2.045,0c-0.455,0-0.909,0-1.363,0c-0.094,0-0.622,0.06-0.682,0c-0.06-0.061,0-0.589,0-0.682c0-0.229,0-0.455,0-0.682
			c0-0.909,0-1.818,0-2.727c0-0.682,0-1.363,0-2.045c0-0.455,0-0.909,0-1.363c0-0.682,0-1.363,0-2.045c0-0.455,0-0.909,0-1.363
			c0-0.682,0-1.363,0-2.045c0-0.908,0-1.817,0-2.727c0-0.094-0.06-0.621,0-0.682s0.588,0,0.682,0c0.682,0,1.363,0,2.045,0
			s1.363,0,2.045,0s1.363,0,2.044,0s1.363,0,2.045,0s1.363,0,2.045,0s1.363,0,2.045,0s1.363,0,2.045,0
			C529.56,36.669,530.015,36.669,530.469,36.669z"/>
		<path fill-rule="evenodd" clip-rule="evenodd" d="M617.715,36.669c1.818,0,3.636,0,5.453,0c0,1.818,0,3.635,0,5.453
			c-1.817,0-3.635,0-5.453,0C617.715,40.304,617.715,38.488,617.715,36.669z"/>
		<path fill-rule="evenodd" clip-rule="evenodd" d="M672.244,36.669c0,2.727,0,5.453,0,8.18s0,5.453,0,8.18
			c-0.682,0-1.363,0-2.045,0s-1.363,0-2.045,0s-1.363,0-2.045,0s-1.363,0-2.045,0s-1.363,0-2.045,0s-1.362,0-2.044,0
			s-1.363,0-2.045,0c-0.455,0-0.909,0-1.363,0c-0.095,0-0.622,0.06-0.682,0c-0.061-0.061,0-0.589,0-0.682c0-0.229,0-0.455,0-0.682
			c0-0.909,0-1.818,0-2.727c0-0.682,0-1.363,0-2.045c0-0.455,0-0.909,0-1.363c0-0.682,0-1.363,0-2.045c0-0.455,0-0.909,0-1.363
			c0-0.682,0-1.363,0-2.045c0-0.454,0-0.908,0-1.363c0-0.454,0-0.908,0-1.363c0-0.094-0.061-0.621,0-0.682
			c0.06-0.061,0.587,0,0.682,0c0.682,0,1.363,0,2.045,0s1.363,0,2.045,0c0.681,0,1.362,0,2.044,0s1.363,0,2.045,0s1.363,0,2.045,0
			s1.363,0,2.045,0s1.363,0,2.045,0C671.336,36.669,671.789,36.669,672.244,36.669z"/>
		<path fill-rule="evenodd" clip-rule="evenodd" d="M568.639,42.123c0,0.227,0,0.454,0,0.682c0,0.908,0,1.817,0,2.727
			c0,0.454,0,0.908,0,1.363c0,0.096,0.062,0.617,0,0.682c-0.057,0.059-0.591,0-0.682,0c-0.682,0-1.363,0-2.044,0
			c-0.909,0-1.818,0-2.727,0c-0.909,0-1.818,0-2.727,0c-0.455,0-0.909,0-1.363,0c-0.11,0-0.601-0.065-0.682,0
			c-0.129,0.104-0.565-0.116-0.682,0c-0.064,0.064,0.005,0.582,0,0.682c-0.012,0.227,0.013,0.455,0,0.682
			c-0.013,0.225,0,0.455,0,0.682s0.007,0.455,0,0.682s0,0.455,0,0.682s0,0.453,0,0.682c0,0.227,0,0.453,0,0.682
			c0,0.227,0.003,0.454,0,0.682c-0.003,0.227,0,0.454,0,0.682c0,0.682,0,1.363,0,2.045c0,0.908,0,1.816,0,2.727
			c-0.909,0-1.817,0-2.727,0c-0.682,0-1.363,0-2.045,0c-0.09,0-0.625-0.06-0.682,0c-0.061,0.064,0,0.584,0,0.681
			c0,0.228,0,0.454,0,0.682c0,0.909,0,1.817,0,2.727c0,0.114-0.065,0.597,0,0.682c0.102,0.132-0.116,0.565,0,0.682
			c0.065,0.064,0.583-0.005,0.682,0c0.227,0.013,0.455-0.013,0.682,0c0.225,0.013,0.456,0,0.681,0c0.227,0,0.455-0.007,0.682,0
			c0.227,0.007,0.455,0,0.682,0c0.682,0,1.363,0,2.045,0c0,0.909,0,1.817,0,2.727c0,0.681,0,1.363,0,2.044
			c0,0.098,0.062,0.619,0,0.682c-0.057,0.06-0.591,0-0.682,0c-0.682,0-1.363,0-2.045,0c-0.909,0-1.817,0-2.727,0
			c-0.909,0-1.817,0-2.726,0c-0.682,0-1.363,0-2.045,0c-0.094,0-0.622,0.061-0.682,0c-0.06-0.06,0-0.588,0-0.682
			c0-0.453,0-0.908,0-1.363c0-0.681,0-1.362,0-2.044s0-1.363,0-2.045s0-1.363,0-2.045s0-1.363,0-2.045c0-0.681,0-1.362,0-2.044
			s0-1.363,0-2.045s0-1.363,0-2.045c0.909,0,1.817,0,2.727,0c0.682,0,1.363,0,2.045,0c0.09,0,0.625,0.059,0.681,0
			c0.062-0.064,0-0.586,0-0.682c0-0.455,0-0.91,0-1.363c0-0.682,0-1.363,0-2.045c0-0.113,0.066-0.598,0-0.682
			c-0.102-0.131,0.116-0.566,0-0.682c-0.083-0.084-0.56,0.029-0.681,0c-0.194-0.049-0.481,0-0.682,0c-0.224,0-0.458,0.018-0.682,0
			c-0.223-0.02-0.458,0-0.682,0c-0.228,0-0.455,0-0.682,0c-0.228,0-0.454,0-0.682,0s-0.455,0-0.682,0c-0.053,0-0.672,0.027-0.682,0
			c-0.059-0.172,0-0.5,0-0.682c0-0.228,0-0.455,0-0.682c0-1.137,0-2.272,0-3.408c0-0.097-0.061-0.617,0-0.682
			c0.057-0.059,0.591,0,0.682,0c0.454,0,0.909,0,1.363,0c0.909,0,1.817,0,2.727,0c0.681,0,1.363,0,2.045,0c0.909,0,1.817,0,2.726,0
			c0.682,0,1.363,0,2.045,0c0.909,0,1.817,0,2.727,0c0.909,0,1.817,0,2.727,0c0.909,0,1.817,0,2.726,0
			C567.276,42.123,567.958,42.123,568.639,42.123z"/>
		<path fill-rule="evenodd" clip-rule="evenodd" d="M628.621,85.746c0-1.817,0-3.635,0-5.453c-0.682,0-1.363,0-2.045,0
			c-0.227,0-0.455,0.008-0.682,0c-0.227-0.007-0.455,0-0.682,0c-0.226,0-0.457,0.014-0.682,0c-0.227-0.012-0.455,0.012-0.682,0
			c-0.1-0.005-0.617,0.064-0.682,0c-0.116-0.115,0.103-0.551,0-0.682c-0.065-0.084,0-0.568,0-0.682c0-0.908,0-1.817,0-2.727
			c0-0.227,0-0.453,0-0.682c0-0.096-0.062-0.617,0-0.682c0.056-0.059,0.591,0,0.682,0c0.682,0,1.363,0,2.045,0
			c0.908,0,1.817,0,2.727,0c0-1.816,0-3.635,0-5.453c0.908,0,1.817,0,2.727,0c0.682,0,1.363,0,2.045,0c0.097,0,0.617,0.062,0.681,0
			c0.06-0.056,0-0.59,0-0.682c0-1.135,0-2.271,0-3.407c0-0.682,0-1.363,0-2.045s0-1.363,0-2.045s0-1.363,0-2.045
			c0-0.681,0-1.362,0-2.044c0-0.91,0-1.818,0-2.727c0-0.229,0-0.455,0-0.682c0-0.094-0.06-0.622,0-0.682
			c0.061-0.061,0.588,0,0.682,0c0.682,0,1.364,0,2.045,0c0.682,0,1.363,0,2.045,0c0.097,0,0.618-0.062,0.682,0
			c0.06,0.057,0,0.59,0,0.682c0,0.453,0,0.908,0,1.363c0,0.908,0,1.816,0,2.727c0,0.908,0,1.816,0,2.726s0,1.817,0,2.727
			s0,1.817,0,2.727s0,1.817,0,2.726c0,0.91,0,1.818,0,2.727c0,0.682,0,1.363,0,2.045c0,0.113-0.065,0.598,0,0.682
			c0.103,0.131-0.115,0.566,0,0.682c0.084,0.084,0.561-0.029,0.682,0c0.194,0.049,0.481,0,0.682,0c0.226,0,0.458-0.016,0.682,0
			c0.225,0.017,0.457,0,0.682,0c0.228,0,0.455,0,0.682,0c0.228,0,0.455,0,0.682,0c0.127,0,0.581,0.068,0.682,0
			c0.137-0.092,0.568,0.114,0.682,0c0.083-0.082-0.03-0.561,0-0.682c0.049-0.193,0-0.48,0-0.682c0-0.223-0.019-0.458,0-0.682
			c0.019-0.223,0-0.457,0-0.682c0-0.908,0-1.816,0-2.727c0.909,0,1.818,0,2.727,0s1.818,0,2.727,0s1.817,0,2.727,0
			c0.682,0,1.363,0,2.045,0c0.094,0,0.621-0.06,0.682,0c0.06,0.061,0,0.589,0,0.682c0,0.682,0,1.363,0,2.045c0,0.91,0,1.818,0,2.727
			c0,0.91,0,1.818,0,2.727c0,0.682,0,1.363,0,2.045c0,0.094,0.06,0.621,0,0.682c-0.061,0.061-0.588,0-0.682,0
			c-0.455,0-0.909,0-1.363,0c-0.909,0-1.818,0-2.727,0s-1.818,0-2.727,0s-1.818,0-2.727,0s-1.817,0-2.727,0
			c-0.908,0-1.817,0-2.727,0c-0.908,0-1.817,0-2.727,0c-0.682,0-1.362,0-2.045,0c-0.11,0-0.6-0.064-0.682,0
			c-0.129,0.104-0.565-0.115-0.682,0c-0.083,0.084,0.031,0.561,0,0.682c-0.048,0.193,0,0.481,0,0.682c0,0.224,0.02,0.459,0,0.682
			c-0.019,0.223,0,0.458,0,0.682c0,0.228,0,0.455,0,0.682c0,0.228,0,0.455,0,0.682c0,0.228,0,0.455,0,0.682
			c0,0.084,0.057,0.633,0,0.682c-0.072,0.064-0.576,0-0.681,0c-0.909,0-1.818,0-2.727,0
			C629.984,85.746,629.303,85.746,628.621,85.746z"/>
		<path fill-rule="evenodd" clip-rule="evenodd" d="M557.733,58.482c1.817,0,3.635,0,5.453,0c0,1.816,0,3.635,0,5.452
			c-1.818,0-3.636,0-5.453,0C557.733,62.117,557.733,60.298,557.733,58.482z"/>
		<path fill-rule="evenodd" clip-rule="evenodd" d="M579.545,58.482c1.818,0,3.635,0,5.453,0c0,1.816,0,3.635,0,5.452
			c-0.682,0-1.363,0-2.045,0c-0.227,0-0.456,0.007-0.682,0c-0.227-0.007-0.455,0-0.682,0c-0.226,0-0.457,0.013-0.682,0
			c-0.226-0.013-0.455,0.013-0.682,0c-0.1-0.005-0.617,0.064-0.682,0c-0.113-0.113,0.089-0.545,0-0.682
			c-0.068-0.104,0-0.552,0-0.682c0-0.454,0-0.909,0-1.363C579.545,60.298,579.545,59.39,579.545,58.482z"/>
		<path fill-rule="evenodd" clip-rule="evenodd" d="M590.451,58.482c0.682,0,1.363,0,2.045,0c0.227,0,0.456-0.008,0.681,0
			c0.227,0.006,0.456,0,0.682,0s0.457-0.014,0.682,0c0.227,0.012,0.455-0.013,0.682,0c0.1,0.004,0.617-0.065,0.682,0
			c0.116,0.115-0.105,0.553,0,0.681c0.065,0.079,0,0.573,0,0.682c0,0.454,0,0.909,0,1.363c0,0.909,0,1.817,0,2.727s0,1.817,0,2.727
			s0,1.817,0,2.726c-1.817,0-3.635,0-5.453,0c0,0.91,0,1.818,0,2.727c0,0.91,0,1.818,0,2.727c0,0.91,0,1.818,0,2.727
			c0,0.682,0,1.363,0,2.045c0,0.094,0.06,0.621,0,0.682s-0.587,0-0.682,0c-0.227,0-0.455,0-0.682,0c-1.136,0-2.271,0-3.408,0
			c-0.094,0-0.621,0.061-0.681,0s0-0.588,0-0.682c0-0.682,0-1.363,0-2.045c0-0.908,0-1.816,0-2.727c-1.818,0-3.635,0-5.453,0
			c0-1.816,0-3.635,0-5.453c1.818,0,3.635,0,5.453,0c0-1.816,0-3.635,0-5.452c1.818,0,3.635,0,5.453,0
			C590.451,62.117,590.451,60.298,590.451,58.482z"/>
		<path fill-rule="evenodd" clip-rule="evenodd" d="M563.187,63.934c1.817,0,3.635,0,5.453,0c0,0.909,0,1.817,0,2.727
			s0,1.817,0,2.726c0,0.91,0,1.818,0,2.727c0,0.91,0,1.818,0,2.727c0,0.91,0,1.818,0,2.727c0,0.909,0,1.818,0,2.727
			c0,0.909,0,1.818,0,2.727c0,0.682,0,1.363,0,2.045c0,0.09,0.059,0.625,0,0.682c-0.064,0.061-0.585,0-0.682,0
			c-0.682,0-1.363,0-2.044,0c-0.909,0-1.818,0-2.727,0c0-0.908,0-1.817,0-2.727c0-0.682,0-1.363,0-2.045
			c0-0.096,0.061-0.617,0-0.682c-0.057-0.059-0.591,0-0.682,0c-0.682,0-1.363,0-2.045,0c-0.909,0-1.817,0-2.727,0
			c-0.909,0-1.817,0-2.727,0c-0.682,0-1.363,0-2.045,0c-0.093,0-0.621-0.061-0.682,0c-0.06,0.061,0,0.588,0,0.682
			c0,0.682,0,1.363,0,2.045s0,1.363,0,2.045c0,0.097-0.061,0.617,0,0.682c0.057,0.059,0.591,0,0.682,0c0.682,0,1.363,0,2.045,0
			c0.909,0,1.818,0,2.727,0c0.909,0,1.817,0,2.727,0c0.909,0,1.817,0,2.727,0c0,3.635,0,7.271,0,10.906c-1.818,0-3.636,0-5.453,0
			c0-0.91,0-1.818,0-2.727c0-0.682,0-1.363,0-2.045c0-0.097,0.062-0.618,0-0.682c-0.057-0.059-0.591,0-0.682,0
			c-0.682,0-1.363,0-2.045,0c-0.909,0-1.817,0-2.727,0c-0.909,0-1.817,0-2.726,0c-0.682,0-1.363,0-2.045,0
			c-0.094,0-0.622,0.061-0.682,0s0-0.588,0-0.682c0-0.682,0-1.363,0-2.045c0-0.909,0-1.818,0-2.727s0-1.817,0-2.727
			c0-0.454,0-0.908,0-1.363c0-0.109,0.065-0.602,0-0.682c-0.105-0.129,0.116-0.565,0-0.682c-0.064-0.064-0.582,0.006-0.682,0
			c-0.227-0.012-0.455,0.014-0.682,0c-0.225-0.012-0.456,0-0.682,0c-0.227,0-0.455,0.008-0.682,0c-0.227-0.007-0.455,0-0.682,0
			c-0.682,0-1.363,0-2.044,0c0-1.817,0-3.635,0-5.453c0.682,0,1.363,0,2.044,0c0.909,0,1.818,0,2.727,0c0.909,0,1.817,0,2.727,0
			c0.909,0,1.817,0,2.727,0c0.909,0,1.817,0,2.726,0c0.909,0,1.818,0,2.727,0c0.909,0,1.817,0,2.727,0c0.682,0,1.363,0,2.045,0
			c0.107,0,0.604,0.064,0.682,0c0.134-0.111,0.546,0.111,0.682,0c0.054-0.044,0-0.6,0-0.682c0-0.217-0.031-0.467,0-0.682
			c0.03-0.215,0-0.464,0-0.682c0-0.227,0-0.453,0-0.682c0-0.227,0-0.453,0-0.682c0-0.227-0.006-0.455,0-0.682
			c0.006-0.227,0-0.454,0-0.682c0-1.135,0-2.271,0-3.407c0-0.227,0.006-0.455,0-0.682c-0.007-0.227,0-0.455,0-0.682
			C563.187,64.843,563.187,64.388,563.187,63.934z"/>
		<path fill-rule="evenodd" clip-rule="evenodd" d="M519.563,69.386c0,0.682,0,1.363,0,2.045s0,1.363,0,2.045s0,1.363,0,2.045
			s0,1.363,0,2.045s0,1.363,0,2.045s0,1.363,0,2.045s0,1.363,0,2.045c0,0.455,0,0.909,0,1.363c0,0.094,0.06,0.621,0,0.682
			c-0.061,0.061-0.588,0-0.682,0c-0.682,0-1.363,0-2.045,0s-1.363,0-2.045,0c-0.097,0-0.618,0.061-0.682,0
			c-0.059-0.057,0-0.592,0-0.682c0-0.682,0-1.363,0-2.045c0-0.908,0-1.817,0-2.727c0-0.908,0-1.817,0-2.727c0-0.908,0-1.816,0-2.727
			c-0.909,0-1.817,0-2.727,0c-0.682,0-1.363,0-2.045,0c-0.096,0-0.618,0.062-0.682,0c-0.059-0.056,0-0.59,0-0.682
			c0-0.227,0-0.453,0-0.682c0-0.682,0-1.363,0-2.045c0-0.453,0-0.908,0-1.363c0-0.096-0.061-0.617,0-0.682
			c0.057-0.059,0.591,0,0.682,0c0.909,0,1.818,0,2.727,0c0.909,0,1.818,0,2.727,0s1.817,0,2.727,0
			C518.2,69.386,518.882,69.386,519.563,69.386z"/>
		<path fill-rule="evenodd" clip-rule="evenodd" d="M541.375,74.839c-0.228,0-0.455,0-0.682,0c-0.228,0-0.455,0-0.682,0
			c-0.455,0-0.909,0-1.363,0c-0.682,0-1.363,0-2.045,0c-0.097,0-0.618,0.062-0.682,0c-0.059-0.056,0-0.59,0-0.682
			c0-0.227,0-0.453,0-0.682c0-1.135,0-2.271,0-3.408c0-0.093-0.06-0.621,0-0.682c0.061-0.06,0.588,0,0.682,0
			c0.454,0,0.909,0,1.363,0c0.227,0,0.454,0,0.682,0c0.227,0,0.454,0,0.682,0c0.227,0,0.454,0,0.682,0c0.227,0,0.454,0,0.682,0
			c0.09,0,0.625-0.059,0.682,0c0.061,0.064,0,0.586,0,0.682c0,0.91,0,1.818,0,2.727C541.375,73.476,541.375,74.158,541.375,74.839z"
			/>
		<path fill-rule="evenodd" clip-rule="evenodd" d="M672.244,80.292c0,1.818,0,3.636,0,5.453c-1.817,0-3.636,0-5.453,0
			c0,1.817,0,3.635,0,5.453c-5.453,0-10.905,0-16.358,0c0-0.909,0-1.818,0-2.727c0-0.682,0-1.363,0-2.045
			c0-0.099-0.062-0.615,0-0.682c0.055-0.059,0.593,0,0.682,0c0.454,0,0.908,0,1.363,0c0.908,0,1.817,0,2.727,0
			c0.908,0,1.817,0,2.727,0c0.682,0,1.363,0,2.045,0c0.105,0,0.606,0.064,0.682,0c0.132-0.113,0.546,0.11,0.681,0
			c0.054-0.045,0-0.601,0-0.682c0-0.221-0.025-0.463,0-0.682c0.026-0.219,0-0.461,0-0.682c0-0.227,0-0.454,0-0.682
			c0-0.227-0.008-0.455,0-0.682c0.009-0.227,0-0.455,0-0.682c0-0.682,0-1.363,0-2.045c0-0.227,0-0.454,0-0.682
			c0-0.227-0.002-0.455,0-0.682c0.003-0.227,0-0.454,0-0.682c0-0.454,0-0.908,0-1.363c0-0.682,0-1.363,0-2.045s0-1.363,0-2.045
			s0-1.363,0-2.045c0-0.093-0.06-0.621,0-0.682c0.06-0.06,0.588,0,0.682,0c0.682,0,1.363,0,2.045,0s1.363,0,2.045,0
			c0.097,0,0.618-0.061,0.682,0c0.06,0.057,0,0.592,0,0.682c0,0.455,0,0.91,0,1.363c0,0.91,0,1.818,0,2.727c0,0.909,0,1.818,0,2.727
			c0,0.682,0,1.363,0,2.045c0,0.109-0.065,0.603,0,0.682c0.111,0.137-0.11,0.546,0,0.682c0.044,0.055,0.602,0,0.682,0
			c0.221,0,0.464-0.025,0.682,0c0.219,0.026,0.462,0,0.682,0c0.228,0,0.454,0,0.682,0s0.454,0.004,0.682,0
			c0.228-0.003,0.454,0,0.682,0C671.336,80.292,671.789,80.292,672.244,80.292z"/>
		<path fill-rule="evenodd" clip-rule="evenodd" d="M579.545,74.839c0,0.682,0,1.363,0,2.045c0,0.227,0.007,0.455,0,0.682
			s0,0.455,0,0.682s0.013,0.457,0,0.682c-0.013,0.227,0.012,0.455,0,0.682c-0.005,0.1,0.064,0.617,0,0.682
			c-0.116,0.116-0.551-0.102-0.681,0c-0.084,0.066-0.569,0-0.682,0c-0.227,0-0.455,0-0.682,0s-0.454,0-0.682,0
			c-0.225,0-0.457,0.016-0.682,0c-0.224-0.016-0.457,0-0.681,0c-0.201,0-0.488,0.049-0.682,0c-0.121-0.03-0.598,0.084-0.682,0
			c-0.113-0.113,0.089-0.545,0-0.682c-0.067-0.104,0-0.553,0-0.682c0-0.454,0-0.908,0-1.363c0-0.682,0-1.363,0-2.045
			c0-0.09-0.059-0.625,0-0.682c0.064-0.061,0.585,0,0.682,0c0.682,0,1.363,0,2.045,0C577.727,74.839,578.636,74.839,579.545,74.839z
			"/>
		<path fill-rule="evenodd" clip-rule="evenodd" d="M677.697,85.746c0-0.908,0-1.817,0-2.727c0-0.454,0-0.908,0-1.363
			c0-0.129,0.067-0.576,0-0.682c-0.089-0.137,0.113-0.568,0-0.682c-0.064-0.064-0.582,0.006-0.682,0
			c-0.227-0.012-0.456,0.014-0.682,0c-0.225-0.012-0.456,0-0.682,0c-0.228,0-0.456,0.008-0.682,0c-0.227-0.007-0.455,0-0.682,0
			c-0.682,0-1.363,0-2.045,0c0-0.908,0-1.817,0-2.727c0-0.682,0-1.363,0-2.045c0-0.096-0.062-0.617,0-0.682
			c0.057-0.059,0.591,0,0.682,0c0.682,0,1.363,0,2.045,0c0.908,0,1.817,0,2.727,0c0.908,0,1.817,0,2.727,0c0.682,0,1.363,0,2.045,0
			c0.094,0,0.621-0.061,0.682,0c0.06,0.061,0,0.588,0,0.682c0,0.682,0,1.363,0,2.045c0,0.909,0,1.818,0,2.727
			c0,0.909,0,1.818,0,2.727c0,0.682,0,1.363,0,2.045c0,0.09,0.059,0.625,0,0.682c-0.064,0.061-0.586,0-0.682,0
			c-0.909,0-1.818,0-2.728,0C679.06,85.746,678.378,85.746,677.697,85.746z"/>
		<path fill-rule="evenodd" clip-rule="evenodd" d="M644.979,91.199c-0.227,0-0.454,0-0.682,0c-0.227,0-0.454,0-0.682,0
			c-0.454,0-0.908,0-1.363,0c-0.682,0-1.363,0-2.045,0c-0.096,0-0.617,0.061-0.682,0c-0.059-0.057,0-0.592,0-0.682
			c0-0.682,0-1.363,0-2.045s0-1.363,0-2.045c0-0.094-0.06-0.621,0-0.682c0.061-0.061,0.588,0,0.682,0c0.682,0,1.363,0,2.045,0
			c0.228,0,0.455,0,0.682,0c0.228,0,0.455,0,0.682,0c0.228,0,0.455,0,0.682,0c0.091,0,0.625-0.059,0.682,0
			c0.062,0.064,0,0.585,0,0.682c0,0.908,0,1.817,0,2.727C644.979,89.835,644.979,90.517,644.979,91.199z"/>
		<path fill-rule="evenodd" clip-rule="evenodd" d="M672.244,85.746c1.818,0,3.635,0,5.453,0c0,1.817,0,3.635,0,5.453
			c1.817,0,3.635,0,5.453,0c0,0.682,0,1.363,0,2.045s0,1.363,0,2.045s0,1.363,0,2.045s0,1.363,0,2.045s0,1.363,0,2.045
			s0,1.363,0,2.044c0,0.909,0,1.817,0,2.727c0,0.228,0,0.454,0,0.682c0,0.091,0.059,0.625,0,0.682c-0.064,0.062-0.586,0-0.682,0
			c-0.682,0-1.363,0-2.045,0c-0.228,0-0.455,0-0.683,0c-0.227,0-0.454,0-0.682,0c-0.227,0-0.454,0-0.682,0
			c-0.09,0-0.624,0.06-0.681,0c-0.062-0.063,0-0.585,0-0.682c0-0.682,0-1.363,0-2.045c0-0.909,0-1.817,0-2.726
			c-1.818,0-3.635,0-5.453,0c0-2.5,0-5,0-7.498c0-2.727,0-5.453,0-8.18C672.244,86.2,672.244,85.973,672.244,85.746z"/>
		<path fill-rule="evenodd" clip-rule="evenodd" d="M541.375,113.01c0,0.681,0,1.363,0,2.045c0,0.227,0.007,0.454,0,0.681
			s0,0.455,0,0.682s0.013,0.457,0,0.682c-0.013,0.227,0.012,0.455,0,0.682c-0.005,0.1,0.064,0.617,0,0.682
			c-0.116,0.117-0.551-0.102-0.682,0c-0.084,0.066-0.569,0-0.682,0c-0.228,0-0.455,0-0.682,0c-0.228,0-0.455,0-0.682,0
			c-0.225,0-0.458,0.018-0.682,0c-0.224-0.016-0.457,0-0.682,0c-0.2,0-0.488,0.049-0.682,0c-0.121-0.029-0.599,0.084-0.682,0
			c-0.113-0.113,0.089-0.545,0-0.682c-0.068-0.104,0-0.553,0-0.682c0-0.453,0-0.908,0-1.363c0-0.681,0-1.362,0-2.045
			c0-0.09-0.059-0.625,0-0.681c0.064-0.062,0.585,0,0.682,0c0.454,0,0.909,0,1.363,0c0.909,0,1.817,0,2.727,0
			C540.92,113.01,541.147,113.01,541.375,113.01z"/>
		<path fill-rule="evenodd" clip-rule="evenodd" d="M677.697,118.462c-0.228,0-0.455,0-0.682,0c-0.228,0-0.455,0-0.682,0
			c-1.137,0-2.271,0-3.408,0c-0.097,0-0.618,0.062-0.682,0c-0.059-0.057,0-0.59,0-0.682c0-0.227,0-0.453,0-0.682
			c0-1.135,0-2.271,0-3.408c0-0.093-0.061-0.621,0-0.681c0.06-0.061,0.588,0,0.682,0c0.682,0,1.363,0,2.045,0
			c0.227,0,0.454,0,0.682,0c0.227,0,0.454,0,0.682,0c0.227,0,0.454,0,0.682,0c0.09,0,0.625-0.06,0.682,0
			c0.061,0.063,0,0.585,0,0.681c0,0.91,0,1.818,0,2.727C677.697,117.099,677.697,117.781,677.697,118.462z"/>
		<path fill-rule="evenodd" clip-rule="evenodd" d="M677.697,118.462c1.817,0,3.635,0,5.453,0c0,6.363,0,12.725,0,19.086
			s0,12.723,0,19.084c-1.818,0-3.636,0-5.453,0c0-7.27,0-14.539,0-21.811c-1.818,0-3.635,0-5.453,0c0-1.818,0-3.635,0-5.453
			c0.908,0,1.818,0,2.727,0c0.682,0,1.363,0,2.045,0c0.101,0,0.612,0.062,0.682,0c0.057-0.051,0-0.596,0-0.682
			c0-0.455,0-0.908,0-1.363c0-0.682,0-1.363,0-2.045s0-1.363,0-2.045c0-0.908,0-1.816,0-2.727
			C677.697,119.826,677.697,119.144,677.697,118.462z"/>
		<path fill-rule="evenodd" clip-rule="evenodd" d="M519.563,123.916c0,0.682,0,1.363,0,2.045s0,1.363,0,2.045s0,1.363,0,2.045
			s0,1.363,0,2.045s0,1.363,0,2.045s0,1.363,0,2.045c0,0.908,0,1.818,0,2.727c0,0.227,0,0.455,0,0.682c0,0.094-0.061,0.621,0,0.682
			c0.06,0.059,0.588,0,0.681,0c0.682,0,1.363,0,2.045,0c0.909,0,1.818,0,2.727,0s1.817,0,2.727,0c0.909,0,1.817,0,2.726,0
			c0,0.908,0,1.818,0,2.727c0,0.682,0,1.363,0,2.045c0,0.096-0.061,0.617,0,0.682c0.057,0.059,0.591,0,0.682,0
			c0.454,0,0.909,0,1.363,0c0.682,0,1.363,0,2.045,0s1.363,0,2.045,0s1.363,0,2.045,0s1.363,0,2.045,0s1.363,0,2.044,0
			c0.682,0,1.363,0,2.045,0s1.363,0,2.045,0c0,1.816,0,3.635,0,5.453c1.817,0,3.635,0,5.453,0c0,0.682,0,1.363,0,2.045
			s0,1.363,0,2.045s0,1.361,0,2.043s0,1.363,0,2.045s0,1.363,0,2.045s0,1.363,0,2.045c0,0.91,0,1.818,0,2.727
			c0,0.227,0,0.455,0,0.682c0,0.094,0.061,0.621,0,0.682c-0.06,0.061-0.588,0-0.681,0c-0.228,0-0.455,0-0.682,0
			c-1.136,0-2.272,0-3.408,0c-0.097,0-0.618,0.062-0.682,0c-0.059-0.057,0-0.59,0-0.682c0-0.455,0-0.908,0-1.363
			c0-0.908,0-1.816,0-2.727c0-0.908,0-1.816,0-2.727c0-0.682,0-1.363,0-2.045c0-0.107,0.065-0.602,0-0.682
			c-0.105-0.127,0.116-0.564,0-0.682c-0.083-0.082-0.561,0.031-0.682,0c-0.194-0.047-0.481,0-0.682,0c-0.224,0-0.458,0.02-0.682,0
			c-0.223-0.018-0.458,0-0.682,0c-0.909,0-1.817,0-2.726,0c0-0.908,0-1.816,0-2.725c0-0.682,0-1.363,0-2.045
			c0-0.098,0.061-0.619,0-0.682c-0.057-0.061-0.591,0-0.682,0c-0.682,0-1.363,0-2.045,0c-0.909,0-1.817,0-2.727,0s-1.817,0-2.727,0
			c-0.682,0-1.363,0-2.044,0c-0.094,0-0.622-0.061-0.682,0c-0.06,0.059,0,0.586,0,0.682c0,0.682,0,1.363,0,2.045
			c0,0.908,0,1.816,0,2.725c0,0.91,0,1.818,0,2.727c0,0.682,0,1.363,0,2.045c0,0.096,0.061,0.623,0,0.682
			c-0.06,0.061-0.588,0-0.681,0c-0.682,0-1.363,0-2.045,0s-1.363,0-2.045,0c-0.097,0-0.618,0.062-0.682,0
			c-0.059-0.057,0-0.59,0-0.682c0-0.453,0-0.908,0-1.363c0-0.908,0-1.816,0-2.727c0-0.908,0-1.816,0-2.725c0-0.682,0-1.363,0-2.045
			c0-0.109,0.065-0.602,0-0.682c-0.105-0.129,0.116-0.566,0-0.682c-0.083-0.084-0.561,0.029-0.682,0c-0.194-0.049-0.481,0-0.682,0
			c-0.224,0-0.458,0.018-0.682,0c-0.223-0.02-0.458,0-0.682,0c-0.909,0-1.817,0-2.726,0c0-0.91,0-1.818,0-2.727
			c0-0.682,0-1.363,0-2.045c0-0.094,0.06-0.623,0-0.682c-0.061-0.061-0.588,0-0.682,0c-0.682,0-1.363,0-2.045,0
			c-0.909,0-1.817,0-2.727,0c0-0.908,0-1.818,0-2.727c0-0.682,0-1.363,0-2.045c0-0.098,0.061-0.617,0-0.682
			c-0.057-0.061-0.591,0-0.682,0c-0.682,0-1.363,0-2.045,0c-0.909,0-1.817,0-2.727,0c-0.909,0-1.817,0-2.726,0
			c-0.682,0-1.363,0-2.045,0c-0.094,0-0.622,0.059-0.682,0c-0.06-0.061,0-0.588,0-0.682c0-0.682,0-1.363,0-2.045
			c0-0.908,0-1.818,0-2.727s0-1.818,0-2.727s0-1.816,0-2.727c1.817,0,3.635,0,5.453,0c0-0.908,0-1.816,0-2.727
			c0-0.682,0-1.363,0-2.045c0-0.096-0.061-0.617,0-0.682c0.057-0.059,0.591,0,0.682,0c0.455,0,0.909,0,1.363,0
			c0.682,0,1.363,0,2.045,0s1.363,0,2.045,0c0.909,0,1.817,0,2.727,0C518.2,123.916,518.882,123.916,519.563,123.916z"/>
		<path fill-rule="evenodd" clip-rule="evenodd" d="M541.375,129.369c-0.682,0-1.363,0-2.045,0c-0.227,0-0.455,0.008-0.682,0
			s-0.455,0-0.682,0c-0.226,0-0.457,0.014-0.682,0c-0.227-0.012-0.455,0.012-0.682,0c-0.1-0.006-0.617,0.064-0.682,0
			c-0.116-0.115,0.101-0.549,0-0.682c-0.066-0.086,0-0.566,0-0.682c0-0.682,0-1.363,0-2.045c0-0.227,0-0.453,0-0.682
			c0-0.227,0-0.453,0-0.682c0-0.184-0.058-0.506,0-0.682c0.02-0.059,0.617,0.043,0.682,0c0.104-0.068,0.552,0,0.682,0
			c0.454,0,0.909,0,1.363,0c0.682,0,1.363,0,2.045,0c0.088,0,0.627-0.057,0.682,0c0.062,0.066,0,0.584,0,0.682
			c0,0.682,0,1.363,0,2.045C541.375,127.552,541.375,128.46,541.375,129.369z"/>
		<path fill-rule="evenodd" clip-rule="evenodd" d="M557.733,123.916c0,0.91,0,1.818,0,2.727c0,0.229,0,0.455,0,0.682
			c0,0.229,0,0.455,0,0.682c0,0.131-0.068,0.574,0,0.682c0.087,0.137-0.112,0.568,0,0.682c0.083,0.084,0.561-0.029,0.682,0
			c0.194,0.049,0.481,0,0.682,0c0.224,0,0.458-0.018,0.682,0c0.223,0.02,0.458,0,0.682,0c0.227,0,0.454,0,0.682,0
			c0.227,0,0.454,0,0.682,0c0.227,0,0.454,0,0.682,0c0.084,0,0.633-0.055,0.682,0c0.064,0.074,0,0.578,0,0.682
			c0,0.682,0,1.363,0,2.045c0,0.227,0,0.455,0,0.682s0,0.455,0,0.682s0,0.455,0,0.682c0,0.09,0.059,0.625,0,0.682
			c-0.064,0.061-0.585,0-0.682,0c-0.682,0-1.363,0-2.045,0c-0.909,0-1.817,0-2.727,0c0,0.908,0,1.818,0,2.727
			c0,0.682,0,1.363,0,2.045c0,0.096,0.062,0.617,0,0.682c-0.056,0.059-0.591,0-0.682,0c-0.682,0-1.363,0-2.045,0s-1.363,0-2.045,0
			c-0.096,0-0.618,0.061-0.682,0c-0.059-0.057,0-0.592,0-0.682c0-0.455,0-0.908,0-1.363c0-0.908,0-1.818,0-2.727
			c0-0.91,0-1.818,0-2.727c0-0.682,0-1.363,0-2.045c0-0.109,0.065-0.602,0-0.682c-0.104-0.129,0.116-0.566,0-0.682
			c-0.083-0.082-0.56,0.031-0.681,0c-0.194-0.049-0.481,0-0.682,0c-0.224,0-0.458,0.02-0.682,0c-0.223-0.018-0.458,0-0.682,0
			c-0.909,0-1.818,0-2.727,0c0-0.682,0-1.363,0-2.045c0-0.227-0.007-0.455,0-0.682s0-0.455,0-0.682c0-0.225-0.013-0.455,0-0.682
			s-0.012-0.455,0-0.682c0.005-0.1-0.064-0.617,0-0.682c0.116-0.115,0.553,0.105,0.682,0c0.081-0.064,0.572,0,0.682,0
			c0.454,0,0.909,0,1.363,0c0.909,0,1.817,0,2.726,0c0.909,0,1.818,0,2.727,0C555.916,123.916,556.825,123.916,557.733,123.916z"/>
		<path fill-rule="evenodd" clip-rule="evenodd" d="M541.375,129.369c1.817,0,3.635,0,5.453,0c0,0.91,0,1.818,0,2.727
			s0,1.818,0,2.727s0,1.818,0,2.727c0,0.682,0,1.363,0,2.045c0,0.094,0.06,0.621,0,0.682c-0.06,0.059-0.588,0-0.682,0
			c-0.454,0-0.909,0-1.363,0c-0.682,0-1.363,0-2.045,0c-0.681,0-1.363,0-2.044,0s-1.363,0-2.045,0s-1.363,0-2.045,0
			s-1.363,0-2.045,0s-1.363,0-2.045,0s-1.363,0-2.045,0c0-0.682,0-1.363,0-2.045c0-0.227-0.007-0.455,0-0.682s0-0.455,0-0.682
			s-0.013-0.457,0-0.682c0.013-0.227-0.012-0.455,0-0.682c0.005-0.1-0.064-0.617,0-0.682c0.116-0.117,0.553,0.105,0.682,0
			c0.079-0.064,0.572,0,0.681,0c0.455,0,0.909,0,1.363,0c0.909,0,1.817,0,2.727,0s1.817,0,2.727,0c0.682,0,1.363,0,2.045,0
			c0.091,0,0.625,0.059,0.682,0c0.061-0.064,0-0.586,0-0.682c0-0.682,0-1.363,0-2.045
			C541.375,131.187,541.375,130.279,541.375,129.369z"/>
		<path fill-rule="evenodd" clip-rule="evenodd" d="M568.639,140.957c0.036-0.059-0.05-0.668,0-0.682c0.188-0.053,0.485,0,0.682,0
			c0.909,0,1.817,0,2.727,0c0.454,0,0.909,0,1.363,0c0.094,0,0.622-0.061,0.682,0c0.061,0.059,0,0.588,0,0.682
			c0,0.682,0,1.363,0,2.045s0,1.363,0,2.045c0,0.094,0.061,0.621,0,0.682c-0.06,0.059-0.588,0-0.682,0c-0.227,0-0.454,0-0.681,0
			c-0.909,0-1.817,0-2.727,0c-0.228,0-0.454,0-0.682,0c-0.093,0-0.622,0.059-0.682,0c-0.06-0.061,0-0.588,0-0.682
			c0-0.227,0-0.455,0-0.682s0-0.455,0-0.682s0-0.455,0-0.682s0-0.455,0-0.682s0-0.455,0-0.682
			C568.639,141.503,568.571,141.066,568.639,140.957z"/>
		<path fill-rule="evenodd" clip-rule="evenodd" d="M628.621,145.728c-1.818,0-3.636,0-5.453,0c0-0.682,0-1.363,0-2.045
			c0-0.227-0.007-0.455,0-0.682s0-0.455,0-0.682s-0.013-0.457,0-0.682c0.013-0.227-0.012-0.455,0-0.682
			c0.005-0.1-0.064-0.617,0-0.682c0.115-0.117,0.551,0.102,0.682,0c0.085-0.066,0.568,0,0.682,0c0.908,0,1.817,0,2.727,0
			c0.227,0,0.454,0,0.682,0c0.097,0,0.617-0.061,0.682,0c0.059,0.057,0,0.592,0,0.682c0,0.455,0,0.908,0,1.363
			c0,0.908,0,1.818,0,2.727C628.621,145.273,628.621,145.501,628.621,145.728z"/>
		<path fill-rule="evenodd" clip-rule="evenodd" d="M514.11,145.728c0,1.816,0,3.635,0,5.453c-0.909,0-1.817,0-2.727,0
			c-0.909,0-1.817,0-2.727,0c-0.909,0-1.817,0-2.726,0c-0.682,0-1.363,0-2.045,0c-0.094,0-0.622,0.059-0.682,0
			c-0.06-0.061,0-0.588,0-0.682c0-0.682,0-1.363,0-2.045s0-1.363,0-2.045c0-0.098-0.061-0.619,0-0.682c0.057-0.061,0.591,0,0.682,0
			c0.682,0,1.363,0,2.045,0c0.454,0,0.909,0,1.363,0c0.681,0,1.363,0,2.044,0c0.909,0,1.818,0,2.727,0
			C512.747,145.728,513.429,145.728,514.11,145.728z"/>
		<path fill-rule="evenodd" clip-rule="evenodd" d="M606.81,145.728c5.453,0,10.905,0,16.358,0c0,1.816,0,3.635,0,5.453
			c-0.908,0-1.817,0-2.727,0c-0.682,0-1.363,0-2.045,0c-0.101,0-0.612-0.062-0.682,0c-0.057,0.051,0,0.594,0,0.682
			c0,0.682,0,1.363,0,2.045c0,0.908,0,1.816,0,2.725c0,0.91,0,1.818,0,2.727c0,0.91,0,1.818,0,2.727c-0.908,0-1.817,0-2.727,0
			c-0.682,0-1.363,0-2.044,0c-0.102,0-0.613-0.062-0.682,0c-0.058,0.053,0,0.596,0,0.682c0,0.682,0,1.363,0,2.045
			c0,0.91,0,1.818,0,2.727s0,1.818,0,2.727s0,1.818,0,2.727c-1.818,0-3.636,0-5.453,0c0-0.908,0-1.818,0-2.727
			c0-0.682,0-1.363,0-2.045c0-0.098,0.062-0.615,0-0.682c-0.055-0.057-0.594,0-0.682,0c-0.682,0-1.363,0-2.045,0s-1.363,0-2.045,0
			c-0.091,0-0.626-0.059-0.682,0c-0.062,0.064,0,0.584,0,0.682c0,0.227,0,0.455,0,0.682c0,0.908,0,1.818,0,2.727
			c0,0.115-0.066,0.596,0,0.682c0.101,0.133-0.116,0.566,0,0.682c0.064,0.064,0.582-0.006,0.682,0c0.227,0.012,0.455-0.012,0.682,0
			c0.225,0.014,0.456,0,0.682,0c0.227,0,0.455-0.008,0.682,0c0.226,0.008,0.455,0,0.682,0c0.682,0,1.363,0,2.045,0
			c0,0.908,0,1.818,0,2.727c0,0.682,0,1.363,0,2.044c0,0.094-0.061,0.621,0,0.682c0.06,0.061,0.587,0,0.682,0
			c0.682,0,1.363,0,2.045,0c0.908,0,1.817,0,2.727,0c0,3.635,0,7.271,0,10.906c0.908,0,1.817,0,2.726,0c0.682,0,1.363,0,2.045,0
			c0.097,0,0.618-0.061,0.682,0c0.059,0.057,0,0.59,0,0.682c0,0.682,0,1.363,0,2.045s0,1.363,0,2.045c0,0.096,0.062,0.617,0,0.682
			c-0.057,0.059-0.591,0-0.682,0c-0.454,0-0.908,0-1.363,0c-0.682,0-1.363,0-2.045,0c-0.681,0-1.362,0-2.044,0
			c-0.683,0-1.364,0-2.045,0c-0.682,0-1.363,0-2.045,0s-1.363,0-2.045,0s-1.363,0-2.045,0s-1.363,0-2.045,0c0-0.908,0-1.818,0-2.727
			c0-0.682,0-1.363,0-2.045c0-0.102,0.062-0.613,0-0.682c-0.052-0.059-0.595,0-0.682,0c-0.682,0-1.363,0-2.045,0
			c-0.908,0-1.817,0-2.727,0c-0.908,0-1.817,0-2.727,0c-0.908,0-1.817,0-2.726,0c0-1.818,0-3.635,0-5.453c0.909,0,1.818,0,2.726,0
			c0.909,0,1.818,0,2.727,0c0.909,0,1.818,0,2.727,0c0.455,0,0.908,0,1.363,0c0.109,0,0.602,0.064,0.682,0
			c0.128-0.105,0.565,0.115,0.682,0c0.083-0.084-0.03-0.561,0-0.682c0.049-0.193,0-0.482,0-0.682c0-0.225-0.019-0.459,0-0.682
			s0-0.459,0-0.682c0-0.227,0-0.455,0-0.682s0-0.455,0-0.682s0-0.455,0-0.682c0-0.094,0.06-0.621,0-0.682s-0.588,0-0.682,0
			c-0.682,0-1.363,0-2.045,0c-0.908,0-1.817,0-2.727,0c-0.908,0-1.817,0-2.727,0c-0.908,0-1.817,0-2.726,0c0-0.908,0-1.818,0-2.726
			c0-0.682,0-1.363,0-2.045c0-0.094,0.06-0.621,0-0.682s-0.587,0-0.682,0c-0.682,0-1.363,0-2.044,0c-0.909,0-1.818,0-2.727,0
			c0-3.635,0-7.27,0-10.906c3.635,0,7.271,0,10.905,0c0-1.816,0-3.635,0-5.453c0.682,0,1.363,0,2.045,0s1.363,0,2.045,0
			s1.363,0,2.045,0s1.363,0,2.045,0s1.363,0,2.045,0s1.363,0,2.045,0c0.908,0,1.817,0,2.726,0c0.228,0,0.455,0,0.683,0
			c0.09,0,0.625,0.061,0.682,0c0.061-0.062,0-0.584,0-0.68c0-0.682,0-1.363,0-2.045s0-1.363,0-2.045c0-0.184,0.059-0.51,0-0.682
			c-0.01-0.027-0.63,0-0.682,0c-0.228,0-0.455,0-0.683,0c-0.227,0-0.454,0-0.682,0c-0.226,0-0.455,0.006-0.681,0
			c-0.227-0.008-0.456,0-0.682,0s-0.457,0.012-0.682,0c-0.227-0.014-0.456,0.012-0.682,0c-0.101-0.006-0.617,0.064-0.682,0
			c-0.113-0.113,0.087-0.545,0-0.682c-0.068-0.107,0-0.551,0-0.682c0-0.455,0-0.91,0-1.363
			C606.81,147.544,606.81,146.636,606.81,145.728z"/>
		<path fill-rule="evenodd" clip-rule="evenodd" d="M514.11,151.181c1.817,0,3.635,0,5.453,0c0,0.908,0,1.816,0,2.727
			c0,0.908,0,1.816,0,2.725c0,0.91,0,1.818,0,2.727c0,0.682,0,1.363,0,2.045c0,0.096,0.06,0.623,0,0.682
			c-0.061,0.061-0.588,0-0.682,0c-0.455,0-0.909,0-1.363,0c-0.682,0-1.363,0-2.045,0s-1.363,0-2.045,0s-1.363,0-2.045,0
			s-1.363,0-2.045,0s-1.363,0-2.044,0c-0.909,0-1.818,0-2.727,0c-0.228,0-0.455,0-0.682,0c-0.094,0-0.622,0.061-0.682,0
			c-0.06-0.059,0-0.586,0-0.682c0-0.682,0-1.363,0-2.045s0-1.363,0-2.045c0-0.096-0.061-0.617,0-0.682c0.057-0.059,0.591,0,0.682,0
			c0.454,0,0.909,0,1.363,0c0.909,0,1.817,0,2.726,0c0.909,0,1.818,0,2.727,0c0.909,0,1.817,0,2.727,0c0.227,0,0.455,0,0.682,0
			C514.11,154.816,514.11,152.998,514.11,151.181z"/>
		<path fill-rule="evenodd" clip-rule="evenodd" d="M623.168,151.181c1.817,0,3.635,0,5.453,0c0,0.682,0,1.363,0,2.045
			c0,0.225,0.007,0.455,0,0.682c-0.008,0.225,0,0.455,0,0.682c0,0.225,0.013,0.455,0,0.682c-0.013,0.225,0.012,0.455,0,0.682
			c-0.006,0.098,0.064,0.615,0,0.68c-0.116,0.117-0.551-0.102-0.682,0c-0.085,0.066-0.568,0-0.682,0c-0.909,0-1.818,0-2.727,0
			c-0.228,0-0.455,0-0.682,0c-0.097,0-0.617,0.062-0.682,0c-0.059-0.055,0-0.59,0-0.68c0-0.455,0-0.91,0-1.363
			c0-0.91,0-1.818,0-2.727C623.168,151.634,623.168,151.408,623.168,151.181z"/>
		<path fill-rule="evenodd" clip-rule="evenodd" d="M541.375,156.632c0,0.91,0,1.818,0,2.727c0,0.682,0,1.363,0,2.045
			c0,0.098,0.061,0.619,0,0.682c-0.057,0.059-0.591,0-0.682,0c-0.682,0-1.363,0-2.045,0s-1.363,0-2.045,0
			c-0.094,0-0.621,0.061-0.682,0c-0.06-0.059,0-0.586,0-0.682c0-0.453,0-0.908,0-1.363c0-0.227,0-0.453,0-0.682
			c0-0.227,0-0.453,0-0.682c0-0.227,0-0.453,0-0.682c0-0.227,0-0.453,0-0.682c0-0.09-0.059-0.625,0-0.682
			c0.064-0.061,0.585,0,0.682,0c0.909,0,1.817,0,2.727,0C540.012,156.632,540.693,156.632,541.375,156.632z"/>
		<path fill-rule="evenodd" clip-rule="evenodd" d="M563.187,156.632c0,1.818,0,3.637,0,5.453c-0.909,0-1.818,0-2.727,0
			c-0.682,0-1.363,0-2.045,0c-0.093,0-0.621,0.061-0.682,0c-0.06-0.059,0-0.586,0-0.682c0-0.453,0-0.908,0-1.363
			c0-0.227,0-0.453,0-0.682c0-0.227,0-0.453,0-0.682c0-0.227,0-0.453,0-0.682c0-0.227,0-0.453,0-0.682c0-0.086-0.057-0.629,0-0.682
			c0.07-0.062,0.58,0,0.682,0c0.909,0,1.817,0,2.727,0C561.823,156.632,562.505,156.632,563.187,156.632z"/>
		<path fill-rule="evenodd" clip-rule="evenodd" d="M677.697,156.632c0,0.91,0,1.818,0,2.727c0,0.229,0,0.455,0,0.682
			c0,0.229,0,0.455,0,0.682c0,0.133-0.068,0.574,0,0.682c0.087,0.139-0.112,0.57,0,0.682c0.083,0.084,0.561-0.029,0.681,0
			c0.194,0.049,0.481,0,0.682,0c0.224,0,0.459-0.018,0.682,0c0.224,0.02,0.458,0,0.683,0c0.908,0,1.817,0,2.727,0
			c0,5.453,0,10.906,0,16.359c-3.636,0-7.271,0-10.906,0c0-1.818,0-3.634,0-5.453c0.908,0,1.818,0,2.727,0c0.454,0,0.908,0,1.363,0
			c0.227,0,0.454,0,0.682,0c0.102,0,0.611,0.062,0.682,0c0.057-0.051,0-0.594,0-0.682c0-0.682,0-1.363,0-2.045
			c0-0.455,0-0.908,0-1.363c0-0.131,0.067-0.574,0-0.682c-0.087-0.137,0.112-0.568,0-0.682c-0.064-0.064-0.582,0.006-0.682,0
			c-0.227-0.012-0.456,0.014-0.682,0c-0.225-0.012-0.456,0-0.682,0c-0.228,0-0.456,0.008-0.682,0c-0.227-0.008-0.455,0-0.682,0
			c-0.682,0-1.363,0-2.045,0c0-0.908,0-1.816,0-2.727c0-0.908,0-1.816,0-2.727c0-0.908,0-1.816,0-2.727c0-0.682,0-1.363,0-2.045
			c0-0.086-0.058-0.629,0-0.682c0.069-0.062,0.58,0,0.682,0c0.682,0,1.363,0,2.045,0
			C675.879,156.632,676.788,156.632,677.697,156.632z"/>
		<path fill-rule="evenodd" clip-rule="evenodd" d="M563.187,162.085c1.817,0,3.635,0,5.453,0c0,0.91,0,1.818,0,2.727
			c0,0.682,0,1.363,0,2.045c0,0.094-0.06,0.621,0,0.682s0.588,0,0.682,0c0.682,0,1.363,0,2.045,0c0.909,0,1.817,0,2.726,0
			c0,1.818,0,3.635,0,5.453c-0.909,0-1.817,0-2.726,0c-0.454,0-0.909,0-1.363,0c-0.228,0-0.454,0-0.682,0
			c-0.096,0-0.618-0.061-0.682,0c-0.059,0.057,0,0.592,0,0.682c0,0.682,0,1.363,0,2.045c0,0.908,0,1.818,0,2.726s0,1.818,0,2.727
			s0,1.818,0,2.727c-1.817,0-3.635,0-5.453,0c0-0.682,0-1.363,0-2.045c0-0.908,0-1.818,0-2.727s0-1.818,0-2.726
			c0-0.682,0-1.363,0-2.045c0-0.109,0.065-0.602,0-0.682c-0.104-0.129,0.116-0.566,0-0.682c-0.083-0.082-0.561,0.031-0.682,0
			c-0.194-0.049-0.481,0-0.682,0c-0.224,0-0.459,0.02-0.682,0c-0.223-0.02-0.458,0-0.682,0c-0.909,0-1.817,0-2.727,0
			c0-1.818,0-3.635,0-5.453c1.817,0,3.635,0,5.453,0C563.187,165.722,563.187,163.904,563.187,162.085z"/>
		<path fill-rule="evenodd" clip-rule="evenodd" d="M574.092,162.085c1.818,0,3.635,0,5.453,0c0,0.91,0,1.818,0,2.727
			c0,0.455,0,0.91,0,1.363c0,0.227,0,0.455,0,0.682c0,0.094,0.06,0.621,0,0.682s-0.588,0-0.681,0c-0.228,0-0.455,0-0.682,0
			c-0.909,0-1.817,0-2.726,0c-0.455,0-0.909,0-1.364,0C574.092,165.722,574.092,163.904,574.092,162.085z"/>
		<path fill-rule="evenodd" clip-rule="evenodd" d="M617.715,162.085c0.909,0,1.818,0,2.727,0c0.682,0,1.363,0,2.045,0
			c0.094,0,0.622-0.059,0.682,0c0.06,0.061,0,0.588,0,0.682c0,0.682,0,1.363,0,2.045c0,0.91,0,1.818,0,2.727
			c-0.682,0-1.363,0-2.045,0c-0.227,0-0.455,0.008-0.682,0s-0.455,0-0.682,0c-0.226,0-0.456,0.014-0.682,0
			c-0.226-0.012-0.455,0.012-0.682,0c-0.1-0.004-0.617,0.064-0.682,0c-0.112-0.113,0.09-0.545,0-0.682c-0.067-0.104,0-0.553,0-0.682
			c0-0.453,0-0.908,0-1.363C617.715,163.904,617.715,162.996,617.715,162.085z"/>
		<path fill-rule="evenodd" clip-rule="evenodd" d="M541.375,167.539c0,0.908,0,1.818,0,2.727c0,0.682,0,1.363,0,2.045
			c0,0.908,0,1.818,0,2.727c0,0.682,0,1.363,0,2.044c0,0.908,0,1.818,0,2.727c0,0.682,0,1.363,0,2.045c0,0.908,0,1.818,0,2.727
			c0,0.682,0,1.363,0,2.045c0,0.908,0,1.816,0,2.727c0,0.682,0,1.363,0,2.045c0,0.908,0,1.818,0,2.727c0,0.682,0,1.363,0,2.045
			c0,0.908,0,1.816,0,2.725c0,0.682,0,1.363,0,2.047c0,0.908,0,1.816,0,2.727c0,0.453,0,0.908,0,1.361c0,0.094,0.06,0.623,0,0.682
			c-0.061,0.061-0.588,0-0.682,0c-0.682,0-1.363,0-2.045,0s-1.363,0-2.045,0c-0.909,0-1.817,0-2.727,0c-0.682,0-1.363,0-2.045,0
			c-0.909,0-1.817,0-2.726,0c-0.682,0-1.363,0-2.045,0c-0.909,0-1.818,0-2.727,0c-0.682,0-1.363,0-2.045,0c-0.909,0-1.817,0-2.726,0
			c-0.682,0-1.363,0-2.045,0c-0.909,0-1.818,0-2.727,0c-0.682,0-1.363,0-2.045,0c-0.909,0-1.817,0-2.727,0c-0.682,0-1.363,0-2.045,0
			c-0.909,0-1.817,0-2.726,0c-0.455,0-0.909,0-1.363,0c-0.094,0-0.622,0.061-0.682,0c-0.06-0.059,0-0.588,0-0.682
			c0-0.682,0-1.361,0-2.043s0-1.363,0-2.045c0-0.91,0-1.818,0-2.729c0-0.682,0-1.361,0-2.043c0-0.91,0-1.818,0-2.727
			c0-0.682,0-1.363,0-2.045s0-1.363,0-2.045s0-1.363,0-2.045c0-0.908,0-1.818,0-2.727c0-0.682,0-1.363,0-2.045s0-1.363,0-2.045
			s0-1.363,0-2.045c0-0.908,0-1.818,0-2.726c0-0.682,0-1.363,0-2.045s0-1.363,0-2.045c0-0.455,0-0.908,0-1.363
			c0-0.908,0-1.818,0-2.727c0.227,0,0.454,0,0.682,0c0.909,0,1.817,0,2.727,0c0.682,0,1.363,0,2.044,0c0.909,0,1.818,0,2.727,0
			c0.682,0,1.363,0,2.045,0c3.181,0,6.362,0,9.542,0c1.591,0,3.181,0,4.771,0c1.59,0,3.181,0,4.771,0c0.909,0,1.818,0,2.727,0
			c0.682,0,1.363,0,2.045,0s1.363,0,2.045,0S540.693,167.539,541.375,167.539z M529.788,172.992c-0.455,0-0.909,0-1.363,0
			c-0.682,0-1.363,0-2.045,0c-1.136,0-2.272,0-3.408,0c-0.454,0-0.909,0-1.363,0c-0.682,0-1.363,0-2.044,0c-0.455,0-0.909,0-1.363,0
			c-0.682,0-1.363,0-2.045,0c-1.136,0-2.272,0-3.408,0c-1.136,0-2.272,0-3.408,0c-0.093,0-0.621-0.061-0.682,0
			c-0.06,0.061,0,0.588,0,0.682c0,0.455,0,0.908,0,1.363c0,0.908,0,1.818,0,2.726c0,0.455,0,0.908,0,1.363c0,0.682,0,1.363,0,2.045
			c0,0.908,0,1.818,0,2.727c0,0.455,0,0.908,0,1.363c0,0.682,0,1.363,0,2.045c0,0.908,0,1.816,0,2.727c0,0.453,0,0.908,0,1.363
			c0,0.682,0,1.363,0,2.045c0,1.135,0,2.271,0,3.408c0,0.227,0,0.453,0,0.68c0,0.229,0,0.455,0,0.682c0,0.229,0,0.455,0,0.682
			c0,0.229,0,0.455,0,0.682c0,0.096-0.06,0.623,0,0.682c0.061,0.061,0.588,0,0.682,0c0.909,0,1.818,0,2.727,0
			c0.454,0,0.909,0,1.363,0c0.682,0,1.363,0,2.045,0c0.454,0,0.909,0,1.363,0c0.682,0,1.363,0,2.045,0c0.454,0,0.909,0,1.363,0
			c0.682,0,1.363,0,2.045,0c0.455,0,0.909,0,1.363,0c0.682,0,1.363,0,2.045,0c0.454,0,0.909,0,1.363,0c0.682,0,1.363,0,2.045,0
			c0.454,0,0.909,0,1.363,0c0.682,0,1.363,0,2.045,0c0.455,0,0.909,0,1.363,0c0.682,0,1.363,0,2.045,0c0-0.453,0-0.908,0-1.363
			c0-1.135,0-2.271,0-3.406c0-0.682,0-1.363,0-2.045c0-0.455,0-0.908,0-1.363c0-0.682,0-1.363,0-2.045c0-0.455,0-0.91,0-1.363
			c0-0.682,0-1.363,0-2.045c0-0.455,0-0.908,0-1.363c0-0.682,0-1.363,0-2.045c0-0.455,0-0.908,0-1.363c0-0.682,0-1.363,0-2.045
			c0-0.455,0-0.908,0-1.363c0-0.682,0-1.363,0-2.044c0-0.455,0-0.908,0-1.363c0-0.682,0-1.363,0-2.045
			C533.877,172.992,531.832,172.992,529.788,172.992z"/>
		<path fill-rule="evenodd" clip-rule="evenodd" d="M623.168,167.539c0.682,0,1.363,0,2.045,0c0.227,0,0.455-0.008,0.682,0
			s0.455,0,0.682,0c0.226,0,0.456-0.012,0.682,0c0.227,0.014,0.455-0.012,0.682,0c0.1,0.006,0.617-0.064,0.682,0
			c0.115,0.115-0.101,0.551,0,0.682c0.066,0.086,0,0.568,0,0.682c0,0.227,0,0.455,0,0.682s0,0.455,0,0.682
			c0,0.225,0.016,0.457,0,0.682c-0.017,0.225,0,0.457,0,0.682c0,0.201,0.049,0.488,0,0.682c-0.031,0.121,0.083,0.6,0,0.682
			c-0.113,0.113-0.545-0.088-0.682,0c-0.104,0.068-0.553,0-0.682,0c-0.455,0-0.909,0-1.363,0c-0.682,0-1.363,0-2.045,0
			c-0.089,0-0.628,0.059-0.682,0c-0.062-0.066,0-0.582,0-0.682c0-0.682,0-1.363,0-2.045
			C623.168,169.357,623.168,168.447,623.168,167.539z"/>
		<path fill-rule="evenodd" clip-rule="evenodd" d="M644.979,168.22c0.036-0.059-0.05-0.668,0-0.682c0.188-0.051,0.485,0,0.682,0
			c0.908,0,1.818,0,2.727,0c0.455,0,0.908,0,1.363,0c0.094,0,0.622-0.061,0.682,0s0,0.588,0,0.682c0,0.682,0,1.363,0,2.045
			c0,0.455,0,0.908,0,1.363c0,0.227,0,0.455,0,0.682c0,0.094,0.06,0.621,0,0.682s-0.588,0-0.682,0c-0.227,0-0.455,0-0.682,0
			s-0.455,0-0.682,0c-0.682,0-1.363,0-2.045,0c-0.227,0-0.454,0-0.682,0c-0.093,0-0.622,0.061-0.682,0c-0.061-0.061,0-0.588,0-0.682
			c0-0.227,0-0.455,0-0.682s0-0.455,0-0.682s0-0.455,0-0.682s0-0.455,0-0.682s0-0.455,0-0.682
			C644.979,168.769,644.912,168.332,644.979,168.22z"/>
		<path fill-rule="evenodd" clip-rule="evenodd" d="M557.733,172.992c0,0.908,0,1.818,0,2.727c0,0.682,0,1.363,0,2.044
			c0,0.096,0.062,0.617,0,0.682c-0.056,0.059-0.591,0-0.682,0c-0.682,0-1.363,0-2.045,0s-1.363,0-2.045,0
			c-0.093,0-0.621,0.061-0.682,0c-0.06-0.061,0-0.588,0-0.682c0-0.455,0-0.908,0-1.363c0-0.227,0-0.455,0-0.682s0-0.455,0-0.682
			s0-0.455,0-0.682s0-0.455,0-0.682c0-0.09-0.059-0.625,0-0.682c0.064-0.061,0.585,0,0.682,0c0.228,0,0.455,0,0.682,0
			c0.681,0,1.363,0,2.044,0S557.052,172.992,557.733,172.992z"/>
		<path fill-rule="evenodd" clip-rule="evenodd" d="M574.092,172.992c3.635,0,7.271,0,10.906,0c0,1.818,0,3.635,0,5.453
			c-0.909,0-1.818,0-2.727,0c-0.455,0-0.908,0-1.363,0c-0.129,0-0.577-0.068-0.682,0c-0.137,0.09-0.568-0.113-0.682,0
			c-0.064,0.064,0.005,0.582,0,0.682c-0.012,0.227,0.013,0.455,0,0.682c-0.013,0.225,0,0.455,0,0.682s0.007,0.455,0,0.682
			s0,0.455,0,0.682c0,0.682,0,1.363,0,2.045c-0.681,0-1.363,0-2.045,0c-0.227,0-0.455,0.008-0.682,0c-0.226-0.008-0.454,0-0.682,0
			c-0.225,0-0.457,0.012-0.681,0c-0.227-0.014-0.455,0.012-0.682,0c-0.099-0.006-0.617,0.064-0.682,0
			c-0.116-0.115,0.105-0.553,0-0.682c-0.065-0.08,0-0.572,0-0.682c0-0.455,0-0.908,0-1.363c0-0.682,0-1.363,0-2.045s0-1.363,0-2.045
			c0-0.455,0-0.908,0-1.363c0-0.682,0-1.363,0-2.045C574.092,173.447,574.092,173.218,574.092,172.992z"/>
		<path fill-rule="evenodd" clip-rule="evenodd" d="M612.263,172.992c0.908,0,1.817,0,2.726,0c0.682,0,1.363,0,2.045,0
			c0.094,0,0.622-0.061,0.682,0c0.061,0.061,0,0.588,0,0.682c0,0.682,0,1.363,0,2.045c0,0.908,0,1.818,0,2.726
			c-1.817,0-3.635,0-5.452,0C612.263,176.626,612.263,174.81,612.263,172.992z"/>
		<path fill-rule="evenodd" clip-rule="evenodd" d="M514.11,178.444c0.909,0,1.817,0,2.727,0c0.682,0,1.363,0,2.045,0
			s1.363,0,2.044,0s1.363,0,2.045,0c1.363,0,2.727,0,4.09,0c0.682,0,1.363,0,2.045,0c0.454,0,0.909,0,1.363,0
			c0,0.682,0,1.363,0,2.045s0,1.363,0,2.045s0,1.363,0,2.045s0,1.363,0,2.045s0,1.363,0,2.045s0,1.363,0,2.045s0,1.363,0,2.045
			c0,0.455,0,0.908,0,1.363c0,0.094,0.061,0.621,0,0.682c-0.06,0.059-0.588,0-0.681,0c-0.228,0-0.455,0-0.682,0
			c-0.909,0-1.818,0-2.727,0c-0.682,0-1.363,0-2.045,0s-1.363,0-2.045,0s-1.363,0-2.045,0c-0.681,0-1.363,0-2.044,0
			s-1.363,0-2.045,0c-0.455,0-0.909,0-1.363,0c-0.094,0-0.622,0.059-0.682,0c-0.06-0.061,0-0.588,0-0.682c0-0.227,0-0.455,0-0.682
			c0-0.908,0-1.818,0-2.727c0-0.682,0-1.363,0-2.045c0-0.455,0-0.908,0-1.363c0-0.682,0-1.363,0-2.045c0-0.455,0-0.908,0-1.363
			c0-0.682,0-1.363,0-2.045c0-0.455,0-0.908,0-1.363C514.11,179.808,514.11,179.126,514.11,178.444z"/>
		<path fill-rule="evenodd" clip-rule="evenodd" d="M584.998,178.444c1.818,0,3.635,0,5.453,0c0,1.818,0,3.635,0,5.453
			c-1.818,0-3.635,0-5.453,0C584.998,182.079,584.998,180.263,584.998,178.444z"/>
		<path fill-rule="evenodd" clip-rule="evenodd" d="M617.715,178.444c0.682,0,1.363,0,2.045,0c0.227,0,0.455-0.008,0.682,0
			s0.455,0,0.682,0c0.226,0,0.457-0.012,0.682,0c0.227,0.012,0.455-0.012,0.682,0c0.1,0.006,0.617-0.064,0.682,0
			c0.113,0.113-0.089,0.545,0,0.682c0.067,0.104,0,0.553,0,0.682c0,0.455,0,0.908,0,1.363c0,0.908,0,1.818,0,2.727
			c-0.908,0-1.817,0-2.727,0c-0.227,0-0.455,0-0.682,0s-0.454,0-0.682,0c-0.227,0-0.454,0-0.682,0c-0.094,0-0.621,0.061-0.682,0
			c-0.06-0.061,0-0.588,0-0.682c0-0.908,0-1.818,0-2.727C617.715,179.808,617.715,179.126,617.715,178.444z"/>
		<path fill-rule="evenodd" clip-rule="evenodd" d="M563.187,183.897c0,1.818,0,3.635,0,5.453c-1.818,0-3.636,0-5.453,0
			c0,1.818,0,3.635,0,5.453c-1.817,0-3.635,0-5.453,0c0,0.908,0,1.816,0,2.725c0,0.682,0,1.363,0,2.045c0,0.098,0.062,0.619,0,0.682
			c-0.056,0.059-0.591,0-0.681,0c-0.228,0-0.455,0-0.682,0c-1.136,0-2.272,0-3.408,0c-0.097,0-0.618,0.062-0.682,0
			c-0.059-0.057,0-0.59,0-0.682c0-0.682,0-1.363,0-2.045c0-0.908,0-1.816,0-2.725s0-1.818,0-2.727s0-1.818,0-2.727
			c1.817,0,3.635,0,5.453,0c0-0.91,0-1.818,0-2.727c0-0.682,0-1.363,0-2.045c0-0.098-0.061-0.617,0-0.682
			c0.057-0.059,0.591,0,0.682,0c0.455,0,0.909,0,1.363,0c0.682,0,1.363,0,2.045,0s1.363,0,2.045,0c0.909,0,1.817,0,2.727,0
			C561.823,183.897,562.505,183.897,563.187,183.897z"/>
		<path fill-rule="evenodd" clip-rule="evenodd" d="M579.545,183.897c1.818,0,3.635,0,5.453,0c0,1.818,0,3.635,0,5.453
			c-1.818,0-3.635,0-5.453,0C579.545,187.532,579.545,185.716,579.545,183.897z"/>
		<path fill-rule="evenodd" clip-rule="evenodd" d="M563.187,189.351c5.453,0,10.905,0,16.358,0c0,0.908,0,1.818,0,2.727
			c0,0.455,0,0.908,0,1.363c0,0.227,0,0.455,0,0.682c0,0.09-0.059,0.625,0,0.682c0.064,0.061,0.584,0,0.682,0
			c0.227,0,0.455,0,0.682,0c0.909,0,1.818,0,2.727,0c0.113,0,0.596,0.064,0.682,0c0.131-0.102,0.566,0.115,0.682,0
			c0.064-0.064-0.005-0.582,0-0.682c0.012-0.227-0.013-0.455,0-0.682s0-0.457,0-0.682c0-0.227-0.007-0.455,0-0.682s0-0.455,0-0.682
			c0-0.682,0-1.363,0-2.045c1.818,0,3.635,0,5.453,0c0,3.635,0,7.27,0,10.904c-3.635,0-7.271,0-10.906,0c0,0.91,0,1.818,0,2.729
			c0,0.682,0,1.361,0,2.043c0,0.094,0.06,0.623,0,0.682c-0.06,0.061-0.588,0-0.681,0c-0.682,0-1.364,0-2.045,0s-1.363,0-2.045,0
			c-0.093,0-0.621,0.061-0.682,0c-0.06-0.059,0-0.588,0-0.682c0-0.453,0-0.908,0-1.361c0-0.91,0-1.818,0-2.727
			c0-0.91,0-1.818,0-2.729c0-0.682,0-1.361,0-2.043c0-0.109,0.065-0.604,0-0.682c-0.104-0.129,0.117-0.566,0-0.682
			c-0.083-0.084-0.56,0.029-0.682,0c-0.193-0.049-0.481,0-0.681,0c-0.224,0-0.458,0.018-0.682,0c-0.223-0.02-0.458,0-0.682,0
			c-0.228,0-0.454,0-0.682,0s-0.454,0-0.682,0s-0.454,0-0.682,0c-0.094,0-0.622-0.061-0.682,0c-0.06,0.059,0,0.588,0,0.682
			c0,0.682,0,1.363,0,2.043c0,0.91,0,1.818,0,2.727c0,0.91,0,1.818,0,2.729c0,0.682,0,1.361,0,2.043c0,0.092,0.059,0.627,0,0.682
			c-0.064,0.062-0.585,0-0.682,0c-0.682,0-1.363,0-2.044,0c-0.228,0-0.455,0-0.682,0c-0.227,0-0.454,0-0.682,0
			c-0.227,0-0.454,0-0.681,0c-0.094,0-0.622,0.061-0.682,0c-0.061-0.059,0-0.588,0-0.682c0-0.908,0-1.816,0-2.725
			c0-1.137,0-2.273,0-3.41c0-1.135,0-2.271,0-3.406c0-0.682,0-1.363,0-2.045s0-1.363,0-2.045S563.187,190.032,563.187,189.351z"/>
		<path fill-rule="evenodd" clip-rule="evenodd" d="M601.356,194.804c0,1.816,0,3.635,0,5.451c-1.818,0-3.635,0-5.453,0
			c0-0.682,0-1.363,0-2.045c0-0.227-0.007-0.455,0-0.682c0.008-0.225,0-0.453,0-0.68s-0.013-0.457,0-0.682
			c0.013-0.227-0.012-0.457,0-0.682c0.006-0.1-0.064-0.617,0-0.682c0.113-0.113,0.545,0.088,0.682,0c0.104-0.068,0.553,0,0.682,0
			c0.455,0,0.909,0,1.363,0C599.538,194.804,600.448,194.804,601.356,194.804z"/>
		<path fill-rule="evenodd" clip-rule="evenodd" d="M590.451,200.255c1.818,0,3.635,0,5.453,0c0,0.91,0,1.818,0,2.729
			c0,0.682,0,1.361,0,2.043c0,0.094,0.061,0.623,0,0.682c-0.06,0.061-0.588,0-0.682,0c-0.682,0-1.363,0-2.045,0
			c-0.227,0-0.454,0-0.681,0s-0.455,0-0.682,0s-0.455,0-0.682,0c-0.086,0-0.63,0.057-0.682,0c-0.063-0.07,0-0.578,0-0.682
			c0-0.908,0-1.816,0-2.725C590.451,201.62,590.451,200.938,590.451,200.255z"/>
		<path fill-rule="evenodd" clip-rule="evenodd" d="M601.356,200.255c0.682,0,1.363,0,2.045,0s1.363,0,2.045,0s1.363,0,2.045,0
			s1.363,0,2.045,0c0.681,0,1.362,0,2.045,0c0.682,0,1.363,0,2.044,0c0.909,0,1.818,0,2.727,0c0.228,0,0.455,0,0.682,0
			c0.091,0,0.625-0.059,0.682,0c0.062,0.064,0,0.586,0,0.684c0,0.453,0,0.908,0,1.363c0,0.227,0,0.453,0,0.682
			c0,0.227,0,0.453,0,0.682c0,0.227,0,0.453,0,0.68c0,0.229,0,0.455,0,0.682c0,0.094,0.061,0.623,0,0.682
			c-0.06,0.061-0.588,0-0.682,0c-0.454,0-0.908,0-1.363,0c-0.682,0-1.363,0-2.045,0c-1.362,0-2.727,0-4.089,0
			c-0.682,0-1.363,0-2.045,0s-1.363,0-2.045,0c-0.909,0-1.818,0-2.727,0c-0.227,0-0.455,0-0.682,0c-0.091,0-0.625,0.061-0.682,0
			c-0.062-0.062,0-0.584,0-0.682c0-0.908,0-1.816,0-2.725C601.356,201.62,601.356,200.938,601.356,200.255z"/>
		<path fill-rule="evenodd" clip-rule="evenodd" d="M677.697,200.938c0.036-0.061-0.051-0.668,0-0.684c0.188-0.051,0.485,0,0.681,0
			c0.909,0,1.818,0,2.728,0c0.454,0,0.908,0,1.363,0c0.094,0,0.621-0.059,0.682,0c0.06,0.061,0,0.588,0,0.684
			c0,1.135,0,2.271,0,3.406c0,0.229,0,0.455,0,0.682c0,0.094,0.06,0.623,0,0.682c-0.061,0.061-0.588,0-0.682,0
			c-0.228,0-0.455,0-0.682,0c-1.137,0-2.272,0-3.409,0c-0.093,0-0.621,0.061-0.681,0c-0.061-0.061,0-0.588,0-0.682
			c0-0.227,0-0.453,0-0.682c0-0.227,0-0.453,0-0.68c0-0.229,0-0.455,0-0.682c0-0.229,0-0.455,0-0.682c0-0.229,0-0.455,0-0.682
			C677.697,201.485,677.629,201.048,677.697,200.938z"/>
	</g>
	
		<image overflow="visible" width="180" height="180" xlink:href="../../../../App-icons/fondoazul2/fbazul180x180.jpg"  transform="matrix(1 0 0 1 28.832 25.7363)">
	</image>
	<g>
		<polygon fill="#986338" points="1127.77,160.582 1158.118,143.447 1188.483,160.549 1181.566,126.389 1207.221,102.796 
			1172.593,98.817 1158.082,67.131 1143.598,98.833 1108.975,102.843 1134.65,126.412 		"/>
		<polygon fill="#986338" points="1225.113,146.734 1245.246,135.362 1265.391,146.712 1260.802,124.051 1277.82,108.402 
			1254.852,105.762 1245.221,84.738 1235.615,105.773 1212.648,108.428 1229.677,124.067 		"/>
		<polygon fill="#986338" points="1050.857,146.734 1070.99,135.362 1091.134,146.712 1086.545,124.051 1103.563,108.402 
			1080.596,105.762 1070.965,84.738 1061.359,105.773 1038.391,108.428 1055.426,124.067 		"/>
		<path fill="#986338" d="M1340.168,89.307V25.736H976.043v63.571c14.595,0,26.429,11.829,26.429,26.43
			s-11.834,26.429-26.429,26.429v63.57h364.125v-63.57c-14.596,0-26.43-11.834-26.43-26.43
			C1313.738,101.141,1325.572,89.307,1340.168,89.307z M1291.629,175.518h-267.047V55.954h267.048L1291.629,175.518
			L1291.629,175.518z"/>
	</g>
	<g>
		<path fill-rule="evenodd" clip-rule="evenodd" fill="#5B5B5F" d="M391.105,170.736c0,19.33-15.67,35-35,35l0,0
			c-19.33,0-35-15.67-35-35v-110c0-19.33,15.67-35,35-35l0,0c19.33,0,35,15.67,35,35V170.736z"/>
		<path fill-rule="evenodd" clip-rule="evenodd" fill="#5B5B5F" d="M301.105,150.736c-19.33,0-35-15.67-35-35l0,0
			c0-19.33,15.67-35,35-35h110c19.33,0,35,15.67,35,35l0,0c0,19.33-15.67,35-35,35H301.105z"/>
	</g>
	<g>
		<path fill-rule="evenodd" clip-rule="evenodd" fill="#5B5B5F" d="M919.178,82.236c0,11.046-8.955,20-20,20h-140
			c-11.046,0-20-8.954-20-20l0,0c0-11.046,8.954-20,20-20h140C910.223,62.236,919.178,71.19,919.178,82.236L919.178,82.236z"/>
		<path fill-rule="evenodd" clip-rule="evenodd" fill="#5B5B5F" d="M919.178,149.236c0,11.046-8.955,20-20,20h-140
			c-11.046,0-20-8.954-20-20l0,0c0-11.046,8.954-20,20-20h140C910.223,129.236,919.178,138.19,919.178,149.236L919.178,149.236z"/>
	</g>
</g>
</svg>
