<?xml version="1.0" encoding="utf-8"?>
<!-- Generator: Adobe Illustrator 17.0.0, SVG Export Plug-In . SVG Version: 6.00 Build 0)  -->
<!DOCTYPE svg PUBLIC "-//W3C//DTD SVG 1.1//EN" "http://www.w3.org/Graphics/SVG/1.1/DTD/svg11.dtd">
<svg version="1.1" xmlns="http://www.w3.org/2000/svg" xmlns:xlink="http://www.w3.org/1999/xlink" x="0px" y="0px" width="1000px"
	 height="500px" viewBox="0 0 1000 500" enable-background="new 0 0 1000 500" xml:space="preserve">

       
<style>
	 
	     #fecha{
    opacity:0;
         }
    #fecha:hover{
    opacity:1;
}
	 
	     #plataforma{
    opacity:0;
         }
    #plataforma:hover{
    opacity:1;
}
	 
	     #ventas{
    opacity:0;
         }
    #ventas:hover{
    opacity:1;
}
	 </style>

<g id="fondo">
	
		<image overflow="visible" width="1024" height="768" xlink:href="super-nintendo-snes-super-mario-kart-6669-MLM5096519743_092013-F.jpg"  transform="matrix(1.0039 0 0 1.0039 -9.7808 -78.9579)">
	</image>
</g>
<g id="menu">
	<g>
		<path fill="#FFFF00" stroke="#000000" stroke-width="3" stroke-miterlimit="10" d="M686.082,477.04v-9h-4.5v-9h-4.5v-9h-4.5v-22.5
			h4.5v-4.5h13.5v9h4.5v9h4.5v-9h4.5v-9h13.5v4.5h4.5v22.5h-4.5v9h-4.5v9h-4.5v9H686.082z M704.082,468.04v-9h4.5v-9h4.5v-9h4.5v-9
			h-4.5v-4.5h-4.5v9h-4.5v9h-4.5v9h-4.5v-9h-4.5v-9h-4.5v-9h-4.5v4.5h-4.5v9h4.5v9h4.5v9h4.5v9H704.082z"/>
		<path fill="#FFFF00" stroke="#000000" stroke-width="3" stroke-miterlimit="10" d="M727.918,477.04v-54h40.5v18h-4.5v13.5h4.5
			v22.5H727.918z M763.918,468.04v-9h-22.5v-9h18v-4.5h-18v-9h22.5v-9h-31.5v40.5H763.918z"/>
		<path fill="#FFFF00" stroke="#000000" stroke-width="3" stroke-miterlimit="10" d="M774.254,477.04v-49.5h4.5v-4.5h13.5v4.5h4.5
			v4.5h4.5v-9h18v49.5h-18v-4.5h-4.5v-4.5h-4.5v13.5H774.254z M787.754,468.04v-22.5h4.5v4.5h4.5v4.5h4.5v4.5h4.5v4.5h9v-36h-9v18
			h-4.5v-4.5h-4.5v-4.5h-4.5v-4.5h-4.5v-4.5h-4.5v4.5h-4.5v36H787.754z"/>
		<path fill="#FFFF00" stroke="#000000" stroke-width="3" stroke-miterlimit="10" d="M834.09,477.04v-27h4.5v-4.5h-13.5v-22.5h45
			v22.5h-13.5v31.5H834.09z M852.09,468.04v-31.5h13.5v-9h-36v9h13.5v18h-4.5v13.5H852.09z"/>
		<path fill="#FFFF00" stroke="#000000" stroke-width="3" stroke-miterlimit="10" d="M875.926,477.04v-27h4.5v-9h4.5v-9h4.5v-9h22.5
			v4.5h4.5v4.5h4.5v45H875.926z M916.426,468.04v-31.5h-4.5v-4.5h-4.5v-4.5h-13.5v9h-4.5v9h-4.5v9h-4.5v13.5h13.5v-9h9v9H916.426z
			 M893.926,454.54v-13.5h13.5v13.5H893.926z"/>
		<path fill="#FFFF00" stroke="#000000" stroke-width="3" stroke-miterlimit="10" d="M935.762,477.04v-4.5h-4.5v-4.5h-4.5v-36h4.5
			v-4.5h4.5v-4.5h31.5v4.5h4.5v45h-4.5v4.5H935.762z M962.762,468.04v-4.5h4.5v-13.5h-4.5v-4.5h-13.5v-4.5h-4.5v-4.5h13.5v4.5h4.5
			v-4.5h4.5v-4.5h-4.5v-4.5h-22.5v4.5h-4.5v4.5h-4.5v4.5h4.5v4.5h9v4.5h9v4.5h4.5v4.5h-13.5v-4.5h-4.5v-4.5h-4.5v4.5h-4.5v4.5h4.5
			v4.5h4.5v4.5H962.762z"/>
	</g>
	<g>
		<path fill="#FFFF00" stroke="#000000" stroke-width="3" stroke-miterlimit="10" d="M19.979,78.059v-54h31.5v4.5h4.5v4.5h4.5v27
			h-4.5v4.5h-18v13.5H19.979z M33.479,69.059v-13.5h18v-4.5h4.5v-13.5h-4.5v-4.5h-4.5v-4.5h-22.5v40.5H33.479z M33.479,51.059v-13.5
			h13.5v13.5H33.479z"/>
		<path fill="#FFFF00" stroke="#000000" stroke-width="3" stroke-miterlimit="10" d="M66.314,78.059v-27h4.5v-13.5h4.5v-13.5h18
			v31.5h18v22.5H66.314z M106.814,69.059v-9h-22.5v-13.5h4.5v-18h-9v13.5h-4.5v13.5h-4.5v13.5H106.814z"/>
		<path fill="#FFFF00" stroke="#000000" stroke-width="3" stroke-miterlimit="10" d="M117.15,78.059v-27h4.5v-9h4.5v-9h4.5v-9h22.5
			v4.5h4.5v4.5h4.5v45H117.15z M157.65,69.059v-31.5h-4.5v-4.5h-4.5v-4.5h-13.5v9h-4.5v9h-4.5v9h-4.5v13.5h13.5v-9h9v9H157.65z
			 M135.15,55.559v-13.5h13.5v13.5H135.15z"/>
		<path fill="#FFFF00" stroke="#000000" stroke-width="3" stroke-miterlimit="10" d="M176.986,78.059v-27h4.5v-4.5h-13.5v-22.5h45
			v22.5h-13.5v31.5H176.986z M194.986,69.059v-31.5h13.5v-9h-36v9h13.5v18h-4.5v13.5H194.986z"/>
		<path fill="#FFFF00" stroke="#000000" stroke-width="3" stroke-miterlimit="10" d="M218.822,78.059v-27h4.5v-9h4.5v-9h4.5v-9h22.5
			v4.5h4.5v4.5h4.5v45H218.822z M259.322,69.059v-31.5h-4.5v-4.5h-4.5v-4.5h-13.5v9h-4.5v9h-4.5v9h-4.5v13.5h13.5v-9h9v9H259.322z
			 M236.822,55.559v-13.5h13.5v13.5H236.822z"/>
		<path fill="#FFFF00" stroke="#000000" stroke-width="3" stroke-miterlimit="10" d="M269.658,78.059v-54h40.5v18h-4.5v18h-18v18
			H269.658z M283.158,69.059v-18h18v-4.5h-18v-9h22.5v-9h-31.5v40.5H283.158z"/>
		<path fill="#FFFF00" stroke="#000000" stroke-width="3" stroke-miterlimit="10" d="M324.994,78.059v-4.5h-4.5v-4.5h-4.5v-31.5h4.5
			v-4.5h4.5v-4.5h4.5v-4.5h22.5v4.5h4.5v4.5h4.5v36h-4.5v4.5h-4.5v4.5H324.994z M347.494,69.059v-4.5h4.5v-4.5h4.5v-22.5h-4.5v-4.5
			h-4.5v-4.5h-13.5v4.5h-4.5v4.5h-4.5v4.5h-4.5v18h4.5v4.5h4.5v4.5H347.494z M333.994,60.059v-4.5h-4.5v-13.5h4.5v-4.5h9v4.5h4.5
			v13.5h-4.5v4.5H333.994z"/>
		<path fill="#FFFF00" stroke="#000000" stroke-width="3" stroke-miterlimit="10" d="M366.83,78.059v-54h36v4.5h4.5v4.5h4.5v40.5
			h-4.5v4.5h-13.5v-4.5h-4.5v-4.5h-4.5v9H366.83z M402.83,69.059v-4.5h4.5v-4.5h-4.5v-4.5h-4.5v-4.5h4.5v-4.5h4.5v-9h-4.5v-4.5h-4.5
			v-4.5h-27v40.5h9v-13.5h9v4.5h4.5v4.5h4.5v4.5H402.83z M380.33,51.059v-13.5h18v9h-4.5v4.5H380.33z"/>
		<path fill="#FFFF00" stroke="#000000" stroke-width="3" stroke-miterlimit="10" d="M417.666,78.059v-27h4.5v-27h18v13.5h4.5v-13.5
			h18v27h4.5v27h-18v-4.5h-13.5v4.5H417.666z M462.666,69.059v-13.5h-4.5v-27h-9v13.5h-4.5v4.5h-4.5v-4.5h-4.5v-13.5h-9v27h-4.5
			v13.5h9v-13.5h4.5v4.5h4.5v4.5h4.5v-4.5h4.5v-4.5h4.5v13.5H462.666z"/>
		<path fill="#FFFF00" stroke="#000000" stroke-width="3" stroke-miterlimit="10" d="M473.002,78.059v-27h4.5v-9h4.5v-9h4.5v-9
			h22.501v4.5h4.5v4.5h4.5v45H473.002z M513.503,69.059v-31.5h-4.5v-4.5h-4.5v-4.5h-13.5v9h-4.5v9h-4.5v9h-4.5v13.5h13.5v-9h9v9
			H513.503z M491.002,55.559v-13.5h13.5v13.5H491.002z"/>
	</g>
	<g>
		<path fill="#FFFF00" stroke="#000000" stroke-width="3" stroke-miterlimit="10" d="M19.979,467.278v-45h33.75v15h-3.75v15h-15v15
			H19.979z M31.229,459.778v-15h15v-3.75h-15v-7.5h18.75v-7.5h-26.25v33.75H31.229z"/>
		<path fill="#FFFF00" stroke="#000000" stroke-width="3" stroke-miterlimit="10" d="M58.592,467.278v-45h33.75v15h-3.75v11.25h3.75
			v18.75H58.592z M88.592,459.778v-7.5h-18.75v-7.5h15v-3.75h-15v-7.5h18.75v-7.5h-26.25v33.75H88.592z"/>
		<path fill="#FFFF00" stroke="#000000" stroke-width="3" stroke-miterlimit="10" d="M104.705,467.278v-3.75h-3.75v-3.75h-3.75
			v-26.25h3.75v-3.75h3.75v-3.75h3.75v-3.75h18.75v3.75h3.75v3.75h3.75v30h-3.75v3.75h-3.75v3.75H104.705z M123.455,459.778v-3.75
			h3.75v-3.75h3.75v-3.75h-3.75v-3.75h-3.75v3.75h-3.75v3.75h-7.5v-3.75h-3.75v-11.25h3.75v-3.75h7.5v3.75h3.75v3.75h3.75v-3.75
			h3.75v-3.75h-3.75v-3.75h-3.75v-3.75h-11.25v3.75h-3.75v3.75h-3.75v3.75h-3.75v15h3.75v3.75h3.75v3.75H123.455z"/>
		<path fill="#FFFF00" stroke="#000000" stroke-width="3" stroke-miterlimit="10" d="M139.568,467.278v-48.75h18.75v15h3.75v-15h15
			v48.75h-15v-11.25h-7.5v11.25H139.568z M173.318,459.778v-37.5h-7.5v15h-11.25v-15h-11.25v37.5h7.5v-11.25h15v11.25H173.318z"/>
		<path fill="#FFFF00" stroke="#000000" stroke-width="3" stroke-miterlimit="10" d="M181.932,467.278v-22.5h3.75v-7.5h3.75v-7.5
			h3.75v-7.5h18.75v3.75h3.75v3.75h3.75v37.5H181.932z M215.682,459.778v-26.25h-3.75v-3.75h-3.75v-3.75h-11.25v7.5h-3.75v7.5h-3.75
			v7.5h-3.75v11.25h11.25v-7.5h7.5v7.5H215.682z M196.932,448.528v-11.25h11.25v11.25H196.932z"/>
	</g>
</g>
<g id="fecha">
	<linearGradient id="SVGID_1_" gradientUnits="userSpaceOnUse" x1="225.9575" y1="280.2823" x2="782.4296" y2="280.2823">
		<stop  offset="0" style="stop-color:#FFF6AD"/>
		<stop  offset="0.5" style="stop-color:#FFED00"/>
		<stop  offset="1" style="stop-color:#FFD800"/>
	</linearGradient>
	<path opacity="0.8" fill="url(#SVGID_1_)" stroke="#000000" stroke-width="3" stroke-miterlimit="10" d="M588.939,155.982
		c-106.862,0-193.49,43.65-193.49,97.495c0,17.304,8.958,33.551,24.647,47.638L225.957,404.583l243.937-74.245
		c32.829,12.928,74.15,20.635,119.045,20.635c106.862,0,193.49-43.65,193.49-97.495C782.43,199.632,695.801,155.982,588.939,155.982
		z"/>
	<g>
		<path d="M486.066,254.466v-6.75h2.25v-2.25h2.25v-2.25h2.25v-2.25h2.25v-2.25h-9v-4.5h11.25v2.25h2.25v2.25h2.25v2.25h-2.25v2.25
			h-2.25v2.25h-2.25v2.25h-2.25v2.25h9v4.5H486.066z"/>
		<path d="M511.484,254.466v-6.75h2.25v-4.5h2.25v-4.5h-6.75v2.25h-4.5v-6.75h13.5v2.25h2.25v2.25h2.25v2.25h-2.25v4.5h-2.25v4.5
			h-2.25v4.5H511.484z"/>
		<path d="M530.82,254.466v-20.25h9v2.25h2.25v2.25h2.25v2.25h2.25v6.75h-2.25v2.25h-2.25v2.25h-2.25v2.25H530.82z M537.57,249.965
			v-2.25h2.25v-2.25h2.25v-4.5h-2.25v-2.25h-4.5v11.25H537.57z"/>
		<path d="M549.488,254.466v-20.25h15.75v4.5h-11.25v4.5h9v2.25h-9v4.5h11.25v4.5H549.488z"/>
		<path d="M573.324,254.466v-6.75h2.25v-4.5h2.25v-4.5h2.25v-4.5h6.75v2.25h2.25v2.25h2.25v15.75h-6.75v-4.5h-4.5v4.5H573.324z
			 M586.824,247.715v-6.75h-6.75v6.75H586.824z"/>
		<path d="M598.742,254.466v-2.25h-2.25v-2.25h-2.25v-9h2.25v-2.25h2.25v-2.25h2.25v-2.25h6.75v2.25h2.25v2.25h2.25v2.25h-6.75
			v-2.25h-4.5v2.25h-2.25v6.75h2.25v2.25h4.5v-2.25h2.25v-2.25h-4.5v-2.25h9v6.75h-2.25v2.25h-2.25v2.25H598.742z"/>
		<path d="M619.66,254.466v-2.25h-2.25v-2.25h-2.25v-9h2.25v-2.25h2.25v-2.25h2.25v-2.25h6.75v2.25h2.25v2.25h2.25v11.25h-2.25v2.25
			h-2.25v2.25H619.66z M626.41,249.965v-2.25h2.25v-6.75h-2.25v-2.25h-4.5v2.25h-2.25v6.75h2.25v2.25H626.41z"/>
		<path d="M640.578,254.466v-2.25h-2.25v-2.25h-2.25v-2.25h2.25v-2.25h2.25v2.25h2.25v2.25h6.75v-2.25h-2.25v-2.25h-4.5v-2.25h-4.5
			v-2.25h-2.25v-2.25h2.25v-2.25h2.25v-2.25h11.25v2.25h2.25v2.25h-2.25v2.25h-2.25v-2.25h-6.75v2.25h2.25v2.25h6.75v2.25h2.25v6.75
			h-2.25v2.25H640.578z"/>
		<path d="M661.496,254.466v-6.75h2.25v-9h-6.75v-4.5h18v4.5h-6.75v15.75H661.496z"/>
		<path d="M682.414,254.466v-2.25h-2.25v-2.25h-2.25v-9h2.25v-2.25h2.25v-2.25h2.25v-2.25h6.75v2.25h2.25v2.25h2.25v11.25h-2.25
			v2.25h-2.25v2.25H682.414z M689.164,249.965v-2.25h2.25v-6.75h-2.25v-2.25h-4.5v2.25h-2.25v6.75h2.25v2.25H689.164z"/>
		<path d="M533.861,297.665v-20.25h9v2.25h2.25v2.25h2.25v2.25h2.25v6.75h-2.25v2.25h-2.25v2.25h-2.25v2.25H533.861z
			 M540.611,293.165v-2.25h2.25v-2.25h2.25v-4.5h-2.25v-2.25h-4.5v11.25H540.611z"/>
		<path d="M552.529,297.665v-20.25h15.75v4.5h-11.25v4.5h9v2.25h-9v4.5h11.25v4.5H552.529z"/>
		<path d="M578.615,297.665v-15.75h-2.25v-4.5h6.75v20.25H578.615z"/>
		<path d="M595.033,297.665v-4.5h2.25v-4.5h-9v-2.25h-2.25v-4.5h2.25v-2.25h2.25v-2.25h11.25v2.25h2.25v2.25h2.25v4.5h-2.25v2.25
			h-2.25v4.5h-2.25v4.5H595.033z M599.533,286.415v-4.5h-6.75v4.5H599.533z"/>
		<path d="M618.201,297.665v-4.5h2.25v-4.5h-9v-2.25h-2.25v-4.5h2.25v-2.25h2.25v-2.25h11.25v2.25h2.25v2.25h2.25v4.5h-2.25v2.25
			h-2.25v4.5h-2.25v4.5H618.201z M622.701,286.415v-4.5h-6.75v4.5H622.701z"/>
		<path d="M632.369,297.665v-6.75h2.25v-2.25h2.25v-2.25h2.25v-2.25h2.25v-2.25h-9v-4.5h11.25v2.25h2.25v2.25h2.25v2.25h-2.25v2.25
			h-2.25v2.25h-2.25v2.25h-2.25v2.25h9v4.5H632.369z"/>
	</g>
	<rect x="8" y="415" opacity="0.1" fill="#FFFFFF" width="222" height="63.466"/>
</g>
<g id="plataforma">
	<linearGradient id="SVGID_2_" gradientUnits="userSpaceOnUse" x1="327.5991" y1="227.785" x2="782.4296" y2="227.785">
		<stop  offset="0" style="stop-color:#DAE5A7"/>
		<stop  offset="0.5" style="stop-color:#B8D26E"/>
		<stop  offset="1" style="stop-color:#7FB525"/>
	</linearGradient>
	<path opacity="0.8" fill="url(#SVGID_2_)" stroke="#000000" stroke-width="3" stroke-miterlimit="10" d="M588.45,158.982
		c-39.351,0-75.956,5.895-106.535,16.015l-154.316-73.399l93.52,105.544c-16.929,14.473-26.649,31.332-26.649,49.335
		c0,53.845,86.848,97.495,193.98,97.495s193.98-43.65,193.98-97.495C782.43,202.632,695.582,158.982,588.45,158.982z"/>
	<g>
		<path d="M534.529,215.765v-2.25h-2.25v-2.25h-2.25v-18h2.25v-2.25h2.25v-2.25h15.75v2.25h2.25v22.5h-2.25v2.25H534.529z
			 M548.029,211.265v-2.25h2.25v-6.75h-2.25v-2.25h-6.75v-2.25h-2.25v-2.25h6.75v2.25h2.25v-2.25h2.25v-2.25h-2.25v-2.25h-11.25
			v2.25h-2.25v2.25h-2.25v2.25h2.25v2.25h4.5v2.25h4.5v2.25h2.25v2.25h-6.75v-2.25h-2.25v-2.25h-2.25v2.25h-2.25v2.25h2.25v2.25
			h2.25v2.25H548.029z"/>
		<path d="M559.947,215.765v-2.25h-2.25v-2.25h-2.25v-22.5h9v13.5h6.75v-11.25h9v20.25h-2.25v2.25h-2.25v2.25H559.947z
			 M573.447,211.265v-2.25h2.25v-2.25h2.25v-13.5h-4.5v11.25h-2.25v2.25h-6.75v-2.25h-2.25v-13.5h-4.5v15.75h2.25v2.25h2.25v2.25
			H573.447z"/>
		<path d="M583.115,215.765v-27h15.75v2.25h2.25v2.25h2.25v13.5h-2.25v2.25h-9v6.75H583.115z M589.865,211.265v-6.75h9v-2.25h2.25
			v-6.75h-2.25v-2.25h-2.25v-2.25h-11.25v20.25H589.865z M589.865,202.265v-6.75h6.75v6.75H589.865z"/>
		<path d="M606.283,215.765v-27h20.25v9h-2.25v6.75h2.25v11.25H606.283z M624.283,211.265v-4.5h-11.25v-4.5h9v-2.25h-9v-4.5h11.25
			v-4.5h-15.75v20.25H624.283z"/>
		<path d="M629.451,215.765v-27h18v2.25h2.25v2.25h2.25v20.25h-2.25v2.25h-6.75v-2.25h-2.25v-2.25h-2.25v4.5H629.451z
			 M647.451,211.265v-2.25h2.25v-2.25h-2.25v-2.25h-2.25v-2.25h2.25v-2.25h2.25v-4.5h-2.25v-2.25h-2.25v-2.25h-13.5v20.25h4.5v-6.75
			h4.5v2.25h2.25v2.25h2.25v2.25H647.451z M636.201,202.265v-6.75h9v4.5h-2.25v2.25H636.201z"/>
		<path d="M497.527,258.966v-24.75h2.25v-2.25h6.75v2.25h2.25v2.25h2.25v-4.5h9v24.75h-9v-2.25h-2.25v-2.25h-2.25v6.75H497.527z
			 M504.277,254.466v-11.25h2.25v2.25h2.25v2.25h2.25v2.25h2.25v2.25h4.5v-18h-4.5v9h-2.25v-2.25h-2.25v-2.25h-2.25v-2.25h-2.25
			v-2.25h-2.25v2.25h-2.25v18H504.277z"/>
		<path d="M522.945,258.966v-27h13.5v13.5h-2.25v6.75h-2.25v6.75H522.945z M529.695,254.466v-6.75h2.25v-6.75h2.25v-6.75h-9v20.25
			H529.695z"/>
		<path d="M539.363,258.966v-24.75h2.25v-2.25h6.75v2.25h2.25v2.25h2.25v-4.5h9v24.75h-9v-2.25h-2.25v-2.25h-2.25v6.75H539.363z
			 M546.113,254.466v-11.25h2.25v2.25h2.25v2.25h2.25v2.25h2.25v2.25h4.5v-18h-4.5v9h-2.25v-2.25h-2.25v-2.25h-2.25v-2.25h-2.25
			v-2.25h-2.25v2.25h-2.25v18H546.113z"/>
		<path d="M569.281,258.966v-13.5h2.25v-2.25h-6.75v-11.25h22.5v11.25h-6.75v15.75H569.281z M578.281,254.466v-15.75h6.75v-4.5h-18
			v4.5h6.75v9h-2.25v6.75H578.281z"/>
		<path d="M590.199,258.966v-27h20.25v9h-2.25v6.75h2.25v11.25H590.199z M608.199,254.466v-4.5h-11.25v-4.5h9v-2.25h-9v-4.5h11.25
			v-4.5h-15.75v20.25H608.199z"/>
		<path d="M613.367,258.966v-24.75h2.25v-2.25h6.75v2.25h2.25v2.25h2.25v-4.5h9v24.75h-9v-2.25h-2.25v-2.25h-2.25v6.75H613.367z
			 M620.117,254.466v-11.25h2.25v2.25h2.25v2.25h2.25v2.25h2.25v2.25h4.5v-18h-4.5v9h-2.25v-2.25h-2.25v-2.25h-2.25v-2.25h-2.25
			v-2.25h-2.25v2.25h-2.25v18H620.117z"/>
		<path d="M638.785,258.966v-27h13.5v2.25h2.25v2.25h2.25v2.25h2.25v13.5h-2.25v2.25h-2.25v2.25h-2.25v2.25H638.785z
			 M650.035,254.466v-2.25h2.25v-2.25h2.25v-2.25h2.25v-6.75h-2.25v-2.25h-2.25v-2.25h-2.25v-2.25h-9v20.25H650.035z
			 M645.535,249.965v-11.25h4.5v2.25h2.25v4.5h-2.25v2.25h-2.25v2.25H645.535z"/>
		<path d="M666.453,258.966v-2.25h-2.25v-2.25h-2.25v-15.75h2.25v-2.25h2.25v-2.25h2.25v-2.25h11.25v2.25h2.25v2.25h2.25v18h-2.25
			v2.25h-2.25v2.25H666.453z M677.703,254.466v-2.25h2.25v-2.25h2.25v-11.25h-2.25v-2.25h-2.25v-2.25h-6.75v2.25h-2.25v2.25h-2.25
			v2.25h-2.25v9h2.25v2.25h2.25v2.25H677.703z M670.953,249.965v-2.25h-2.25v-6.75h2.25v-2.25h4.5v2.25h2.25v6.75h-2.25v2.25
			H670.953z"/>
	</g>
	<rect x="19.978" y="17" opacity="0.1" fill="#FFFFFF" width="512.974" height="72"/>
	
		<image overflow="visible" width="1126" height="800" xlink:href="Super_Mario_Kart_(NA).png"  transform="matrix(0.3065 0 0 0.3065 31.933 121.4824)">
	</image>
	
		<image overflow="visible" width="400" height="258" xlink:href="super_nintendo_entertainment_system-usa1.png"  transform="matrix(0.5557 0 0 0.5557 766.7796 193.1442)">
	</image>
</g>
<g id="ventas">
	<linearGradient id="SVGID_3_" gradientUnits="userSpaceOnUse" x1="394.4703" y1="277.2825" x2="795.5757" y2="277.2825">
		<stop  offset="0" style="stop-color:#FFEBA9"/>
		<stop  offset="0.5" style="stop-color:#FECC00"/>
		<stop  offset="1" style="stop-color:#F8AE00"/>
	</linearGradient>
	<path fill="url(#SVGID_3_)" stroke="#000000" stroke-width="3" stroke-miterlimit="10" d="M795.576,395.583l-38.702-90.707
		c16.258-14.261,25.556-30.784,25.556-48.399c0-53.845-86.848-97.495-193.98-97.495s-193.98,43.65-193.98,97.495
		c0,53.845,86.848,97.495,193.98,97.495c42.332,0,81.489-6.82,113.38-18.386L795.576,395.583z"/>
	<rect x="461.956" y="190.979" fill="none" width="260.987" height="128.607"/>
	<text transform="matrix(1 0 0 1 555.1129 211.2654)"><tspan x="0" y="0" font-family="'Mario-Kart-DS'" font-size="36">8.76</tspan><tspan x="-52.295" y="43.2" font-family="'Mario-Kart-DS'" font-size="36">milllones</tspan></text>
	<rect x="672.582" y="415" opacity="0.1" fill="#FFFFFF" width="313.348" height="72"/>
</g>
</svg>
